SplineFontDB: 3.0
FontName: BenchTwelve-Regular
FullName: BenchTwelve Regular
FamilyName: BenchTwelve
Weight: Book
Copyright: Copyright (c) 2011-12 vernon adams
Version: 1
ItalicAngle: 0
UnderlinePosition: 0
UnderlineWidth: 0
Ascent: 1638
Descent: 410
sfntRevision: 0x00010000
LayerCount: 2
Layer: 0 1 "Back"  1
Layer: 1 1 "Fore"  0
XUID: [1021 332 1330122705 2734956]
FSType: 0
OS2Version: 4
OS2_WeightWidthSlopeOnly: 1
OS2_UseTypoMetrics: 1
CreationTime: 1342305810
ModificationTime: 1348273983
PfmFamily: 17
TTFWeight: 400
TTFWidth: 6
LineGap: 0
VLineGap: 0
Panose: 2 0 5 3 0 0 0 0 0 0
OS2TypoAscent: 2020
OS2TypoAOffset: 0
OS2TypoDescent: -720
OS2TypoDOffset: 0
OS2TypoLinegap: 0
OS2WinAscent: 2020
OS2WinAOffset: 0
OS2WinDescent: 720
OS2WinDOffset: 0
HheadAscent: 2020
HheadAOffset: 0
HheadDescent: -720
HheadDOffset: 0
OS2SubXSize: 1331
OS2SubYSize: 1433
OS2SubXOff: 0
OS2SubYOff: 286
OS2SupXSize: 1331
OS2SupYSize: 1433
OS2SupXOff: 0
OS2SupYOff: 983
OS2StrikeYSize: 102
OS2StrikeYPos: 530
OS2Vendor: 'newt'
OS2CodePages: 00000093.00000000
OS2UnicodeRanges: a000006f.4000204a.00000000.00000000
Lookup: 4 0 1 "'liga' Standard Ligatures lookup 0"  {"'liga' Standard Ligatures lookup 0 subtable"  } ['liga' ('DFLT' <'dflt' > 'grek' <'dflt' > 'latn' <'dflt' > ) ]
Lookup: 258 0 0 "'kern' Horizontal Kerning in Latin lookup 0"  {"'kern' Horizontal Kerning in Latin lookup 0 per glyph data 0"  "'kern' Horizontal Kerning in Latin lookup 0 kerning class 1"  } ['kern' ('DFLT' <'dflt' > 'latn' <'dflt' > ) ]
MarkAttachClasses: 1
DEI: 91125
KernClass2: 32 26 "'kern' Horizontal Kerning in Latin lookup 0 kerning class 1" 
 89 A Agrave Aacute Acircumflex Atilde Adieresis Aring Amacron Abreve Aogonek uni0200 uni0202
 1 B
 1 C
 111 D O Q Eth Ograve Oacute Ocircumflex Otilde Odieresis Oslash Dcaron Omacron Obreve Ohungarumlaut uni020C uni020E
 1 F
 1 G
 1 K
 1 L
 1 P
 44 R Racute Rcommaaccent Rcaron uni0210 uni0212
 37 S Sacute Scedilla Scaron Scommaaccent
 17 T Tcaron glyph425

StartChar: .notdef
Encoding: 65536 -1 0
Width: 748
Flags: W
LayerCount: 2
Fore
SplineSet
68 0 m 1,0,-1
 68 1365 l 1,1,-1
 612 1365 l 1,2,-1
 612 0 l 1,3,-1
 68 0 l 1,0,-1
136 68 m 1,4,-1
 544 68 l 1,5,-1
 544 1297 l 1,6,-1
 136 1297 l 1,7,-1
 136 68 l 1,4,-1
EndSplineSet
EndChar

StartChar: exclam
Encoding: 33 33 4
Width: 541
GlyphClass: 2
Flags: W
LayerCount: 2
Fore
SplineSet
215 0 m 2,0,1
 148 0 148 0 148 67 c 2,2,-1
 148 178 l 2,3,4
 148 245 148 245 215 245 c 2,5,-1
 323 245 l 2,6,7
 390 245 390 245 390 178 c 2,8,-1
 390 67 l 2,9,10
 390 0 390 0 323 0 c 2,11,-1
 215 0 l 2,0,1
280 430 m 2,12,13
 259 430 259 430 249 439 c 128,-1,14
 239 448 239 448 237 459 c 128,-1,15
 235 470 235 470 234 496 c 1,16,-1
 167 1364 l 1,17,18
 167 1436 167 1436 234 1436 c 2,19,-1
 319 1436 l 2,20,21
 350 1436 350 1436 369 1413 c 128,-1,22
 388 1390 388 1390 386 1364 c 2,23,-1
 327 496 l 2,24,25
 325 474 325 474 324 466.5 c 128,-1,26
 323 459 323 459 319 448 c 128,-1,27
 315 437 315 437 306 433.5 c 128,-1,28
 297 430 297 430 281 430 c 2,29,-1
 280 430 l 2,12,13
EndSplineSet
EndChar

StartChar: quotedbl
Encoding: 34 34 5
Width: 826
GlyphClass: 2
Flags: W
LayerCount: 2
Fore
SplineSet
245 774 m 2,0,1
 236 774 236 774 229.5 775 c 128,-1,2
 223 776 223 776 218 780 c 128,-1,3
 213 784 213 784 210.5 786.5 c 128,-1,4
 208 789 208 789 206 797 c 128,-1,5
 204 805 204 805 203.5 808.5 c 128,-1,6
 203 812 203 812 201.5 824 c 128,-1,7
 200 836 200 836 199 841 c 2,8,-1
 133 1348 l 2,9,10
 132 1352 132 1352 132 1361 c 0,11,12
 132 1391 132 1391 151 1413.5 c 128,-1,13
 170 1436 170 1436 199 1436 c 2,14,-1
 286 1436 l 2,15,16
 315 1436 315 1436 334.5 1412 c 128,-1,17
 354 1388 354 1388 354 1357 c 0,18,19
 354 1356 354 1356 353.5 1352 c 128,-1,20
 353 1348 353 1348 353 1347 c 2,21,-1
 294 841 l 2,22,23
 294 837 294 837 293 827.5 c 128,-1,24
 292 818 292 818 291.5 815 c 128,-1,25
 291 812 291 812 289.5 804.5 c 128,-1,26
 288 797 288 797 287 795 c 128,-1,27
 286 793 286 793 283.5 788 c 128,-1,28
 281 783 281 783 278 781.5 c 128,-1,29
 275 780 275 780 270.5 777.5 c 128,-1,30
 266 775 266 775 260.5 774.5 c 128,-1,31
 255 774 255 774 248 774 c 2,32,-1
 245 774 l 2,0,1
581 774 m 2,33,34
 572 774 572 774 565.5 775 c 128,-1,35
 559 776 559 776 554 780 c 128,-1,36
 549 784 549 784 546.5 786.5 c 128,-1,37
 544 789 544 789 542 797 c 128,-1,38
 540 805 540 805 539.5 808.5 c 128,-1,39
 539 812 539 812 537.5 824 c 128,-1,40
 536 836 536 836 535 841 c 2,41,-1
 469 1348 l 2,42,43
 468 1352 468 1352 468 1359 c 0,44,45
 468 1389 468 1389 488 1412.5 c 128,-1,46
 508 1436 508 1436 536 1436 c 2,47,-1
 623 1436 l 2,48,49
 652 1436 652 1436 671 1412 c 128,-1,50
 690 1388 690 1388 690 1357 c 0,51,52
 690 1356 690 1356 689.5 1352 c 128,-1,53
 689 1348 689 1348 689 1347 c 2,54,-1
 630 841 l 2,55,56
 630 837 630 837 629 827.5 c 128,-1,57
 628 818 628 818 627.5 815 c 128,-1,58
 627 812 627 812 625.5 804.5 c 128,-1,59
 624 797 624 797 623 795 c 128,-1,60
 622 793 622 793 619.5 788 c 128,-1,61
 617 783 617 783 614 781.5 c 128,-1,62
 611 780 611 780 606.5 777.5 c 128,-1,63
 602 775 602 775 596.5 774.5 c 128,-1,64
 591 774 591 774 584 774 c 2,65,-1
 581 774 l 2,33,34
EndSplineSet
EndChar

StartChar: numbersign
Encoding: 35 35 6
Width: 1709
GlyphClass: 2
Flags: W
LayerCount: 2
Fore
SplineSet
239 -205 m 2,0,1
 226 -205 226 -205 218 -194 c 128,-1,2
 210 -183 210 -183 215 -170 c 1,3,-1
 353 418 l 1,4,-1
 201 418 l 2,5,6
 167 418 167 418 150.5 431 c 128,-1,7
 134 444 134 444 134 475 c 2,8,-1
 134 530 l 2,9,10
 134 561 134 561 150.5 574 c 128,-1,11
 167 587 167 587 201 587 c 2,12,-1
 392 587 l 1,13,-1
 451 835 l 1,14,-1
 276 835 l 2,15,16
 242 835 242 835 225.5 848 c 128,-1,17
 209 861 209 861 209 892 c 2,18,-1
 209 949 l 2,19,20
 209 980 209 980 225.5 993 c 128,-1,21
 242 1006 242 1006 276 1006 c 2,22,-1
 490 1006 l 1,23,-1
 632 1612 l 1,24,25
 645 1647 645 1647 682 1647 c 2,26,-1
 784 1647 l 2,27,28
 797 1647 797 1647 805 1636 c 128,-1,29
 813 1625 813 1625 808 1612 c 1,30,-1
 666 1006 l 1,31,-1
 1145 1006 l 1,32,-1
 1287 1612 l 1,33,34
 1300 1647 1300 1647 1337 1647 c 2,35,-1
 1439 1647 l 2,36,37
 1452 1647 1452 1647 1460 1636 c 128,-1,38
 1468 1625 1468 1625 1463 1612 c 1,39,-1
 1321 1006 l 1,40,-1
 1508 1006 l 2,41,42
 1542 1006 1542 1006 1558.5 993 c 128,-1,43
 1575 980 1575 980 1575 949 c 2,44,-1
 1575 892 l 2,45,46
 1575 861 1575 861 1558.5 848 c 128,-1,47
 1542 835 1542 835 1508 835 c 2,48,-1
 1282 835 l 1,49,-1
 1223 587 l 1,50,-1
 1433 587 l 2,51,52
 1467 587 1467 587 1483.5 574 c 128,-1,53
 1500 561 1500 561 1500 530 c 2,54,-1
 1500 475 l 2,55,56
 1500 444 1500 444 1483.5 431 c 128,-1,57
 1467 418 1467 418 1433 418 c 2,58,-1
 1184 418 l 1,59,-1
 1046 -170 l 1,60,61
 1033 -205 1033 -205 996 -205 c 2,62,-1
 894 -205 l 2,63,64
 881 -205 881 -205 873 -194 c 128,-1,65
 865 -183 865 -183 870 -170 c 1,66,-1
 1008 418 l 1,67,-1
 529 418 l 1,68,-1
 391 -170 l 1,69,70
 378 -205 378 -205 341 -205 c 2,71,-1
 239 -205 l 2,0,1
568 587 m 1,72,-1
 1047 587 l 1,73,-1
 1106 835 l 1,74,-1
 627 835 l 1,75,-1
 568 587 l 1,72,-1
EndSplineSet
EndChar

StartChar: dollar
Encoding: 36 36 7
Width: 2048
GlyphClass: 2
Flags: W
LayerCount: 2
Fore
SplineSet
947 831 m 1,0,-1
 947 1313 l 1,1,2
 774 1311 774 1311 654 1291.5 c 128,-1,3
 534 1272 534 1272 470.5 1237.5 c 128,-1,4
 407 1203 407 1203 380.5 1162 c 128,-1,5
 354 1121 354 1121 354 1067 c 0,6,7
 354 1028 354 1028 361 1001 c 128,-1,8
 368 974 368 974 389 947 c 128,-1,9
 410 920 410 920 450 902.5 c 128,-1,10
 490 885 490 885 555.5 869.5 c 128,-1,11
 621 854 621 854 717.5 845 c 128,-1,12
 814 836 814 836 947 831 c 1,0,-1
1039 123 m 1,13,14
 1188 125 1188 125 1294 139 c 128,-1,15
 1400 153 1400 153 1464 175.5 c 128,-1,16
 1528 198 1528 198 1564.5 235.5 c 128,-1,17
 1601 273 1601 273 1613.5 313 c 128,-1,18
 1626 353 1626 353 1626 410 c 0,19,20
 1626 462 1626 462 1615 496.5 c 128,-1,21
 1604 531 1604 531 1569.5 563.5 c 128,-1,22
 1535 596 1535 596 1471 613.5 c 128,-1,23
 1407 631 1407 631 1300 642 c 128,-1,24
 1193 653 1193 653 1039 653 c 1,25,-1
 1039 123 l 1,13,14
1005 -197 m 2,26,-1
 981 -197 l 2,27,28
 947 -197 947 -197 947 -137 c 2,29,-1
 947 -41 l 1,30,31
 722 -40 722 -40 554.5 -10 c 128,-1,32
 387 20 387 20 187 98 c 1,33,34
 147 112 147 112 145 164 c 1,35,-1
 155 213 l 1,36,37
 175 255 175 255 222 258 c 1,38,39
 245 257 245 257 303 237 c 128,-1,40
 361 217 361 217 431.5 194 c 128,-1,41
 502 171 502 171 641 149 c 128,-1,42
 780 127 780 127 947 122 c 1,43,-1
 947 653 l 1,44,45
 809 656 809 656 706.5 663.5 c 128,-1,46
 604 671 604 671 509.5 688 c 128,-1,47
 415 705 415 705 351 733.5 c 128,-1,48
 287 762 287 762 239 804 c 128,-1,49
 191 846 191 846 168.5 906 c 128,-1,50
 146 966 146 966 146 1045 c 0,51,52
 146 1122 146 1122 168.5 1184 c 128,-1,53
 191 1246 191 1246 229.5 1290 c 128,-1,54
 268 1334 268 1334 327 1367 c 128,-1,55
 386 1400 386 1400 451.5 1420.5 c 128,-1,56
 517 1441 517 1441 601.5 1453.5 c 128,-1,57
 686 1466 686 1466 767.5 1470.5 c 128,-1,58
 849 1475 849 1475 947 1475 c 1,59,-1
 947 1577 l 2,60,61
 947 1638 947 1638 981 1638 c 2,62,-1
 1005 1638 l 2,63,64
 1039 1638 1039 1638 1039 1577 c 2,65,-1
 1039 1474 l 1,66,67
 1238 1470 1238 1470 1383 1438.5 c 128,-1,68
 1528 1407 1528 1407 1676 1341 c 1,69,70
 1695 1334 1695 1334 1706 1316 c 128,-1,71
 1717 1298 1717 1298 1717 1276 c 0,72,73
 1717 1262 1717 1262 1712 1251 c 1,74,-1
 1712 1248 l 1,75,76
 1711 1245 1711 1245 1709 1239.5 c 128,-1,77
 1707 1234 1707 1234 1704 1228 c 128,-1,78
 1701 1222 1701 1222 1695.5 1215 c 128,-1,79
 1690 1208 1690 1208 1682.5 1203 c 128,-1,80
 1675 1198 1675 1198 1663.5 1194.5 c 128,-1,81
 1652 1191 1652 1191 1639 1191 c 1,82,83
 1613 1194 1613 1194 1555.5 1212 c 128,-1,84
 1498 1230 1498 1230 1436.5 1249 c 128,-1,85
 1375 1268 1375 1268 1267 1287 c 128,-1,86
 1159 1306 1159 1306 1039 1311 c 1,87,-1
 1039 832 l 1,88,-1
 1065 832 l 2,89,90
 1460 832 1460 832 1644.5 737 c 128,-1,91
 1829 642 1829 642 1829 436 c 0,92,93
 1829 328 1829 328 1797.5 249 c 128,-1,94
 1766 170 1766 170 1706 115.5 c 128,-1,95
 1646 61 1646 61 1548.5 27.5 c 128,-1,96
 1451 -6 1451 -6 1328 -22 c 128,-1,97
 1205 -38 1205 -38 1039 -40 c 1,98,-1
 1039 -137 l 2,99,100
 1039 -197 1039 -197 1005 -197 c 2,26,-1
EndSplineSet
EndChar

StartChar: percent
Encoding: 37 37 8
Width: 2644
GlyphClass: 2
Flags: W
LayerCount: 2
Fore
SplineSet
952 -82 m 2,0,1
 931 -82 931 -82 916 -67.5 c 128,-1,2
 901 -53 901 -53 901 -33 c 0,3,4
 901 -24 901 -24 906 -12 c 2,5,-1
 1561 1466 l 2,6,7
 1574 1497 1574 1497 1604 1516.5 c 128,-1,8
 1634 1536 1634 1536 1669 1536 c 2,9,-1
 1697 1536 l 2,10,11
 1718 1536 1718 1536 1733 1521.5 c 128,-1,12
 1748 1507 1748 1507 1748 1487 c 0,13,14
 1748 1478 1748 1478 1743 1466 c 2,15,-1
 1089 -12 l 2,16,17
 1075 -44 1075 -44 1045 -63 c 128,-1,18
 1015 -82 1015 -82 981 -82 c 2,19,-1
 952 -82 l 2,0,1
576 762 m 0,20,21
 707 762 707 762 776.5 841 c 128,-1,22
 846 920 846 920 846 1060 c 0,23,24
 846 1203 846 1203 778 1280.5 c 128,-1,25
 710 1358 710 1358 576 1358 c 0,26,27
 447 1358 447 1358 376 1279.5 c 128,-1,28
 305 1201 305 1201 305 1060 c 0,29,30
 305 922 305 922 378 842 c 128,-1,31
 451 762 451 762 576 762 c 0,20,21
576 623 m 0,32,33
 468 623 468 623 381 657 c 128,-1,34
 294 691 294 691 239.5 751 c 128,-1,35
 185 811 185 811 156 889 c 128,-1,36
 127 967 127 967 127 1057 c 128,-1,37
 127 1147 127 1147 155.5 1225.5 c 128,-1,38
 184 1304 184 1304 238 1365 c 128,-1,39
 292 1426 292 1426 379 1461.5 c 128,-1,40
 466 1497 466 1497 576 1497 c 128,-1,41
 686 1497 686 1497 772.5 1461.5 c 128,-1,42
 859 1426 859 1426 913.5 1365 c 128,-1,43
 968 1304 968 1304 996 1225.5 c 128,-1,44
 1024 1147 1024 1147 1024 1057 c 0,45,46
 1024 935 1024 935 975 838.5 c 128,-1,47
 926 742 926 742 823 682.5 c 128,-1,48
 720 623 720 623 576 623 c 0,32,33
2067 141 m 0,49,50
 2197 141 2197 141 2267 220 c 128,-1,51
 2337 299 2337 299 2337 439 c 0,52,53
 2337 582 2337 582 2269 659.5 c 128,-1,54
 2201 737 2201 737 2067 737 c 0,55,56
 1938 737 1938 737 1867 658.5 c 128,-1,57
 1796 580 1796 580 1796 439 c 0,58,59
 1796 301 1796 301 1868.5 221 c 128,-1,60
 1941 141 1941 141 2067 141 c 0,49,50
2067 2 m 0,61,62
 1959 2 1959 2 1872 36 c 128,-1,63
 1785 70 1785 70 1730.5 130 c 128,-1,64
 1676 190 1676 190 1647 268 c 128,-1,65
 1618 346 1618 346 1618 436 c 128,-1,66
 1618 526 1618 526 1646.5 604.5 c 128,-1,67
 1675 683 1675 683 1729 744 c 128,-1,68
 1783 805 1783 805 1870 840.5 c 128,-1,69
 1957 876 1957 876 2067 876 c 128,-1,70
 2177 876 2177 876 2263.5 840.5 c 128,-1,71
 2350 805 2350 805 2404.5 744 c 128,-1,72
 2459 683 2459 683 2487 604.5 c 128,-1,73
 2515 526 2515 526 2515 436 c 0,74,75
 2515 314 2515 314 2466 217.5 c 128,-1,76
 2417 121 2417 121 2314 61.5 c 128,-1,77
 2211 2 2211 2 2067 2 c 0,61,62
EndSplineSet
EndChar

StartChar: ampersand
Encoding: 38 38 9
Width: 2413
GlyphClass: 2
Flags: W
LayerCount: 2
Fore
SplineSet
1941 -41 m 0,0,1
 1711 -41 1711 -41 1610 89 c 1,2,3
 1526 60 1526 60 1486 48 c 128,-1,4
 1446 36 1446 36 1345.5 10 c 128,-1,5
 1245 -16 1245 -16 1140 -28 c 128,-1,6
 1035 -40 1035 -40 921 -40 c 0,7,8
 744 -40 744 -40 610.5 -18 c 128,-1,9
 477 4 477 4 393 41 c 128,-1,10
 309 78 309 78 257 133.5 c 128,-1,11
 205 189 205 189 185 249.5 c 128,-1,12
 165 310 165 310 165 386 c 0,13,14
 165 525 165 525 248.5 626 c 128,-1,15
 332 727 332 727 476 742 c 1,16,17
 319 762 319 762 230.5 848.5 c 128,-1,18
 142 935 142 935 142 1068 c 0,19,20
 142 1146 142 1146 163.5 1206.5 c 128,-1,21
 185 1267 185 1267 237.5 1318.5 c 128,-1,22
 290 1370 290 1370 376 1403.5 c 128,-1,23
 462 1437 462 1437 595 1455.5 c 128,-1,24
 728 1474 728 1474 907 1474 c 0,25,26
 1052 1474 1052 1474 1207 1456 c 128,-1,27
 1362 1438 1362 1438 1449 1412 c 1,28,29
 1502 1398 1502 1398 1502 1355 c 0,30,31
 1502 1353 1502 1353 1496 1286 c 1,32,33
 1490 1242 1490 1242 1452 1242 c 0,34,35
 1442 1242 1442 1242 1429 1245 c 0,36,37
 1426 1246 1426 1246 1400 1252 c 128,-1,38
 1374 1258 1374 1258 1348.5 1263.5 c 128,-1,39
 1323 1269 1323 1269 1275 1276.5 c 128,-1,40
 1227 1284 1227 1284 1176 1289.5 c 128,-1,41
 1125 1295 1125 1295 1050.5 1299 c 128,-1,42
 976 1303 976 1303 896 1303 c 0,43,44
 789 1303 789 1303 706 1296 c 128,-1,45
 623 1289 623 1289 566.5 1277.5 c 128,-1,46
 510 1266 510 1266 470 1246 c 128,-1,47
 430 1226 430 1226 408 1207 c 128,-1,48
 386 1188 386 1188 373.5 1158.5 c 128,-1,49
 361 1129 361 1129 358 1104.5 c 128,-1,50
 355 1080 355 1080 355 1044 c 0,51,52
 355 1005 355 1005 366 973.5 c 128,-1,53
 377 942 377 942 406.5 912 c 128,-1,54
 436 882 436 882 484 862 c 128,-1,55
 532 842 532 842 611 830 c 128,-1,56
 690 818 690 818 795 818 c 2,57,-1
 1512 818 l 2,58,59
 1527 818 1527 818 1533 824 c 128,-1,60
 1539 830 1539 830 1539 845 c 1,61,-1
 1559 1056 l 1,62,63
 1565 1090 1565 1090 1580 1106 c 128,-1,64
 1595 1122 1595 1122 1626 1122 c 2,65,-1
 1690 1122 l 2,66,67
 1757 1122 1757 1122 1757 1056 c 2,68,-1
 1757 845 l 2,69,70
 1757 830 1757 830 1763 824 c 128,-1,71
 1769 818 1769 818 1784 818 c 2,72,-1
 2166 818 l 2,73,74
 2233 818 2233 818 2233 752 c 2,75,-1
 2233 730 l 2,76,77
 2233 663 2233 663 2166 663 c 2,78,-1
 1784 663 l 2,79,80
 1769 663 1769 663 1763 657.5 c 128,-1,81
 1757 652 1757 652 1757 637 c 2,82,-1
 1757 301 l 2,83,84
 1757 199 1757 199 1812 153 c 128,-1,85
 1867 107 1867 107 1982 107 c 0,86,87
 2074 107 2074 107 2185 144 c 0,88,89
 2206 151 2206 151 2220 151 c 0,90,91
 2225 151 2225 151 2229 150 c 128,-1,92
 2233 149 2233 149 2236 148 c 128,-1,93
 2239 147 2239 147 2241.5 143.5 c 128,-1,94
 2244 140 2244 140 2245.5 138.5 c 128,-1,95
 2247 137 2247 137 2249.5 131.5 c 128,-1,96
 2252 126 2252 126 2252.5 124 c 128,-1,97
 2253 122 2253 122 2255.5 115 c 128,-1,98
 2258 108 2258 108 2259 106 c 2,99,-1
 2269 78 l 1,100,101
 2272 66 2272 66 2272 57 c 0,102,103
 2272 38 2272 38 2259 27 c 128,-1,104
 2246 16 2246 16 2218 5 c 0,105,106
 2102 -41 2102 -41 1941 -41 c 0,0,1
929 131 m 0,107,108
 1223 131 1223 131 1546 243 c 1,109,110
 1539 281 1539 281 1539 331 c 2,111,-1
 1539 637 l 2,112,113
 1539 652 1539 652 1533 657.5 c 128,-1,114
 1527 663 1527 663 1512 663 c 2,115,-1
 785 663 l 1,116,117
 684 662 684 662 609 645.5 c 128,-1,118
 534 629 534 629 490.5 604.5 c 128,-1,119
 447 580 447 580 420.5 543.5 c 128,-1,120
 394 507 394 507 385 473 c 128,-1,121
 376 439 376 439 376 398 c 0,122,123
 376 246 376 246 504 188.5 c 128,-1,124
 632 131 632 131 929 131 c 0,107,108
EndSplineSet
EndChar

StartChar: quotesingle
Encoding: 39 39 10
Width: 501
GlyphClass: 2
Flags: W
LayerCount: 2
Fore
SplineSet
253 774 m 2,0,1
 244 774 244 774 237.5 775 c 128,-1,2
 231 776 231 776 226 780 c 128,-1,3
 221 784 221 784 218.5 786.5 c 128,-1,4
 216 789 216 789 214 797 c 128,-1,5
 212 805 212 805 211.5 808.5 c 128,-1,6
 211 812 211 812 209.5 824 c 128,-1,7
 208 836 208 836 207 841 c 2,8,-1
 141 1348 l 2,9,10
 140 1352 140 1352 140 1361 c 0,11,12
 140 1391 140 1391 159 1413.5 c 128,-1,13
 178 1436 178 1436 207 1436 c 2,14,-1
 294 1436 l 2,15,16
 323 1436 323 1436 342.5 1412 c 128,-1,17
 362 1388 362 1388 362 1357 c 0,18,19
 362 1356 362 1356 361.5 1352 c 128,-1,20
 361 1348 361 1348 361 1347 c 2,21,-1
 302 841 l 2,22,23
 302 837 302 837 301 827.5 c 128,-1,24
 300 818 300 818 299.5 815 c 128,-1,25
 299 812 299 812 297.5 804.5 c 128,-1,26
 296 797 296 797 295 795 c 128,-1,27
 294 793 294 793 291.5 788 c 128,-1,28
 289 783 289 783 286 781.5 c 128,-1,29
 283 780 283 780 278.5 777.5 c 128,-1,30
 274 775 274 775 268.5 774.5 c 128,-1,31
 263 774 263 774 256 774 c 2,32,-1
 253 774 l 2,0,1
EndSplineSet
EndChar

StartChar: parenleft
Encoding: 40 40 11
Width: 839
GlyphClass: 2
Flags: W
LayerCount: 2
Fore
SplineSet
649 -143 m 0,0,1
 512 -102 512 -102 412 -21 c 128,-1,2
 312 60 312 60 253.5 171.5 c 128,-1,3
 195 283 195 283 167.5 413.5 c 128,-1,4
 140 544 140 544 140 699 c 0,5,6
 140 852 140 852 170 985.5 c 128,-1,7
 200 1119 200 1119 260.5 1231 c 128,-1,8
 321 1343 321 1343 420 1423 c 128,-1,9
 519 1503 519 1503 649 1540 c 0,10,11
 657 1542 657 1542 662 1542 c 0,12,13
 687 1542 687 1542 706.5 1519 c 128,-1,14
 726 1496 726 1496 726 1470 c 2,15,-1
 726 1452 l 2,16,17
 726 1427 726 1427 717 1411.5 c 128,-1,18
 708 1396 708 1396 697.5 1390 c 128,-1,19
 687 1384 687 1384 661.5 1372.5 c 128,-1,20
 636 1361 636 1361 620 1352 c 0,21,22
 359 1203 359 1203 359 699 c 0,23,24
 359 548 359 548 374.5 441.5 c 128,-1,25
 390 335 390 335 425 260.5 c 128,-1,26
 460 186 460 186 505 137.5 c 128,-1,27
 550 89 550 89 620 43 c 0,28,29
 635 33 635 33 669 18.5 c 128,-1,30
 703 4 703 4 714.5 -11 c 128,-1,31
 726 -26 726 -26 726 -57 c 2,32,-1
 726 -73 l 2,33,34
 726 -99 726 -99 706.5 -122 c 128,-1,35
 687 -145 687 -145 662 -145 c 0,36,37
 657 -145 657 -145 649 -143 c 0,0,1
EndSplineSet
EndChar

StartChar: parenright
Encoding: 41 41 12
Width: 840
GlyphClass: 2
Flags: W
LayerCount: 2
Fore
SplineSet
190 -143 m 0,0,1
 187 -144 187 -144 180 -144 c 0,2,3
 154 -144 154 -144 133.5 -122 c 128,-1,4
 113 -100 113 -100 113 -73 c 2,5,-1
 113 -55 l 2,6,7
 113 -35 113 -35 117.5 -21.5 c 128,-1,8
 122 -8 122 -8 133 1 c 128,-1,9
 144 10 144 10 153.5 15.5 c 128,-1,10
 163 21 163 21 184 29.5 c 128,-1,11
 205 38 205 38 218 45 c 0,12,13
 263 68 263 68 296.5 93.5 c 128,-1,14
 330 119 330 119 366.5 168.5 c 128,-1,15
 403 218 403 218 426 284.5 c 128,-1,16
 449 351 449 351 464 456.5 c 128,-1,17
 479 562 479 562 479 698 c 128,-1,18
 479 834 479 834 464 940 c 128,-1,19
 449 1046 449 1046 426 1112.5 c 128,-1,20
 403 1179 403 1179 366.5 1229.5 c 128,-1,21
 330 1280 330 1280 296.5 1306 c 128,-1,22
 263 1332 263 1332 218 1354 c 0,23,24
 206 1360 206 1360 177 1372.5 c 128,-1,25
 148 1385 148 1385 140 1390.5 c 128,-1,26
 132 1396 132 1396 122.5 1412.5 c 128,-1,27
 113 1429 113 1429 113 1454 c 2,28,-1
 113 1470 l 2,29,30
 113 1497 113 1497 133.5 1519 c 128,-1,31
 154 1541 154 1541 180 1541 c 0,32,33
 187 1541 187 1541 190 1540 c 0,34,35
 698 1435 698 1435 698 698 c 128,-1,36
 698 -39 698 -39 190 -143 c 0,0,1
EndSplineSet
EndChar

StartChar: asterisk
Encoding: 42 42 13
Width: 1289
GlyphClass: 2
Flags: W
LayerCount: 2
Fore
SplineSet
389 292 m 0,0,1
 351 292 351 292 321.5 320 c 128,-1,2
 292 348 292 348 292 385 c 0,3,4
 292 412 292 412 331 466.5 c 128,-1,5
 370 521 370 521 413 568 c 128,-1,6
 456 615 456 615 511 671.5 c 128,-1,7
 566 728 566 728 575 738 c 1,8,-1
 194 821 l 2,9,10
 163 828 163 828 142 852.5 c 128,-1,11
 121 877 121 877 121 907 c 0,12,13
 121 946 121 946 147.5 975.5 c 128,-1,14
 174 1005 174 1005 212 1005 c 0,15,16
 232 1005 232 1005 290.5 979 c 128,-1,17
 349 953 349 953 403.5 923.5 c 128,-1,18
 458 894 458 894 524.5 857.5 c 128,-1,19
 591 821 591 821 602 815 c 1,20,21
 597 856 597 856 582 941.5 c 128,-1,22
 567 1027 567 1027 558.5 1096 c 128,-1,23
 550 1165 550 1165 550 1222 c 0,24,25
 550 1258 550 1258 578.5 1281.5 c 128,-1,26
 607 1305 607 1305 644 1305 c 128,-1,27
 681 1305 681 1305 707.5 1279.5 c 128,-1,28
 734 1254 734 1254 734 1217 c 0,29,30
 734 1161 734 1161 725.5 1092.5 c 128,-1,31
 717 1024 717 1024 703 940 c 128,-1,32
 689 856 689 856 684 815 c 1,33,34
 694 820 694 820 761.5 857.5 c 128,-1,35
 829 895 829 895 883 924 c 128,-1,36
 937 953 937 953 996 979 c 128,-1,37
 1055 1005 1055 1005 1075 1005 c 0,38,39
 1112 1005 1112 1005 1138.5 975 c 128,-1,40
 1165 945 1165 945 1165 907 c 0,41,42
 1165 877 1165 877 1144 852.5 c 128,-1,43
 1123 828 1123 828 1093 821 c 2,44,-1
 712 738 l 1,45,46
 722 727 722 727 775.5 671.5 c 128,-1,47
 829 616 829 616 873 568.5 c 128,-1,48
 917 521 917 521 955.5 466.5 c 128,-1,49
 994 412 994 412 994 385 c 0,50,51
 994 349 994 349 964.5 320.5 c 128,-1,52
 935 292 935 292 898 292 c 0,53,54
 873 292 873 292 850.5 306 c 128,-1,55
 828 320 828 320 817 342 c 2,56,-1
 644 692 l 1,57,-1
 469 342 l 2,58,59
 458 320 458 320 436 306 c 128,-1,60
 414 292 414 292 389 292 c 0,0,1
EndSplineSet
EndChar

StartChar: plus
Encoding: 43 43 14
Width: 1201
GlyphClass: 2
Flags: W
LayerCount: 2
Fore
SplineSet
562 18 m 2,0,1
 531 18 531 18 518 34.5 c 128,-1,2
 505 51 505 51 505 85 c 2,3,-1
 505 409 l 2,4,5
 505 446 505 446 479 446 c 2,6,-1
 177 446 l 2,7,8
 145 446 145 446 133 458.5 c 128,-1,9
 121 471 121 471 121 503 c 2,10,-1
 121 582 l 2,11,12
 121 614 121 614 133 626 c 128,-1,13
 145 638 145 638 177 638 c 2,14,-1
 479 638 l 2,15,16
 505 638 505 638 505 674 c 2,17,-1
 505 1010 l 2,18,19
 505 1044 505 1044 518 1060.5 c 128,-1,20
 531 1077 531 1077 562 1077 c 2,21,-1
 638 1077 l 2,22,23
 669 1077 669 1077 681.5 1060.5 c 128,-1,24
 694 1044 694 1044 694 1010 c 2,25,-1
 694 674 l 2,26,27
 694 638 694 638 721 638 c 2,28,-1
 1022 638 l 2,29,30
 1054 638 1054 638 1066.5 626 c 128,-1,31
 1079 614 1079 614 1079 582 c 2,32,-1
 1079 503 l 2,33,34
 1079 471 1079 471 1066.5 458.5 c 128,-1,35
 1054 446 1054 446 1022 446 c 2,36,-1
 721 446 l 2,37,38
 694 446 694 446 694 409 c 2,39,-1
 694 85 l 2,40,41
 694 51 694 51 681.5 34.5 c 128,-1,42
 669 18 669 18 638 18 c 2,43,-1
 562 18 l 2,0,1
EndSplineSet
EndChar

StartChar: comma
Encoding: 44 44 15
Width: 594
GlyphClass: 2
Flags: W
LayerCount: 2
Fore
SplineSet
198 -300 m 0,0,1
 193 -301 193 -301 183 -301 c 0,2,3
 160 -301 160 -301 146 -289 c 128,-1,4
 132 -277 132 -277 132 -255 c 2,5,-1
 132 -246 l 2,6,7
 132 -226 132 -226 136.5 -214.5 c 128,-1,8
 141 -203 141 -203 145 -199 c 128,-1,9
 149 -195 149 -195 166.5 -186 c 128,-1,10
 184 -177 184 -177 193 -171 c 0,11,12
 239 -142 239 -142 266.5 -96.5 c 128,-1,13
 294 -51 294 -51 294 -27 c 0,14,15
 294 0 294 0 277 0 c 2,16,-1
 192 0 l 2,17,18
 132 0 132 0 132 50 c 2,19,-1
 132 253 l 2,20,21
 132 286 132 286 146 301 c 128,-1,22
 160 316 160 316 192 316 c 2,23,-1
 389 316 l 2,24,25
 421 316 421 316 443.5 293.5 c 128,-1,26
 466 271 466 271 466 239 c 2,27,-1
 466 97 l 2,28,29
 466 -71 466 -71 387.5 -176 c 128,-1,30
 309 -281 309 -281 198 -300 c 0,0,1
EndSplineSet
EndChar

StartChar: hyphen
Encoding: 45 45 16
Width: 827
GlyphClass: 2
Flags: W
LayerCount: 2
Fore
SplineSet
179 489 m 2,0,1
 146 489 146 489 133.5 501 c 128,-1,2
 121 513 121 513 121 545 c 2,3,-1
 121 594 l 2,4,5
 121 626 121 626 133.5 638 c 128,-1,6
 146 650 146 650 179 650 c 2,7,-1
 650 650 l 2,8,9
 682 650 682 650 694 638 c 128,-1,10
 706 626 706 626 706 594 c 2,11,-1
 706 545 l 2,12,13
 706 513 706 513 694 501 c 128,-1,14
 682 489 682 489 650 489 c 2,15,-1
 179 489 l 2,0,1
EndSplineSet
EndChar

StartChar: period
Encoding: 46 46 17
Width: 543
GlyphClass: 2
Flags: W
LayerCount: 2
Fore
SplineSet
204 0 m 2,0,1
 172 0 172 0 149.5 22.5 c 128,-1,2
 127 45 127 45 127 77 c 2,3,-1
 127 220 l 2,4,5
 127 252 127 252 149.5 274.5 c 128,-1,6
 172 297 172 297 204 297 c 2,7,-1
 339 297 l 2,8,9
 371 297 371 297 393.5 274.5 c 128,-1,10
 416 252 416 252 416 220 c 2,11,-1
 416 77 l 2,12,13
 416 45 416 45 393.5 22.5 c 128,-1,14
 371 0 371 0 339 0 c 2,15,-1
 204 0 l 2,0,1
EndSplineSet
EndChar

StartChar: slash
Encoding: 47 47 18
Width: 1231
GlyphClass: 2
Flags: W
LayerCount: 2
Fore
SplineSet
95 -205 m 2,0,1
 78 -205 78 -205 78 -187 c 0,2,3
 78 -178 78 -178 82 -171 c 2,4,-1
 978 1618 l 2,5,6
 979 1620 979 1620 981 1624.5 c 128,-1,7
 983 1629 983 1629 984 1630 c 128,-1,8
 985 1631 985 1631 986.5 1634.5 c 128,-1,9
 988 1638 988 1638 989.5 1639 c 128,-1,10
 991 1640 991 1640 993 1642 c 128,-1,11
 995 1644 995 1644 997 1644.5 c 128,-1,12
 999 1645 999 1645 1002 1646 c 128,-1,13
 1005 1647 1005 1647 1009 1647.5 c 128,-1,14
 1013 1648 1013 1648 1017 1648 c 2,15,-1
 1149 1648 l 2,16,17
 1166 1648 1166 1648 1166 1629 c 0,18,19
 1166 1620 1166 1620 1163 1613 c 2,20,-1
 277 -170 l 2,21,22
 264 -195 264 -195 256 -200 c 128,-1,23
 248 -205 248 -205 227 -205 c 2,24,-1
 95 -205 l 2,0,1
EndSplineSet
EndChar

StartChar: zero
Encoding: 48 48 19
Width: 1925
GlyphClass: 2
Flags: W
LayerCount: 2
Fore
SplineSet
962 129 m 0,0,1
 1115 129 1115 129 1225 159.5 c 128,-1,2
 1335 190 1335 190 1415 259.5 c 128,-1,3
 1495 329 1495 329 1534.5 446.5 c 128,-1,4
 1574 564 1574 564 1574 732 c 0,5,6
 1574 1304 1574 1304 962 1304 c 0,7,8
 351 1304 351 1304 351 732 c 0,9,10
 351 564 351 564 390.5 446.5 c 128,-1,11
 430 329 430 329 510 260 c 128,-1,12
 590 191 590 191 700 160 c 128,-1,13
 810 129 810 129 962 129 c 0,0,1
962 -41 m 0,14,15
 821 -41 821 -41 701 -16.5 c 128,-1,16
 581 8 581 8 475 65.5 c 128,-1,17
 369 123 369 123 295 210.5 c 128,-1,18
 221 298 221 298 178.5 430.5 c 128,-1,19
 136 563 136 563 136 732 c 0,20,21
 136 887 136 887 178.5 1012.5 c 128,-1,22
 221 1138 221 1138 295.5 1223.5 c 128,-1,23
 370 1309 370 1309 474.5 1366 c 128,-1,24
 579 1423 579 1423 700.5 1449 c 128,-1,25
 822 1475 822 1475 962 1475 c 0,26,27
 1103 1475 1103 1475 1225 1449 c 128,-1,28
 1347 1423 1347 1423 1451.5 1366 c 128,-1,29
 1556 1309 1556 1309 1630.5 1223.5 c 128,-1,30
 1705 1138 1705 1138 1747 1013 c 128,-1,31
 1789 888 1789 888 1789 732 c 0,32,33
 1789 563 1789 563 1746.5 430.5 c 128,-1,34
 1704 298 1704 298 1630.5 210.5 c 128,-1,35
 1557 123 1557 123 1451.5 65.5 c 128,-1,36
 1346 8 1346 8 1225.5 -16.5 c 128,-1,37
 1105 -41 1105 -41 962 -41 c 0,14,15
EndSplineSet
EndChar

StartChar: one
Encoding: 49 49 20
Width: 842
GlyphClass: 2
Flags: W
LayerCount: 2
Fore
SplineSet
535 0 m 2,0,1
 468 0 468 0 468 67 c 2,2,-1
 468 1219 l 2,3,4
 468 1234 468 1234 457 1245 c 128,-1,5
 446 1256 446 1256 431 1256 c 1,6,-1
 156 1225 l 1,7,8
 89 1225 89 1225 89 1292 c 2,9,-1
 89 1322 l 2,10,11
 89 1382 89 1382 156 1389 c 2,12,-1
 615 1438 l 1,13,14
 682 1438 682 1438 682 1371 c 2,15,-1
 682 67 l 2,16,17
 682 0 682 0 615 0 c 2,18,-1
 535 0 l 2,0,1
EndSplineSet
EndChar

StartChar: two
Encoding: 50 50 21
Width: 1986
GlyphClass: 2
Flags: W
LayerCount: 2
Fore
SplineSet
223 0 m 2,0,1
 179 0 179 0 154.5 24 c 128,-1,2
 130 48 130 48 130 90 c 0,3,4
 130 198 130 198 162 285.5 c 128,-1,5
 194 373 194 373 240.5 433 c 128,-1,6
 287 493 287 493 369 540.5 c 128,-1,7
 451 588 451 588 521 615.5 c 128,-1,8
 591 643 591 643 701.5 666 c 128,-1,9
 812 689 812 689 884.5 699.5 c 128,-1,10
 957 710 957 710 1073 724 c 0,11,12
 1171 736 1171 736 1219.5 743 c 128,-1,13
 1268 750 1268 750 1346 764 c 128,-1,14
 1424 778 1424 778 1463 794 c 128,-1,15
 1502 810 1502 810 1545.5 834.5 c 128,-1,16
 1589 859 1589 859 1607 893 c 128,-1,17
 1625 927 1625 927 1625 970 c 0,18,19
 1625 1090 1625 1090 1567.5 1160.5 c 128,-1,20
 1510 1231 1510 1231 1358.5 1268 c 128,-1,21
 1207 1305 1207 1305 937 1305 c 0,22,23
 807 1305 807 1305 649.5 1275.5 c 128,-1,24
 492 1246 492 1246 430.5 1227 c 128,-1,25
 369 1208 369 1208 322 1192 c 0,26,27
 292 1182 292 1182 279 1182 c 0,28,29
 231 1182 231 1182 224 1212 c 1,30,31
 193 1277 193 1277 193 1283 c 0,32,33
 193 1335 193 1335 228 1352 c 1,34,35
 331 1389 331 1389 552.5 1433 c 128,-1,36
 774 1477 774 1477 932 1478 c 1,37,38
 1100 1478 1100 1478 1236.5 1462.5 c 128,-1,39
 1373 1447 1373 1447 1488.5 1411.5 c 128,-1,40
 1604 1376 1604 1376 1681.5 1320.5 c 128,-1,41
 1759 1265 1759 1265 1802.5 1182 c 128,-1,42
 1846 1099 1846 1099 1846 991 c 0,43,44
 1846 914 1846 914 1820 851 c 128,-1,45
 1794 788 1794 788 1756.5 745 c 128,-1,46
 1719 702 1719 702 1650 667.5 c 128,-1,47
 1581 633 1581 633 1523.5 613.5 c 128,-1,48
 1466 594 1466 594 1370 576.5 c 128,-1,49
 1274 559 1274 559 1212 551 c 128,-1,50
 1150 543 1150 543 1044 531 c 0,51,52
 949 521 949 521 901 515 c 128,-1,53
 853 509 853 509 771.5 495.5 c 128,-1,54
 690 482 690 482 647.5 468 c 128,-1,55
 605 454 605 454 549 430.5 c 128,-1,56
 493 407 493 407 465.5 378.5 c 128,-1,57
 438 350 438 350 418 309 c 128,-1,58
 398 268 398 268 398 218 c 0,59,60
 398 193 398 193 419.5 178 c 128,-1,61
 441 163 441 163 470 163 c 2,62,-1
 1761 163 l 2,63,64
 1805 163 1805 163 1805 99 c 2,65,-1
 1805 51 l 2,66,67
 1805 21 1805 21 1793.5 10.5 c 128,-1,68
 1782 0 1782 0 1753 0 c 2,69,-1
 223 0 l 2,0,1
EndSplineSet
EndChar

StartChar: three
Encoding: 51 51 22
Width: 1952
GlyphClass: 2
Flags: W
LayerCount: 2
Fore
SplineSet
1003 -40 m 0,0,1
 863 -40 863 -40 571.5 -2 c 128,-1,2
 280 36 280 36 191 62 c 1,3,4
 138 76 138 76 138 119 c 0,5,6
 138 127 138 127 139 132 c 2,7,-1
 143 187 l 1,8,9
 149 231 149 231 187 231 c 0,10,11
 196 231 196 231 210 228 c 0,12,13
 212 228 212 228 242 222 c 128,-1,14
 272 216 272 216 305.5 210 c 128,-1,15
 339 204 339 204 393 194.5 c 128,-1,16
 447 185 447 185 501 177 c 128,-1,17
 555 169 555 169 622.5 160 c 128,-1,18
 690 151 690 151 752.5 145 c 128,-1,19
 815 139 815 139 884 135 c 128,-1,20
 953 131 953 131 1013 131 c 0,21,22
 1157 131 1157 131 1264.5 147 c 128,-1,23
 1372 163 1372 163 1434 187.5 c 128,-1,24
 1496 212 1496 212 1533.5 248 c 128,-1,25
 1571 284 1571 284 1583 318.5 c 128,-1,26
 1595 353 1595 353 1595 396 c 0,27,28
 1595 447 1595 447 1571.5 489 c 128,-1,29
 1548 531 1548 531 1496 567 c 128,-1,30
 1444 603 1444 603 1347 623 c 128,-1,31
 1250 643 1250 643 1115 643 c 2,32,-1
 879 643 l 2,33,34
 847 643 847 643 847 686 c 2,35,-1
 847 768 l 2,36,37
 847 811 847 811 879 811 c 2,38,-1
 1115 811 l 2,39,40
 1573 811 1573 811 1573 1056 c 0,41,42
 1573 1193 1573 1193 1448 1248 c 128,-1,43
 1323 1303 1323 1303 1042 1303 c 0,44,45
 966 1303 966 1303 882.5 1298 c 128,-1,46
 799 1293 799 1293 723.5 1284.5 c 128,-1,47
 648 1276 648 1276 577.5 1266.5 c 128,-1,48
 507 1257 507 1257 444.5 1246 c 128,-1,49
 382 1235 382 1235 339 1227 c 128,-1,50
 296 1219 296 1219 261.5 1211.5 c 128,-1,51
 227 1204 227 1204 224 1204 c 0,52,53
 210 1201 210 1201 200 1201 c 0,54,55
 155 1201 155 1201 149 1245 c 1,56,-1
 139 1298 l 2,57,58
 138 1303 138 1303 138 1311 c 0,59,60
 138 1354 138 1354 191 1368 c 1,61,62
 286 1396 286 1396 577.5 1435 c 128,-1,63
 869 1474 869 1474 1036 1474 c 0,64,65
 1213 1474 1213 1474 1346 1452 c 128,-1,66
 1479 1430 1479 1430 1561.5 1393 c 128,-1,67
 1644 1356 1644 1356 1695 1300.5 c 128,-1,68
 1746 1245 1746 1245 1765.5 1184.5 c 128,-1,69
 1785 1124 1785 1124 1785 1048 c 0,70,71
 1785 912 1785 912 1703.5 825 c 128,-1,72
 1622 738 1622 738 1474 723 c 1,73,74
 1629 704 1629 704 1719 612.5 c 128,-1,75
 1809 521 1809 521 1809 386 c 0,76,77
 1809 -40 1809 -40 1003 -40 c 0,0,1
EndSplineSet
EndChar

StartChar: four
Encoding: 52 52 23
Width: 1658
GlyphClass: 2
Flags: W
LayerCount: 2
Fore
SplineSet
1067 4 m 2,0,1
 1000 4 1000 4 1000 71 c 2,2,-1
 1000 287 l 1,3,-1
 191 287 l 2,4,5
 162 287 162 287 141.5 301 c 128,-1,6
 121 315 121 315 121 338 c 0,7,8
 121 345 121 345 124 354 c 2,9,-1
 446 1371 l 2,10,11
 457 1407 457 1407 470 1422.5 c 128,-1,12
 483 1438 483 1438 513 1438 c 2,13,-1
 596 1438 l 2,14,15
 625 1438 625 1438 645.5 1424 c 128,-1,16
 666 1410 666 1410 666 1387 c 0,17,18
 666 1380 666 1380 663 1371 c 2,19,-1
 391 484 l 2,20,21
 390 481 390 481 390 474 c 0,22,23
 390 464 390 464 397.5 457.5 c 128,-1,24
 405 451 405 451 418 451 c 2,25,-1
 1000 451 l 1,26,-1
 1000 1371 l 2,27,28
 1000 1438 1000 1438 1067 1438 c 2,29,-1
 1150 1438 l 2,30,31
 1217 1438 1217 1438 1217 1371 c 2,32,-1
 1217 451 l 1,33,-1
 1473 451 l 2,34,35
 1539 451 1539 451 1539 384 c 2,36,-1
 1539 354 l 2,37,38
 1539 287 1539 287 1473 287 c 2,39,-1
 1217 287 l 1,40,-1
 1217 71 l 2,41,42
 1217 4 1217 4 1150 4 c 2,43,-1
 1067 4 l 2,0,1
EndSplineSet
EndChar

StartChar: five
Encoding: 53 53 24
Width: 2091
GlyphClass: 2
Flags: W
LayerCount: 2
Fore
SplineSet
940 -40 m 1,0,1
 778 -39 778 -39 555 -2 c 128,-1,2
 332 35 332 35 224 67 c 1,3,4
 171 81 171 81 171 124 c 0,5,6
 171 134 171 134 179 190 c 0,7,8
 185 234 185 234 223 234 c 0,9,10
 232 234 232 234 246 231 c 0,11,12
 250 230 250 230 300.5 218 c 128,-1,13
 351 206 351 206 417 193 c 128,-1,14
 483 180 483 180 568 166 c 128,-1,15
 653 152 653 152 755 142.5 c 128,-1,16
 857 133 857 133 951 133 c 0,17,18
 1264 133 1264 133 1436.5 166.5 c 128,-1,19
 1609 200 1609 200 1675 267 c 128,-1,20
 1741 334 1741 334 1741 452 c 0,21,22
 1741 559 1741 559 1674 625 c 128,-1,23
 1607 691 1607 691 1444 726 c 128,-1,24
 1281 761 1281 761 1008 761 c 0,25,26
 877 761 877 761 771 744 c 128,-1,27
 665 727 665 727 602 703.5 c 128,-1,28
 539 680 539 680 490 656 c 128,-1,29
 441 632 441 632 397.5 615 c 128,-1,30
 354 598 354 598 314 598 c 2,31,-1
 271 598 l 2,32,33
 255 598 255 598 243.5 602 c 128,-1,34
 232 606 232 606 226 610 c 128,-1,35
 220 614 220 614 216 624.5 c 128,-1,36
 212 635 212 635 211 640 c 128,-1,37
 210 645 210 645 209 660 c 128,-1,38
 208 675 208 675 208 680 c 2,39,-1
 144 1318 l 1,40,41
 144 1378 144 1378 164.5 1408 c 128,-1,42
 185 1438 185 1438 234 1438 c 2,43,-1
 1765 1438 l 2,44,45
 1792 1438 1792 1438 1805 1421.5 c 128,-1,46
 1818 1405 1818 1405 1818 1380 c 0,47,48
 1818 1373 1818 1373 1809 1317 c 1,49,50
 1803 1273 1803 1273 1765 1273 c 2,51,-1
 427 1295 l 2,52,53
 397 1295 397 1295 378.5 1277 c 128,-1,54
 360 1259 360 1259 360 1229 c 2,55,-1
 360 1223 l 1,56,-1
 378 767 l 1,57,58
 437 805 437 805 491.5 830.5 c 128,-1,59
 546 856 546 856 633 882 c 128,-1,60
 720 908 720 908 844.5 921 c 128,-1,61
 969 934 969 934 1131 934 c 0,62,63
 1323 934 1323 934 1468 910 c 128,-1,64
 1613 886 1613 886 1705.5 844 c 128,-1,65
 1798 802 1798 802 1855.5 739 c 128,-1,66
 1913 676 1913 676 1935.5 606 c 128,-1,67
 1958 536 1958 536 1958 447 c 0,68,69
 1958 332 1958 332 1909.5 246.5 c 128,-1,70
 1861 161 1861 161 1776 106.5 c 128,-1,71
 1691 52 1691 52 1560.5 19 c 128,-1,72
 1430 -14 1430 -14 1282 -27 c 128,-1,73
 1134 -40 1134 -40 943 -40 c 2,74,-1
 940 -40 l 1,0,1
EndSplineSet
EndChar

StartChar: six
Encoding: 54 54 25
Width: 1860
GlyphClass: 2
Flags: W
LayerCount: 2
Fore
SplineSet
912 -42 m 0,0,1
 775 -42 775 -42 664 -21.5 c 128,-1,2
 553 -1 553 -1 473 34.5 c 128,-1,3
 393 70 393 70 334 126 c 128,-1,4
 275 182 275 182 238 245 c 128,-1,5
 201 308 201 308 179 390.5 c 128,-1,6
 157 473 157 473 148.5 555 c 128,-1,7
 140 637 140 637 140 738 c 0,8,9
 140 905 140 905 174 1029 c 128,-1,10
 208 1153 208 1153 274 1238 c 128,-1,11
 340 1323 340 1323 444 1375 c 128,-1,12
 548 1427 548 1427 678.5 1449.5 c 128,-1,13
 809 1472 809 1472 983 1472 c 0,14,15
 1116 1472 1116 1472 1285 1443 c 128,-1,16
 1454 1414 1454 1414 1545 1377 c 0,17,18
 1573 1365 1573 1365 1573 1340 c 0,19,20
 1573 1330 1573 1330 1571 1325 c 2,21,-1
 1540 1233 l 2,22,23
 1531 1207 1531 1207 1505 1207 c 0,24,25
 1496 1207 1496 1207 1489 1210 c 0,26,27
 1422 1241 1422 1241 1253 1270 c 128,-1,28
 1084 1299 1084 1299 960 1299 c 0,29,30
 646 1299 646 1299 505 1189.5 c 128,-1,31
 364 1080 364 1080 364 870 c 2,32,-1
 364 846 l 1,33,34
 704 895 704 895 960 895 c 0,35,36
 1137 895 1137 895 1272.5 870.5 c 128,-1,37
 1408 846 1408 846 1493.5 804 c 128,-1,38
 1579 762 1579 762 1632.5 701 c 128,-1,39
 1686 640 1686 640 1707 573 c 128,-1,40
 1728 506 1728 506 1728 425 c 0,41,42
 1728 318 1728 318 1686.5 236.5 c 128,-1,43
 1645 155 1645 155 1573.5 103 c 128,-1,44
 1502 51 1502 51 1396.5 18 c 128,-1,45
 1291 -15 1291 -15 1173.5 -28.5 c 128,-1,46
 1056 -42 1056 -42 912 -42 c 0,0,1
912 131 m 0,47,48
 1015 131 1015 131 1094 136.5 c 128,-1,49
 1173 142 1173 142 1243 155 c 128,-1,50
 1313 168 1313 168 1361 190 c 128,-1,51
 1409 212 1409 212 1444 245.5 c 128,-1,52
 1479 279 1479 279 1495.5 325.5 c 128,-1,53
 1512 372 1512 372 1512 433 c 0,54,55
 1512 488 1512 488 1498 531.5 c 128,-1,56
 1484 575 1484 575 1446.5 614.5 c 128,-1,57
 1409 654 1409 654 1347.5 680 c 128,-1,58
 1286 706 1286 706 1186.5 721.5 c 128,-1,59
 1087 737 1087 737 954 737 c 0,60,61
 709 737 709 737 355 687 c 1,62,-1
 355 616 l 2,63,64
 355 131 355 131 912 131 c 0,47,48
EndSplineSet
EndChar

StartChar: seven
Encoding: 55 55 26
Width: 1055
GlyphClass: 2
Flags: W
LayerCount: 2
Fore
SplineSet
391 0 m 2,0,1
 362 0 362 0 341.5 14 c 128,-1,2
 321 28 321 28 321 51 c 0,3,4
 321 58 321 58 324 67 c 2,5,-1
 684 1241 l 2,6,7
 688 1255 688 1255 680 1264.5 c 128,-1,8
 672 1274 672 1274 657 1274 c 2,9,-1
 153 1274 l 2,10,11
 86 1274 86 1274 86 1341 c 2,12,-1
 86 1371 l 2,13,14
 86 1438 86 1438 153 1438 c 2,15,-1
 882 1438 l 2,16,17
 949 1438 949 1438 949 1371 c 1,18,-1
 539 67 l 2,19,20
 531 42 531 42 525.5 30 c 128,-1,21
 520 18 520 18 507 9 c 128,-1,22
 494 0 494 0 473 0 c 2,23,-1
 391 0 l 2,0,1
EndSplineSet
EndChar

StartChar: eight
Encoding: 56 56 27
Width: 1930
GlyphClass: 2
Flags: W
LayerCount: 2
Fore
SplineSet
966 -41 m 128,-1,1
 859 -41 859 -41 775.5 -37 c 128,-1,2
 692 -33 692 -33 602.5 -21.5 c 128,-1,3
 513 -10 513 -10 447 10 c 128,-1,4
 381 30 381 30 320 63.5 c 128,-1,5
 259 97 259 97 220.5 143 c 128,-1,6
 182 189 182 189 159.5 254.5 c 128,-1,7
 137 320 137 320 137 402 c 0,8,9
 137 512 137 512 214 607 c 128,-1,10
 291 702 291 702 392 751 c 1,11,12
 326 788 326 788 271.5 871.5 c 128,-1,13
 217 955 217 955 217 1058 c 0,14,15
 217 1473 217 1473 966 1473 c 0,16,17
 1110 1473 1110 1473 1220.5 1459.5 c 128,-1,18
 1331 1446 1331 1446 1422 1414.5 c 128,-1,19
 1513 1383 1513 1383 1572 1332.5 c 128,-1,20
 1631 1282 1631 1282 1663 1205.5 c 128,-1,21
 1695 1129 1695 1129 1695 1028 c 0,22,23
 1695 917 1695 917 1634.5 821 c 128,-1,24
 1574 725 1574 725 1492 696 c 1,25,26
 1621 669 1621 669 1708 584.5 c 128,-1,27
 1795 500 1795 500 1795 386 c 0,28,29
 1795 308 1795 308 1772.5 245.5 c 128,-1,30
 1750 183 1750 183 1712 138.5 c 128,-1,31
 1674 94 1674 94 1613.5 61.5 c 128,-1,32
 1553 29 1553 29 1486.5 9.5 c 128,-1,33
 1420 -10 1420 -10 1331 -21.5 c 128,-1,34
 1242 -33 1242 -33 1157.5 -37 c 128,-1,0
 1073 -41 1073 -41 966 -41 c 128,-1,1
966 133 m 0,35,36
 1111 133 1111 133 1206 139 c 128,-1,37
 1301 145 1301 145 1378.5 161.5 c 128,-1,38
 1456 178 1456 178 1497.5 208 c 128,-1,39
 1539 238 1539 238 1560.5 283.5 c 128,-1,40
 1582 329 1582 329 1582 397 c 0,41,42
 1582 488 1582 488 1488.5 531 c 128,-1,43
 1395 574 1395 574 1152 604 c 0,44,45
 1094 611 1094 611 884.5 641 c 128,-1,46
 675 671 675 671 546 687 c 1,47,48
 450 634 450 634 399 555.5 c 128,-1,49
 348 477 348 477 348 401 c 0,50,51
 348 352 348 352 362 313 c 128,-1,52
 376 274 376 274 401.5 246 c 128,-1,53
 427 218 427 218 468.5 198 c 128,-1,54
 510 178 510 178 558 165.5 c 128,-1,55
 606 153 606 153 673 145.5 c 128,-1,56
 740 138 740 138 808 135.5 c 128,-1,57
 876 133 876 133 966 133 c 0,35,36
1332 758 m 1,58,59
 1333 759 1333 759 1356.5 778 c 128,-1,60
 1380 797 1380 797 1386 802.5 c 128,-1,61
 1392 808 1392 808 1413 827.5 c 128,-1,62
 1434 847 1434 847 1442 858.5 c 128,-1,63
 1450 870 1450 870 1465 891.5 c 128,-1,64
 1480 913 1480 913 1486 931 c 128,-1,65
 1492 949 1492 949 1497.5 974 c 128,-1,66
 1503 999 1503 999 1503 1024 c 0,67,68
 1503 1176 1503 1176 1380 1237 c 128,-1,69
 1257 1298 1257 1298 966 1298 c 0,70,71
 678 1298 678 1298 553 1245.5 c 128,-1,72
 428 1193 428 1193 428 1058 c 0,73,74
 428 1027 428 1027 435.5 999.5 c 128,-1,75
 443 972 443 972 466 941 c 128,-1,76
 489 910 489 910 525.5 886 c 128,-1,77
 562 862 562 862 626 843.5 c 128,-1,78
 690 825 690 825 774 818 c 1,79,80
 1081 778 1081 778 1332 758 c 1,58,59
EndSplineSet
EndChar

StartChar: nine
Encoding: 57 57 28
Width: 1859
GlyphClass: 2
Flags: W
LayerCount: 2
Fore
SplineSet
877 -42 m 0,0,1
 743 -42 743 -42 574 -13 c 128,-1,2
 405 16 405 16 314 53 c 0,3,4
 287 63 287 63 287 90 c 0,5,6
 287 100 287 100 289 105 c 2,7,-1
 320 197 l 2,8,9
 329 223 329 223 355 223 c 0,10,11
 362 223 362 223 370 220 c 0,12,13
 438 189 438 189 606.5 160 c 128,-1,14
 775 131 775 131 899 131 c 0,15,16
 1059 131 1059 131 1174.5 157 c 128,-1,17
 1290 183 1290 183 1360 234.5 c 128,-1,18
 1430 286 1430 286 1462.5 356.5 c 128,-1,19
 1495 427 1495 427 1495 520 c 2,20,-1
 1495 584 l 1,21,22
 1156 535 1156 535 899 535 c 0,23,24
 722 535 722 535 586.5 559.5 c 128,-1,25
 451 584 451 584 365.5 626 c 128,-1,26
 280 668 280 668 226.5 729 c 128,-1,27
 173 790 173 790 152 856.5 c 128,-1,28
 131 923 131 923 131 1004 c 0,29,30
 131 1111 131 1111 172.5 1192.5 c 128,-1,31
 214 1274 214 1274 286 1326.5 c 128,-1,32
 358 1379 358 1379 463.5 1412 c 128,-1,33
 569 1445 569 1445 686 1458.5 c 128,-1,34
 803 1472 803 1472 947 1472 c 0,35,36
 1084 1472 1084 1472 1195 1451.5 c 128,-1,37
 1306 1431 1306 1431 1386 1395.5 c 128,-1,38
 1466 1360 1466 1360 1525 1304 c 128,-1,39
 1584 1248 1584 1248 1621 1185 c 128,-1,40
 1658 1122 1658 1122 1680 1039.5 c 128,-1,41
 1702 957 1702 957 1710.5 875 c 128,-1,42
 1719 793 1719 793 1719 692 c 0,43,44
 1719 553 1719 553 1696 443.5 c 128,-1,45
 1673 334 1673 334 1625 253 c 128,-1,46
 1577 172 1577 172 1509 115.5 c 128,-1,47
 1441 59 1441 59 1345 24 c 128,-1,48
 1249 -11 1249 -11 1135 -26.5 c 128,-1,49
 1021 -42 1021 -42 877 -42 c 0,0,1
905 693 m 0,50,51
 1149 693 1149 693 1505 743 c 1,52,-1
 1505 814 l 2,53,54
 1505 1299 1505 1299 947 1299 c 0,55,56
 844 1299 844 1299 765 1293.5 c 128,-1,57
 686 1288 686 1288 616 1275 c 128,-1,58
 546 1262 546 1262 498 1240 c 128,-1,59
 450 1218 450 1218 415 1184.5 c 128,-1,60
 380 1151 380 1151 363.5 1104.5 c 128,-1,61
 347 1058 347 1058 347 997 c 0,62,63
 347 927 347 927 371 875.5 c 128,-1,64
 395 824 395 824 454.5 781 c 128,-1,65
 514 738 514 738 627 715.5 c 128,-1,66
 740 693 740 693 905 693 c 0,50,51
EndSplineSet
EndChar

StartChar: colon
Encoding: 58 58 29
Width: 585
GlyphClass: 2
Flags: W
LayerCount: 2
Fore
SplineSet
225 0 m 2,0,1
 193 0 193 0 170.5 22.5 c 128,-1,2
 148 45 148 45 148 77 c 2,3,-1
 148 220 l 2,4,5
 148 252 148 252 170.5 274.5 c 128,-1,6
 193 297 193 297 225 297 c 2,7,-1
 360 297 l 2,8,9
 392 297 392 297 414.5 274.5 c 128,-1,10
 437 252 437 252 437 220 c 2,11,-1
 437 77 l 2,12,13
 437 45 437 45 414.5 22.5 c 128,-1,14
 392 0 392 0 360 0 c 2,15,-1
 225 0 l 2,0,1
225 756 m 2,16,17
 193 756 193 756 170.5 778.5 c 128,-1,18
 148 801 148 801 148 833 c 2,19,-1
 148 976 l 2,20,21
 148 1008 148 1008 170.5 1030.5 c 128,-1,22
 193 1053 193 1053 225 1053 c 2,23,-1
 360 1053 l 2,24,25
 392 1053 392 1053 414.5 1030.5 c 128,-1,26
 437 1008 437 1008 437 976 c 2,27,-1
 437 833 l 2,28,29
 437 801 437 801 414.5 778.5 c 128,-1,30
 392 756 392 756 360 756 c 2,31,-1
 225 756 l 2,16,17
EndSplineSet
EndChar

StartChar: semicolon
Encoding: 59 59 30
Width: 624
GlyphClass: 2
Flags: W
LayerCount: 2
Fore
SplineSet
212 -300 m 0,0,1
 207 -301 207 -301 197 -301 c 0,2,3
 174 -301 174 -301 160 -289 c 128,-1,4
 146 -277 146 -277 146 -255 c 2,5,-1
 146 -246 l 2,6,7
 146 -226 146 -226 150.5 -214.5 c 128,-1,8
 155 -203 155 -203 159 -199 c 128,-1,9
 163 -195 163 -195 180.5 -186 c 128,-1,10
 198 -177 198 -177 207 -171 c 0,11,12
 253 -142 253 -142 280.5 -96.5 c 128,-1,13
 308 -51 308 -51 308 -27 c 0,14,15
 308 0 308 0 291 0 c 2,16,-1
 206 0 l 2,17,18
 146 0 146 0 146 50 c 2,19,-1
 146 253 l 2,20,21
 146 286 146 286 160 301 c 128,-1,22
 174 316 174 316 206 316 c 2,23,-1
 402 316 l 2,24,25
 434 316 434 316 456.5 293.5 c 128,-1,26
 479 271 479 271 479 239 c 2,27,-1
 479 97 l 2,28,29
 479 -72 479 -72 401 -176.5 c 128,-1,30
 323 -281 323 -281 212 -300 c 0,0,1
246 756 m 2,31,32
 214 756 214 756 191.5 778.5 c 128,-1,33
 169 801 169 801 169 833 c 2,34,-1
 169 976 l 2,35,36
 169 1008 169 1008 191.5 1030.5 c 128,-1,37
 214 1053 214 1053 246 1053 c 2,38,-1
 381 1053 l 2,39,40
 413 1053 413 1053 435.5 1030.5 c 128,-1,41
 458 1008 458 1008 458 976 c 2,42,-1
 458 833 l 2,43,44
 458 801 458 801 435.5 778.5 c 128,-1,45
 413 756 413 756 381 756 c 2,46,-1
 246 756 l 2,31,32
EndSplineSet
EndChar

StartChar: less
Encoding: 60 60 31
Width: 1209
GlyphClass: 2
Flags: W
LayerCount: 2
Fore
SplineSet
1042 -21 m 0,0,1
 1037 -21 1037 -21 1031 -19 c 128,-1,2
 1025 -17 1025 -17 1014.5 -11.5 c 128,-1,3
 1004 -6 1004 -6 998 -3 c 2,4,-1
 188 396 l 1,5,6
 156 410 156 410 139 440 c 128,-1,7
 122 470 122 470 122 502 c 2,8,-1
 122 604 l 2,9,10
 122 662 122 662 187 700 c 1,11,-1
 998 1136 l 2,12,13
 1020 1148 1020 1148 1036 1148 c 0,14,15
 1065 1148 1065 1148 1065 1106 c 2,16,-1
 1065 1031 l 2,17,18
 1065 1001 1065 1001 1050 984 c 128,-1,19
 1035 967 1035 967 998 947 c 2,20,-1
 289 559 l 2,21,22
 280 554 280 554 280 547 c 128,-1,23
 280 540 280 540 289 535 c 2,24,-1
 998 187 l 2,25,26
 1065 154 1065 154 1065 93 c 2,27,-1
 1065 17 l 2,28,29
 1065 -21 1065 -21 1042 -21 c 0,0,1
EndSplineSet
EndChar

StartChar: equal
Encoding: 61 61 32
Width: 927
GlyphClass: 2
Flags: W
LayerCount: 2
Fore
SplineSet
193 314 m 2,0,1
 161 314 161 314 149 326.5 c 128,-1,2
 137 339 137 339 137 371 c 2,3,-1
 137 414 l 2,4,5
 137 446 137 446 149 458 c 128,-1,6
 161 470 161 470 193 470 c 2,7,-1
 733 470 l 2,8,9
 765 470 765 470 777.5 458 c 128,-1,10
 790 446 790 446 790 414 c 2,11,-1
 790 371 l 2,12,13
 790 339 790 339 777.5 326.5 c 128,-1,14
 765 314 765 314 733 314 c 2,15,-1
 193 314 l 2,0,1
193 617 m 2,16,17
 161 617 161 617 149 629 c 128,-1,18
 137 641 137 641 137 673 c 2,19,-1
 137 716 l 2,20,21
 137 748 137 748 149 760 c 128,-1,22
 161 772 161 772 193 772 c 2,23,-1
 733 772 l 2,24,25
 765 772 765 772 777.5 760 c 128,-1,26
 790 748 790 748 790 716 c 2,27,-1
 790 673 l 2,28,29
 790 641 790 641 777.5 629 c 128,-1,30
 765 617 765 617 733 617 c 2,31,-1
 193 617 l 2,16,17
EndSplineSet
EndChar

StartChar: greater
Encoding: 62 62 33
Width: 1209
GlyphClass: 2
Flags: W
LayerCount: 2
Fore
SplineSet
170 -21 m 0,0,1
 142 -21 142 -21 142 21 c 2,2,-1
 142 97 l 2,3,4
 142 127 142 127 157 143 c 128,-1,5
 172 159 172 159 209 180 c 2,6,-1
 918 568 l 2,7,8
 927 572 927 572 927 581 c 0,9,10
 927 588 927 588 918 593 c 2,11,-1
 209 940 l 2,12,13
 142 973 142 973 142 1034 c 2,14,-1
 142 1110 l 2,15,16
 142 1148 142 1148 165 1148 c 0,17,18
 170 1148 170 1148 176 1145.5 c 128,-1,19
 182 1143 182 1143 192 1138 c 128,-1,20
 202 1133 202 1133 209 1130 c 2,21,-1
 1019 731 l 1,22,23
 1050 717 1050 717 1067.5 687 c 128,-1,24
 1085 657 1085 657 1085 625 c 2,25,-1
 1085 523 l 2,26,27
 1085 465 1085 465 1019 427 c 1,28,-1
 209 -9 l 2,29,30
 185 -21 185 -21 170 -21 c 0,0,1
EndSplineSet
EndChar

StartChar: question
Encoding: 63 63 34
Width: 1742
GlyphClass: 2
Flags: W
LayerCount: 2
Fore
SplineSet
733 453 m 0,0,1
 731 450 731 450 728.5 447.5 c 128,-1,2
 726 445 726 445 716 441 c 128,-1,3
 706 437 706 437 695 446 c 1,4,5
 686 452 686 452 662.5 467.5 c 128,-1,6
 639 483 639 483 630 489 c 0,7,8
 624 493 624 493 621.5 498.5 c 128,-1,9
 619 504 619 504 619 508.5 c 128,-1,10
 619 513 619 513 619.5 516.5 c 128,-1,11
 620 520 620 520 621 522 c 2,12,-1
 622 525 l 1,13,14
 697 665 697 665 790.5 724 c 128,-1,15
 884 783 884 783 1040 796 c 0,16,17
 1162 806 1162 806 1239.5 825 c 128,-1,18
 1317 844 1317 844 1360 876 c 128,-1,19
 1403 908 1403 908 1419 947.5 c 128,-1,20
 1435 987 1435 987 1435 1048 c 0,21,22
 1435 1312 1435 1312 877 1312 c 0,23,24
 681 1312 681 1312 527.5 1285 c 128,-1,25
 374 1258 374 1258 206 1205 c 0,26,27
 188 1199 188 1199 174 1199 c 0,28,29
 140 1199 140 1199 124 1241 c 1,30,-1
 102 1292 l 2,31,32
 98 1301 98 1301 98 1311 c 0,33,34
 98 1350 98 1350 149 1368 c 0,35,36
 254 1406 254 1406 443.5 1440.5 c 128,-1,37
 633 1475 633 1475 810 1475 c 0,38,39
 961 1475 961 1475 1079 1463 c 128,-1,40
 1197 1451 1197 1451 1300 1420 c 128,-1,41
 1403 1389 1403 1389 1470 1339.5 c 128,-1,42
 1537 1290 1537 1290 1575 1212.5 c 128,-1,43
 1613 1135 1613 1135 1613 1032 c 0,44,45
 1613 982 1613 982 1600 938.5 c 128,-1,46
 1587 895 1587 895 1566.5 863 c 128,-1,47
 1546 831 1546 831 1513 804 c 128,-1,48
 1480 777 1480 777 1447.5 758.5 c 128,-1,49
 1415 740 1415 740 1370.5 724.5 c 128,-1,50
 1326 709 1326 709 1290 700 c 128,-1,51
 1254 691 1254 691 1206 683.5 c 128,-1,52
 1158 676 1158 676 1126.5 672.5 c 128,-1,53
 1095 669 1095 669 1052 664 c 128,-1,54
 1009 659 1009 659 990 657 c 0,55,56
 960 653 960 653 932 642.5 c 128,-1,57
 904 632 904 632 882 618 c 128,-1,58
 860 604 860 604 839 586.5 c 128,-1,59
 818 569 818 569 803.5 552.5 c 128,-1,60
 789 536 789 536 775.5 518 c 128,-1,61
 762 500 762 500 754.5 488 c 128,-1,62
 747 476 747 476 740 465 c 128,-1,63
 733 454 733 454 733 453 c 0,0,1
624 0 m 2,64,65
 592 0 592 0 579.5 12.5 c 128,-1,66
 567 25 567 25 567 57 c 2,67,-1
 567 182 l 2,68,69
 567 214 567 214 579.5 226 c 128,-1,70
 592 238 592 238 624 238 c 2,71,-1
 792 238 l 2,72,73
 824 238 824 238 836.5 226 c 128,-1,74
 849 214 849 214 849 182 c 2,75,-1
 849 57 l 2,76,77
 849 25 849 25 836.5 12.5 c 128,-1,78
 824 0 824 0 792 0 c 2,79,-1
 624 0 l 2,64,65
EndSplineSet
EndChar

StartChar: at
Encoding: 64 64 35
Width: 2242
GlyphClass: 2
Flags: W
LayerCount: 2
Fore
SplineSet
1472 -148 m 2,0,1
 1477 -156 1477 -156 1477 -166 c 0,2,3
 1477 -194 1477 -194 1448 -203 c 1,4,5
 1277 -265 1277 -265 1067 -265 c 0,6,7
 892 -265 892 -265 743.5 -219 c 128,-1,8
 595 -173 595 -173 490 -92.5 c 128,-1,9
 385 -12 385 -12 311 97 c 128,-1,10
 237 206 237 206 201.5 332 c 128,-1,11
 166 458 166 458 166 595 c 0,12,13
 166 776 166 776 235 933.5 c 128,-1,14
 304 1091 304 1091 428 1206.5 c 128,-1,15
 552 1322 552 1322 737 1388.5 c 128,-1,16
 922 1455 922 1455 1143 1455 c 0,17,18
 1324 1455 1324 1455 1480 1409.5 c 128,-1,19
 1636 1364 1636 1364 1750 1283.5 c 128,-1,20
 1864 1203 1864 1203 1945 1095.5 c 128,-1,21
 2026 988 2026 988 2066.5 862 c 128,-1,22
 2107 736 2107 736 2108 601 c 0,23,24
 2108 499 2108 499 2089.5 416.5 c 128,-1,25
 2071 334 2071 334 2040.5 281 c 128,-1,26
 2010 228 2010 228 1968.5 192.5 c 128,-1,27
 1927 157 1927 157 1883.5 142 c 128,-1,28
 1840 127 1840 127 1793 127 c 0,29,30
 1709 127 1709 127 1653 171.5 c 128,-1,31
 1597 216 1597 216 1577 301 c 0,32,33
 1568 339 1568 339 1560 339 c 0,34,35
 1558 339 1558 339 1555.5 337.5 c 128,-1,36
 1553 336 1553 336 1551 333 c 128,-1,37
 1549 330 1549 330 1547 327.5 c 128,-1,38
 1545 325 1545 325 1542.5 321 c 128,-1,39
 1540 317 1540 317 1539 315 c 0,40,41
 1394 92 1394 92 1116 92 c 0,42,43
 1011 92 1011 92 918 123.5 c 128,-1,44
 825 155 825 155 752.5 214 c 128,-1,45
 680 273 680 273 637.5 365.5 c 128,-1,46
 595 458 595 458 595 573 c 0,47,48
 595 717 595 717 663.5 823.5 c 128,-1,49
 732 930 732 930 846.5 983.5 c 128,-1,50
 961 1037 961 1037 1105 1037 c 0,51,52
 1254 1037 1254 1037 1367 973.5 c 128,-1,53
 1480 910 1480 910 1527 816 c 0,54,55
 1533 804 1533 804 1537 804 c 0,56,57
 1540 804 1540 804 1543 817 c 1,58,-1
 1562 942 l 2,59,60
 1569 992 1569 992 1619 992 c 2,61,-1
 1635 992 l 2,62,63
 1654 992 1654 992 1667 974 c 128,-1,64
 1680 956 1680 956 1680 931 c 2,65,-1
 1680 366 l 2,66,67
 1680 301 1680 301 1713 270.5 c 128,-1,68
 1746 240 1746 240 1796 240 c 0,69,70
 1824 240 1824 240 1844 245.5 c 128,-1,71
 1864 251 1864 251 1887.5 272.5 c 128,-1,72
 1911 294 1911 294 1925.5 331.5 c 128,-1,73
 1940 369 1940 369 1950 437.5 c 128,-1,74
 1960 506 1960 506 1960 601 c 0,75,76
 1960 749 1960 749 1907.5 876.5 c 128,-1,77
 1855 1004 1855 1004 1755.5 1102 c 128,-1,78
 1656 1200 1656 1200 1499.5 1256 c 128,-1,79
 1343 1312 1343 1312 1147 1312 c 0,80,81
 990 1312 990 1312 857.5 1274.5 c 128,-1,82
 725 1237 725 1237 629 1170.5 c 128,-1,83
 533 1104 533 1104 466 1013 c 128,-1,84
 399 922 399 922 366 813.5 c 128,-1,85
 333 705 333 705 333 585 c 0,86,87
 333 475 333 475 360 373.5 c 128,-1,88
 387 272 387 272 447 180 c 128,-1,89
 507 88 507 88 594 20.5 c 128,-1,90
 681 -47 681 -47 810 -87 c 128,-1,91
 939 -127 939 -127 1095 -127 c 0,92,93
 1264 -127 1264 -127 1397 -74 c 1,94,95
 1406 -69 1406 -69 1415 -69 c 0,96,97
 1429 -69 1429 -69 1443 -101 c 1,98,-1
 1472 -148 l 2,0,1
1115 229 m 0,99,100
 1187 229 1187 229 1249 245.5 c 128,-1,101
 1311 262 1311 262 1365 299 c 128,-1,102
 1419 336 1419 336 1450.5 403.5 c 128,-1,103
 1482 471 1482 471 1482 564 c 0,104,105
 1482 652 1482 652 1450.5 719.5 c 128,-1,106
 1419 787 1419 787 1365 825.5 c 128,-1,107
 1311 864 1311 864 1248.5 883 c 128,-1,108
 1186 902 1186 902 1117 902 c 0,109,110
 1019 902 1019 902 946.5 874 c 128,-1,111
 874 846 874 846 833 798 c 128,-1,112
 792 750 792 750 772.5 692.5 c 128,-1,113
 753 635 753 635 753 569 c 0,114,115
 753 426 753 426 849 327.5 c 128,-1,116
 945 229 945 229 1115 229 c 0,99,100
EndSplineSet
EndChar

StartChar: A
Encoding: 65 65 36
Width: 1871
GlyphClass: 2
Flags: W
LayerCount: 2
Fore
SplineSet
149 0 m 2,0,1
 104 0 104 0 104 32 c 0,2,3
 104 47 104 47 114 67 c 2,4,-1
 806 1371 l 1,5,6
 836 1433 836 1433 898 1438 c 1,7,-1
 1010 1438 l 1,8,9
 1072 1433 1072 1433 1104 1371 c 1,10,-1
 1753 67 l 2,11,12
 1764 45 1764 45 1764 31 c 0,13,14
 1764 0 1764 0 1720 0 c 2,15,-1
 1625 0 l 2,16,17
 1554 0 1554 0 1524 67 c 1,18,-1
 1397 337 l 1,19,-1
 1390 342 l 1,20,-1
 489 342 l 1,21,-1
 481 336 l 1,22,-1
 346 67 l 1,23,24
 315 0 315 0 247 0 c 2,25,-1
 149 0 l 2,0,1
555 471 m 2,26,-1
 1330 471 l 2,27,28
 1335 471 1335 471 1335 474 c 128,-1,29
 1335 477 1335 477 1333 479 c 2,30,-1
 955 1268 l 1,31,-1
 953 1270 l 2,32,33
 952 1270 952 1270 952 1269 c 128,-1,34
 952 1268 952 1268 951 1268 c 2,35,-1
 549 478 l 1,36,-1
 548 477 l 2,37,38
 548 476 548 476 548 475 c 0,39,40
 548 471 548 471 555 471 c 2,26,-1
EndSplineSet
EndChar

StartChar: B
Encoding: 66 66 37
Width: 2270
GlyphClass: 2
Flags: W
LayerCount: 2
Fore
SplineSet
237 0 m 2,0,1
 205 0 205 0 182.5 22.5 c 128,-1,2
 160 45 160 45 160 77 c 2,3,-1
 160 1359 l 2,4,5
 160 1391 160 1391 182.5 1414.5 c 128,-1,6
 205 1438 205 1438 237 1438 c 2,7,-1
 1450 1438 l 2,8,9
 1773 1438 1773 1438 1904.5 1350.5 c 128,-1,10
 2036 1263 2036 1263 2036 1040 c 0,11,12
 2036 887 2036 887 1867 788 c 0,13,14
 1857 782 1857 782 1858 771.5 c 128,-1,15
 1859 761 1859 761 1870 757 c 0,16,17
 2134 649 2134 649 2134 424 c 0,18,19
 2134 326 2134 326 2105.5 254 c 128,-1,20
 2077 182 2077 182 2021.5 133 c 128,-1,21
 1966 84 1966 84 1876.5 54.5 c 128,-1,22
 1787 25 1787 25 1673 12.5 c 128,-1,23
 1559 0 1559 0 1405 0 c 2,24,-1
 237 0 l 2,0,1
412 155 m 1,25,-1
 1480 155 l 2,26,27
 1533 155 1533 155 1577.5 158.5 c 128,-1,28
 1622 162 1622 162 1674.5 170.5 c 128,-1,29
 1727 179 1727 179 1767 197.5 c 128,-1,30
 1807 216 1807 216 1841.5 243.5 c 128,-1,31
 1876 271 1876 271 1894.5 315 c 128,-1,32
 1913 359 1913 359 1913 415 c 0,33,34
 1913 490 1913 490 1884.5 541 c 128,-1,35
 1856 592 1856 592 1801.5 618 c 128,-1,36
 1747 644 1747 644 1683.5 654.5 c 128,-1,37
 1620 665 1620 665 1534 665 c 2,38,-1
 412 665 l 2,39,40
 394 665 394 665 384.5 657 c 128,-1,41
 375 649 375 649 375 625 c 2,42,-1
 375 190 l 2,43,44
 375 174 375 174 380 166 c 128,-1,45
 385 158 385 158 391 156.5 c 128,-1,46
 397 155 397 155 409 155 c 2,47,-1
 412 155 l 1,25,-1
412 833 m 2,48,-1
 1551 833 l 1,49,50
 1618 836 1618 836 1664.5 845.5 c 128,-1,51
 1711 855 1711 855 1752 877 c 128,-1,52
 1793 899 1793 899 1813 940.5 c 128,-1,53
 1833 982 1833 982 1833 1044 c 0,54,55
 1833 1092 1833 1092 1821 1130 c 128,-1,56
 1809 1168 1809 1168 1791 1193 c 128,-1,57
 1773 1218 1773 1218 1742 1235.5 c 128,-1,58
 1711 1253 1711 1253 1684 1262 c 128,-1,59
 1657 1271 1657 1271 1614.5 1275.5 c 128,-1,60
 1572 1280 1572 1280 1544 1281 c 128,-1,61
 1516 1282 1516 1282 1471 1282 c 2,62,-1
 412 1282 l 2,63,64
 375 1282 375 1282 375 1240 c 2,65,-1
 375 897 l 2,66,67
 375 871 375 871 386 852 c 128,-1,68
 397 833 397 833 412 833 c 2,48,-1
EndSplineSet
EndChar

StartChar: C
Encoding: 67 67 38
Width: 2185
GlyphClass: 2
Flags: W
LayerCount: 2
Fore
SplineSet
1125 -41 m 0,0,1
 1022 -41 1022 -41 926.5 -31.5 c 128,-1,2
 831 -22 831 -22 730 2 c 128,-1,3
 629 26 629 26 543.5 63.5 c 128,-1,4
 458 101 458 101 381 161.5 c 128,-1,5
 304 222 304 222 250 299 c 128,-1,6
 196 376 196 376 164.5 484 c 128,-1,7
 133 592 133 592 133 721 c 0,8,9
 133 840 133 840 164.5 942.5 c 128,-1,10
 196 1045 196 1045 250 1120.5 c 128,-1,11
 304 1196 304 1196 380.5 1257 c 128,-1,12
 457 1318 457 1318 544 1358 c 128,-1,13
 631 1398 631 1398 730 1425 c 128,-1,14
 829 1452 829 1452 926.5 1463.5 c 128,-1,15
 1024 1475 1024 1475 1125 1475 c 0,16,17
 1267 1475 1267 1475 1397.5 1451.5 c 128,-1,18
 1528 1428 1528 1428 1651.5 1378.5 c 128,-1,19
 1775 1329 1775 1329 1876.5 1241 c 128,-1,20
 1978 1153 1978 1153 2042 1035 c 1,21,22
 2047 1022 2047 1022 2047 1016 c 0,23,24
 2047 1002 2047 1002 2028 998 c 1,25,26
 1894 979 1894 979 1864 974 c 1,27,-1
 1863 974 l 2,28,29
 1833 974 1833 974 1819 996 c 0,30,31
 1605 1313 1605 1313 1125 1313 c 0,32,33
 1001 1313 1001 1313 889 1292.5 c 128,-1,34
 777 1272 777 1272 677 1226 c 128,-1,35
 577 1180 577 1180 504.5 1112 c 128,-1,36
 432 1044 432 1044 389.5 944 c 128,-1,37
 347 844 347 844 347 721 c 0,38,39
 347 617 347 617 370 532 c 128,-1,40
 393 447 393 447 432.5 385.5 c 128,-1,41
 472 324 472 324 530.5 277 c 128,-1,42
 589 230 589 230 654.5 201 c 128,-1,43
 720 172 720 172 800.5 153.5 c 128,-1,44
 881 135 881 135 958.5 128 c 128,-1,45
 1036 121 1036 121 1125 121 c 0,46,47
 1242 121 1242 121 1338.5 135 c 128,-1,48
 1435 149 1435 149 1527 181 c 128,-1,49
 1619 213 1619 213 1693 273 c 128,-1,50
 1767 333 1767 333 1819 418 c 2,51,-1
 1825 428 l 2,52,53
 1831 438 1831 438 1834.5 441.5 c 128,-1,54
 1838 445 1838 445 1846.5 450 c 128,-1,55
 1855 455 1855 455 1866 455 c 1,56,-1
 2029 429 l 1,57,58
 2047 428 2047 428 2047 405 c 0,59,60
 2047 397 2047 397 2044 391 c 0,61,62
 1825 -41 1825 -41 1125 -41 c 0,0,1
EndSplineSet
EndChar

StartChar: D
Encoding: 68 68 39
Width: 2208
GlyphClass: 2
Flags: W
LayerCount: 2
Fore
SplineSet
402 155 m 2,0,-1
 1141 155 l 2,1,2
 1232 155 1232 155 1305 160.5 c 128,-1,3
 1378 166 1378 166 1454.5 181 c 128,-1,4
 1531 196 1531 196 1588.5 222 c 128,-1,5
 1646 248 1646 248 1699 291 c 128,-1,6
 1752 334 1752 334 1785.5 392.5 c 128,-1,7
 1819 451 1819 451 1838.5 534 c 128,-1,8
 1858 617 1858 617 1858 721 c 0,9,10
 1858 844 1858 844 1822 940.5 c 128,-1,11
 1786 1037 1786 1037 1723 1101 c 128,-1,12
 1660 1165 1660 1165 1568.5 1206.5 c 128,-1,13
 1477 1248 1477 1248 1371.5 1265.5 c 128,-1,14
 1266 1283 1266 1283 1140 1283 c 2,15,-1
 396 1283 l 2,16,17
 387 1283 387 1283 381 1278 c 128,-1,18
 375 1273 375 1273 375 1266 c 2,19,-1
 375 176 l 2,20,21
 375 167 375 167 383 161 c 128,-1,22
 391 155 391 155 402 155 c 2,0,-1
227 0 m 2,23,24
 160 0 160 0 160 67 c 2,25,-1
 160 1371 l 2,26,27
 160 1438 160 1438 227 1438 c 2,28,-1
 1134 1438 l 2,29,30
 1237 1438 1237 1438 1331 1428.5 c 128,-1,31
 1425 1419 1425 1419 1521 1396 c 128,-1,32
 1617 1373 1617 1373 1697 1336.5 c 128,-1,33
 1777 1300 1777 1300 1848 1243.5 c 128,-1,34
 1919 1187 1919 1187 1968 1114 c 128,-1,35
 2017 1041 2017 1041 2045.5 941 c 128,-1,36
 2074 841 2074 841 2074 721 c 0,37,38
 2074 592 2074 592 2045.5 487 c 128,-1,39
 2017 382 2017 382 1969 308 c 128,-1,40
 1921 234 1921 234 1848.5 178.5 c 128,-1,41
 1776 123 1776 123 1698 89.5 c 128,-1,42
 1620 56 1620 56 1522 35.5 c 128,-1,43
 1424 15 1424 15 1333.5 7.5 c 128,-1,44
 1243 0 1243 0 1137 0 c 2,45,-1
 227 0 l 2,23,24
EndSplineSet
EndChar

StartChar: E
Encoding: 69 69 40
Width: 1690
GlyphClass: 2
Flags: W
LayerCount: 2
Fore
SplineSet
227 0 m 2,0,1
 160 0 160 0 160 67 c 2,2,-1
 160 1361 l 2,3,4
 160 1394 160 1394 178 1416 c 128,-1,5
 196 1438 196 1438 227 1438 c 2,6,-1
 1488 1438 l 2,7,8
 1519 1438 1519 1438 1537 1416 c 128,-1,9
 1555 1394 1555 1394 1555 1361 c 2,10,-1
 1555 1360 l 2,11,12
 1555 1327 1555 1327 1537 1305 c 128,-1,13
 1519 1283 1519 1283 1488 1283 c 2,14,-1
 401 1283 l 2,15,16
 386 1283 386 1283 380 1278 c 128,-1,17
 374 1273 374 1273 374 1258 c 2,18,-1
 374 848 l 2,19,20
 374 822 374 822 388 822 c 2,21,-1
 1376 822 l 2,22,23
 1407 822 1407 822 1424.5 800.5 c 128,-1,24
 1442 779 1442 779 1442 745 c 2,25,-1
 1442 742 l 2,26,27
 1442 708 1442 708 1424.5 686.5 c 128,-1,28
 1407 665 1407 665 1376 665 c 2,29,-1
 394 665 l 2,30,31
 386 665 386 665 380 660 c 128,-1,32
 374 655 374 655 374 648 c 2,33,-1
 374 172 l 2,34,35
 374 155 374 155 388 155 c 2,36,-1
 1487 155 l 2,37,38
 1518 155 1518 155 1535.5 133.5 c 128,-1,39
 1553 112 1553 112 1553 79 c 2,40,-1
 1553 77 l 2,41,42
 1553 43 1553 43 1535.5 21.5 c 128,-1,43
 1518 0 1518 0 1487 0 c 2,44,-1
 227 0 l 2,0,1
EndSplineSet
EndChar

StartChar: F
Encoding: 70 70 41
Width: 1630
GlyphClass: 2
Flags: W
LayerCount: 2
Fore
SplineSet
227 0 m 2,0,1
 160 0 160 0 160 67 c 2,2,-1
 160 1361 l 2,3,4
 160 1394 160 1394 178 1416 c 128,-1,5
 196 1438 196 1438 227 1438 c 2,6,-1
 1455 1438 l 2,7,8
 1486 1438 1486 1438 1504 1416 c 128,-1,9
 1522 1394 1522 1394 1522 1361 c 128,-1,10
 1522 1328 1522 1328 1504 1306 c 128,-1,11
 1486 1284 1486 1284 1455 1284 c 2,12,-1
 396 1284 l 2,13,14
 382 1284 382 1284 378 1279.5 c 128,-1,15
 374 1275 374 1275 374 1259 c 2,16,-1
 374 781 l 1,17,-1
 376 780 l 2,18,19
 378 778 378 778 380 776 c 2,20,-1
 383 774 l 1,21,-1
 1330 774 l 2,22,23
 1361 774 1361 774 1379 752 c 128,-1,24
 1397 730 1397 730 1397 697 c 2,25,-1
 1397 673 l 2,26,27
 1397 640 1397 640 1379 618 c 128,-1,28
 1361 596 1361 596 1330 596 c 2,29,-1
 388 596 l 1,30,-1
 384 592 l 2,31,32
 381 588 381 588 378 584 c 2,33,-1
 374 580 l 1,34,-1
 374 67 l 2,35,36
 374 0 374 0 307 0 c 2,37,-1
 227 0 l 2,0,1
EndSplineSet
EndChar

StartChar: G
Encoding: 71 71 42
Width: 2282
GlyphClass: 2
Flags: W
LayerCount: 2
Fore
SplineSet
1130 -41 m 0,0,1
 1027 -41 1027 -41 931 -31.5 c 128,-1,2
 835 -22 835 -22 733.5 2 c 128,-1,3
 632 26 632 26 546 63.5 c 128,-1,4
 460 101 460 101 382.5 161 c 128,-1,5
 305 221 305 221 251 298.5 c 128,-1,6
 197 376 197 376 165 484 c 128,-1,7
 133 592 133 592 133 721 c 0,8,9
 133 840 133 840 164.5 942.5 c 128,-1,10
 196 1045 196 1045 250.5 1120.5 c 128,-1,11
 305 1196 305 1196 381.5 1257 c 128,-1,12
 458 1318 458 1318 545 1358 c 128,-1,13
 632 1398 632 1398 732 1425 c 128,-1,14
 832 1452 832 1452 929.5 1463.5 c 128,-1,15
 1027 1475 1027 1475 1128 1475 c 0,16,17
 1270 1475 1270 1475 1405 1451.5 c 128,-1,18
 1540 1428 1540 1428 1669.5 1378.5 c 128,-1,19
 1799 1329 1799 1329 1905.5 1240.5 c 128,-1,20
 2012 1152 2012 1152 2075 1034 c 0,21,22
 2079 1026 2079 1026 2079 1019 c 0,23,24
 2079 1002 2079 1002 2061 999 c 1,25,-1
 2062 999 l 1,26,-1
 1916 974 l 1,27,28
 1890 974 1890 974 1868 987.5 c 128,-1,29
 1846 1001 1846 1001 1838 1011.5 c 128,-1,30
 1830 1022 1830 1022 1826 1030 c 1,31,32
 1731 1168 1731 1168 1545.5 1240 c 128,-1,33
 1360 1312 1360 1312 1128 1312 c 2,34,-1
 1124 1312 l 2,35,36
 1000 1312 1000 1312 888 1291.5 c 128,-1,37
 776 1271 776 1271 676.5 1225 c 128,-1,38
 577 1179 577 1179 504.5 1111.5 c 128,-1,39
 432 1044 432 1044 389.5 944 c 128,-1,40
 347 844 347 844 347 721 c 0,41,42
 347 617 347 617 370 531.5 c 128,-1,43
 393 446 393 446 433 385 c 128,-1,44
 473 324 473 324 531.5 277 c 128,-1,45
 590 230 590 230 656 201 c 128,-1,46
 722 172 722 172 802.5 153.5 c 128,-1,47
 883 135 883 135 961 128 c 128,-1,48
 1039 121 1039 121 1128 121 c 0,49,50
 1331 121 1331 121 1513.5 178 c 128,-1,51
 1696 235 1696 235 1810.5 338 c 128,-1,52
 1925 441 1925 441 1925 564 c 0,53,54
 1925 579 1925 579 1919.5 592.5 c 128,-1,55
 1914 606 1914 606 1903 606 c 2,56,-1
 1304 606 l 2,57,58
 1271 606 1271 606 1249 625 c 128,-1,59
 1227 644 1227 644 1227 675 c 2,60,-1
 1227 691 l 2,61,62
 1227 722 1227 722 1249 741 c 128,-1,63
 1271 760 1271 760 1304 760 c 2,64,-1
 2057 760 l 2,65,66
 2089 760 2089 760 2111.5 737.5 c 128,-1,67
 2134 715 2134 715 2134 683 c 2,68,-1
 2134 77 l 2,69,70
 2134 43 2134 43 2116.5 21.5 c 128,-1,71
 2099 0 2099 0 2068 0 c 0,72,73
 2007 0 2007 0 1987 70 c 0,74,75
 1983 84 1983 84 1978 116 c 128,-1,76
 1973 148 1973 148 1968 189.5 c 128,-1,77
 1963 231 1963 231 1960 251 c 0,78,79
 1957 275 1957 275 1951 275 c 0,80,81
 1950 275 1950 275 1937 265 c 1,82,83
 1845 154 1845 154 1704.5 83 c 128,-1,84
 1564 12 1564 12 1424 -14.5 c 128,-1,85
 1284 -41 1284 -41 1130 -41 c 0,0,1
EndSplineSet
EndChar

StartChar: H
Encoding: 72 72 43
Width: 2038
GlyphClass: 2
Flags: W
LayerCount: 2
Fore
SplineSet
227 0 m 2,0,1
 160 0 160 0 160 67 c 2,2,-1
 160 1371 l 2,3,4
 160 1438 160 1438 227 1438 c 2,5,-1
 309 1438 l 2,6,7
 376 1438 376 1438 376 1371 c 2,8,-1
 376 835 l 2,9,10
 376 821 376 821 389 821 c 2,11,-1
 1645 821 l 2,12,13
 1652 821 1652 821 1657.5 826 c 128,-1,14
 1663 831 1663 831 1663 838 c 2,15,-1
 1663 1371 l 2,16,17
 1663 1438 1663 1438 1729 1438 c 2,18,-1
 1811 1438 l 2,19,20
 1878 1438 1878 1438 1878 1371 c 2,21,-1
 1878 67 l 2,22,23
 1878 0 1878 0 1811 0 c 2,24,-1
 1729 0 l 2,25,26
 1663 0 1663 0 1663 67 c 2,27,-1
 1663 648 l 2,28,29
 1663 655 1663 655 1658.5 660.5 c 128,-1,30
 1654 666 1654 666 1647 666 c 2,31,-1
 391 666 l 2,32,33
 376 666 376 666 376 650 c 2,34,-1
 376 67 l 2,35,36
 376 0 376 0 309 0 c 2,37,-1
 227 0 l 2,0,1
EndSplineSet
EndChar

StartChar: I
Encoding: 73 73 44
Width: 535
GlyphClass: 2
Flags: W
LayerCount: 2
Fore
SplineSet
227 0 m 2,0,1
 160 0 160 0 160 67 c 2,2,-1
 160 1371 l 2,3,4
 160 1438 160 1438 227 1438 c 2,5,-1
 308 1438 l 2,6,7
 375 1438 375 1438 375 1371 c 2,8,-1
 375 67 l 2,9,10
 375 0 375 0 308 0 c 2,11,-1
 227 0 l 2,0,1
EndSplineSet
EndChar

StartChar: J
Encoding: 74 74 45
Width: 1180
GlyphClass: 2
Flags: W
LayerCount: 2
Fore
SplineSet
111 -231 m 0,0,1
 99 -231 99 -231 89.5 -216.5 c 128,-1,2
 80 -202 80 -202 80 -177 c 2,3,-1
 80 -115 l 2,4,5
 80 -87 80 -87 89.5 -73.5 c 128,-1,6
 99 -60 99 -60 111 -60 c 0,7,8
 211 -60 211 -60 275.5 -57.5 c 128,-1,9
 340 -55 340 -55 421.5 -43.5 c 128,-1,10
 503 -32 503 -32 554 -11.5 c 128,-1,11
 605 9 605 9 659 47 c 128,-1,12
 713 85 713 85 743 139.5 c 128,-1,13
 773 194 773 194 792.5 275 c 128,-1,14
 812 356 812 356 812 460 c 2,15,-1
 812 1370 l 2,16,17
 812 1438 812 1438 880 1438 c 2,18,-1
 957 1438 l 2,19,20
 1024 1438 1024 1438 1024 1370 c 2,21,-1
 1024 460 l 2,22,23
 1024 331 1024 331 996.5 227 c 128,-1,24
 969 123 969 123 924 52 c 128,-1,25
 879 -19 879 -19 808.5 -71.5 c 128,-1,26
 738 -124 738 -124 664.5 -154 c 128,-1,27
 591 -184 591 -184 492.5 -202 c 128,-1,28
 394 -220 394 -220 307 -225.5 c 128,-1,29
 220 -231 220 -231 111 -231 c 0,0,1
EndSplineSet
EndChar

StartChar: K
Encoding: 75 75 46
Width: 1604
GlyphClass: 2
Flags: W
LayerCount: 2
Fore
SplineSet
227 0 m 2,0,1
 160 0 160 0 160 67 c 2,2,-1
 160 1371 l 2,3,4
 160 1438 160 1438 227 1438 c 2,5,-1
 308 1438 l 2,6,7
 375 1438 375 1438 375 1371 c 2,8,-1
 375 760 l 1,9,-1
 1101 1376 l 1,10,11
 1127 1400 1127 1400 1137.5 1409 c 128,-1,12
 1148 1418 1148 1418 1168.5 1428 c 128,-1,13
 1189 1438 1189 1438 1209 1438 c 2,14,-1
 1356 1438 l 2,15,16
 1376 1438 1376 1438 1388.5 1427.5 c 128,-1,17
 1401 1417 1401 1417 1401 1402 c 0,18,19
 1401 1384 1401 1384 1381 1365 c 1,20,-1
 648 756 l 1,21,22
 640 753 640 753 642 746 c 1,23,24
 640 741 640 741 649 735 c 1,25,-1
 1452 67 l 1,26,27
 1474 46 1474 46 1474 29 c 0,28,29
 1474 16 1474 16 1462 8 c 128,-1,30
 1450 0 1450 0 1431 0 c 2,31,-1
 1276 0 l 2,32,33
 1267 0 1267 0 1259 1.5 c 128,-1,34
 1251 3 1251 3 1241.5 7.5 c 128,-1,35
 1232 12 1232 12 1226.5 15 c 128,-1,36
 1221 18 1221 18 1210.5 26.5 c 128,-1,37
 1200 35 1200 35 1196.5 38 c 128,-1,38
 1193 41 1193 41 1180 53 c 128,-1,39
 1167 65 1167 65 1164 67 c 2,40,-1
 375 737 l 1,41,-1
 375 67 l 2,42,43
 375 0 375 0 308 0 c 2,44,-1
 227 0 l 2,0,1
EndSplineSet
EndChar

StartChar: L
Encoding: 76 76 47
Width: 1339
GlyphClass: 2
Flags: W
LayerCount: 2
Fore
SplineSet
227 0 m 2,0,1
 160 0 160 0 160 67 c 2,2,-1
 160 1371 l 2,3,4
 160 1438 160 1438 227 1438 c 2,5,-1
 307 1438 l 2,6,7
 374 1438 374 1438 374 1371 c 2,8,-1
 374 191 l 2,9,10
 374 176 374 176 385 165 c 128,-1,11
 396 154 396 154 411 154 c 2,12,-1
 1163 154 l 2,13,14
 1230 154 1230 154 1230 89 c 2,15,-1
 1230 67 l 2,16,17
 1230 0 1230 0 1163 0 c 2,18,-1
 227 0 l 2,0,1
EndSplineSet
EndChar

StartChar: M
Encoding: 77 77 48
Width: 2412
GlyphClass: 2
Flags: W
LayerCount: 2
Fore
SplineSet
208 0 m 2,0,1
 145 0 145 0 145 60 c 2,2,3
 145 67 l 2,4,-1
 261 1371 l 2,5,6
 266 1433 266 1433 324 1438 c 1,7,-1
 417 1438 l 1,8,9
 480 1433 480 1433 516 1371 c 2,10,-1
 1187 200 l 2,11,12
 1187 201 1187 201 1197.5 201 c 128,-1,13
 1208 201 1208 201 1208 200 c 2,14,-1
 1900 1371 l 2,15,16
 1936 1433 1936 1433 2000 1438 c 1,17,-1
 2092 1438 l 1,18,19
 2152 1433 2152 1433 2157 1371 c 2,20,-1
 2266 67 l 1,21,-1
 2266 59 l 2,22,23
 2266 0 2266 0 2204 0 c 2,24,-1
 2121 0 l 2,25,26
 2054 0 2054 0 2049 67 c 2,27,-1
 1962 1085 l 1,28,-1
 1949 1086 l 1,29,-1
 1347 67 l 2,30,31
 1310 3 1310 3 1246 0 c 1,32,-1
 1144 0 l 1,33,34
 1081 3 1081 3 1044 67 c 2,35,-1
 467 1073 l 1,36,37
 464 1072 l 1,38,39
 462 1070 462 1070 459 1070 c 2,40,-1
 456 1069 l 1,41,-1
 362 67 l 1,42,43
 357 0 357 0 291 0 c 2,44,-1
 208 0 l 2,0,1
EndSplineSet
EndChar

StartChar: N
Encoding: 78 78 49
Width: 2033
GlyphClass: 2
Flags: W
LayerCount: 2
Fore
SplineSet
1725 0 m 2,0,1
 1692 0 1692 0 1676 19 c 1,2,-1
 391 1130 l 1,3,-1
 377 1121 l 1,4,-1
 377 67 l 2,5,6
 377 0 377 0 310 0 c 2,7,-1
 227 0 l 2,8,9
 160 0 160 0 160 67 c 2,10,-1
 160 1371 l 2,11,12
 160 1438 160 1438 227 1438 c 2,13,-1
 303 1438 l 2,14,15
 336 1438 336 1438 351 1420 c 1,16,-1
 1643 294 l 1,17,-1
 1656 307 l 1,18,-1
 1656 1371 l 2,19,20
 1656 1438 1656 1438 1723 1438 c 2,21,-1
 1807 1438 l 2,22,23
 1873 1438 1873 1438 1873 1371 c 2,24,-1
 1873 67 l 2,25,26
 1873 0 1873 0 1807 0 c 2,27,-1
 1725 0 l 2,0,1
EndSplineSet
EndChar

StartChar: O
Encoding: 79 79 50
Width: 2174
GlyphClass: 2
Flags: W
LayerCount: 2
Fore
SplineSet
1087 121 m 0,0,1
 1214 121 1214 121 1316.5 136 c 128,-1,2
 1419 151 1419 151 1517 191.5 c 128,-1,3
 1615 232 1615 232 1681 297.5 c 128,-1,4
 1747 363 1747 363 1787 471.5 c 128,-1,5
 1827 580 1827 580 1827 724 c 0,6,7
 1827 847 1827 847 1789 946.5 c 128,-1,8
 1751 1046 1751 1046 1684 1113.5 c 128,-1,9
 1617 1181 1617 1181 1523 1226.5 c 128,-1,10
 1429 1272 1429 1272 1320.5 1292.5 c 128,-1,11
 1212 1313 1212 1313 1087 1313 c 0,12,13
 963 1313 963 1313 854.5 1292.5 c 128,-1,14
 746 1272 746 1272 652 1226.5 c 128,-1,15
 558 1181 558 1181 491 1113.5 c 128,-1,16
 424 1046 424 1046 385.5 946.5 c 128,-1,17
 347 847 347 847 347 724 c 0,18,19
 347 580 347 580 387.5 471.5 c 128,-1,20
 428 363 428 363 494 297.5 c 128,-1,21
 560 232 560 232 658.5 191.5 c 128,-1,22
 757 151 757 151 859 136 c 128,-1,23
 961 121 961 121 1087 121 c 0,0,1
1087 -41 m 0,24,25
 984 -41 984 -41 890 -31.5 c 128,-1,26
 796 -22 796 -22 699 2.5 c 128,-1,27
 602 27 602 27 520.5 65 c 128,-1,28
 439 103 439 103 366 163.5 c 128,-1,29
 293 224 293 224 242.5 302 c 128,-1,30
 192 380 192 380 163 487.5 c 128,-1,31
 134 595 134 595 134 724 c 0,32,33
 134 889 134 889 190 1020.5 c 128,-1,34
 246 1152 246 1152 337.5 1235.5 c 128,-1,35
 429 1319 429 1319 555 1374.5 c 128,-1,36
 681 1430 681 1430 812 1452.5 c 128,-1,37
 943 1475 943 1475 1087 1475 c 0,38,39
 1189 1475 1189 1475 1284.5 1463.5 c 128,-1,40
 1380 1452 1380 1452 1476.5 1425.5 c 128,-1,41
 1573 1399 1573 1399 1655 1359.5 c 128,-1,42
 1737 1320 1737 1320 1809 1259.5 c 128,-1,43
 1881 1199 1881 1199 1931.5 1123 c 128,-1,44
 1982 1047 1982 1047 2011 945 c 128,-1,45
 2040 843 2040 843 2040 724 c 0,46,47
 2040 595 2040 595 2011 487.5 c 128,-1,48
 1982 380 1982 380 1932 302 c 128,-1,49
 1882 224 1882 224 1809.5 163.5 c 128,-1,50
 1737 103 1737 103 1655.5 65 c 128,-1,51
 1574 27 1574 27 1476.5 2.5 c 128,-1,52
 1379 -22 1379 -22 1285 -31.5 c 128,-1,53
 1191 -41 1191 -41 1087 -41 c 0,24,25
EndSplineSet
EndChar

StartChar: P
Encoding: 80 80 51
Width: 2011
GlyphClass: 2
Flags: W
LayerCount: 2
Fore
SplineSet
227 0 m 2,0,1
 160 0 160 0 160 67 c 2,2,-1
 160 1371 l 2,3,4
 160 1438 160 1438 227 1438 c 2,5,-1
 905 1438 l 1,6,-1
 916 1438 l 2,7,8
 1016 1438 1016 1438 1070.5 1437.5 c 128,-1,9
 1125 1437 1125 1437 1219.5 1432.5 c 128,-1,10
 1314 1428 1314 1428 1369 1420 c 128,-1,11
 1424 1412 1424 1412 1503 1395.5 c 128,-1,12
 1582 1379 1582 1379 1628 1356 c 128,-1,13
 1674 1333 1674 1333 1728 1297 c 128,-1,14
 1782 1261 1782 1261 1810.5 1215 c 128,-1,15
 1839 1169 1839 1169 1858.5 1105.5 c 128,-1,16
 1878 1042 1878 1042 1878 965 c 0,17,18
 1878 879 1878 879 1862.5 809.5 c 128,-1,19
 1847 740 1847 740 1826 688 c 128,-1,20
 1805 636 1805 636 1758 597 c 128,-1,21
 1711 558 1711 558 1674 532 c 128,-1,22
 1637 506 1637 506 1563 488 c 128,-1,23
 1489 470 1489 470 1440 461 c 128,-1,24
 1391 452 1391 452 1293 447.5 c 128,-1,25
 1195 443 1195 443 1138 442.5 c 128,-1,26
 1081 442 1081 442 965 442 c 2,27,-1
 394 442 l 2,28,29
 386 442 386 442 380.5 436 c 128,-1,30
 375 430 375 430 375 422 c 2,31,-1
 375 67 l 2,32,33
 375 0 375 0 308 0 c 2,34,-1
 227 0 l 2,0,1
391 614 m 2,35,-1
 957 614 l 2,36,37
 1079 614 1079 614 1135 614.5 c 128,-1,38
 1191 615 1191 615 1279.5 619.5 c 128,-1,39
 1368 624 1368 624 1405 632.5 c 128,-1,40
 1442 641 1442 641 1498 657.5 c 128,-1,41
 1554 674 1554 674 1575 699.5 c 128,-1,42
 1596 725 1596 725 1621.5 762 c 128,-1,43
 1647 799 1647 799 1654.5 849 c 128,-1,44
 1662 899 1662 899 1662 965 c 0,45,46
 1662 1014 1662 1014 1650.5 1054.5 c 128,-1,47
 1639 1095 1639 1095 1620 1126 c 128,-1,48
 1601 1157 1601 1157 1567.5 1181 c 128,-1,49
 1534 1205 1534 1205 1499 1221.5 c 128,-1,50
 1464 1238 1464 1238 1410.5 1249.5 c 128,-1,51
 1357 1261 1357 1261 1308 1268 c 128,-1,52
 1259 1275 1259 1275 1187.5 1278.5 c 128,-1,53
 1116 1282 1116 1282 1055.5 1283 c 128,-1,54
 995 1284 995 1284 909 1284 c 2,55,-1
 392 1284 l 2,56,57
 385 1284 385 1284 380 1279.5 c 128,-1,58
 375 1275 375 1275 375 1268 c 2,59,-1
 375 635 l 2,60,61
 375 626 375 626 379.5 620 c 128,-1,62
 384 614 384 614 391 614 c 2,35,-1
EndSplineSet
EndChar

StartChar: Q
Encoding: 81 81 52
Width: 2174
GlyphClass: 2
Flags: W
LayerCount: 2
Fore
SplineSet
1642 -513 m 2,0,1
 1616 -526 1616 -526 1596 -526 c 0,2,3
 1563 -526 1563 -526 1545 -495 c 2,4,-1
 1288 -31 l 1,5,6
 1192 -41 1192 -41 1087 -41 c 0,7,8
 984 -41 984 -41 890 -31.5 c 128,-1,9
 796 -22 796 -22 699 2.5 c 128,-1,10
 602 27 602 27 520.5 65 c 128,-1,11
 439 103 439 103 366 163.5 c 128,-1,12
 293 224 293 224 242.5 302 c 128,-1,13
 192 380 192 380 163 487.5 c 128,-1,14
 134 595 134 595 134 724 c 0,15,16
 134 889 134 889 190 1020.5 c 128,-1,17
 246 1152 246 1152 337.5 1235.5 c 128,-1,18
 429 1319 429 1319 555 1374.5 c 128,-1,19
 681 1430 681 1430 812 1452.5 c 128,-1,20
 943 1475 943 1475 1087 1475 c 0,21,22
 1189 1475 1189 1475 1284.5 1463.5 c 128,-1,23
 1380 1452 1380 1452 1476.5 1425.5 c 128,-1,24
 1573 1399 1573 1399 1655 1359.5 c 128,-1,25
 1737 1320 1737 1320 1809 1259.5 c 128,-1,26
 1881 1199 1881 1199 1931.5 1123 c 128,-1,27
 1982 1047 1982 1047 2011 945 c 128,-1,28
 2040 843 2040 843 2040 724 c 0,29,30
 2040 597 2040 597 2011.5 490.5 c 128,-1,31
 1983 384 1983 384 1934.5 306.5 c 128,-1,32
 1886 229 1886 229 1815 168.5 c 128,-1,33
 1744 108 1744 108 1664.5 69.5 c 128,-1,34
 1585 31 1585 31 1490 6 c 1,35,-1
 1717 -402 l 2,36,37
 1726 -417 1726 -417 1726 -432 c 0,38,39
 1726 -467 1726 -467 1679 -493 c 2,40,-1
 1642 -513 l 2,0,1
1087 121 m 0,41,42
 1214 121 1214 121 1316.5 136 c 128,-1,43
 1419 151 1419 151 1517 191.5 c 128,-1,44
 1615 232 1615 232 1681 297.5 c 128,-1,45
 1747 363 1747 363 1787 471.5 c 128,-1,46
 1827 580 1827 580 1827 724 c 0,47,48
 1827 847 1827 847 1789 946.5 c 128,-1,49
 1751 1046 1751 1046 1684 1113.5 c 128,-1,50
 1617 1181 1617 1181 1523 1226.5 c 128,-1,51
 1429 1272 1429 1272 1320.5 1292.5 c 128,-1,52
 1212 1313 1212 1313 1087 1313 c 0,53,54
 963 1313 963 1313 854.5 1292.5 c 128,-1,55
 746 1272 746 1272 652 1226.5 c 128,-1,56
 558 1181 558 1181 491 1113.5 c 128,-1,57
 424 1046 424 1046 385.5 946.5 c 128,-1,58
 347 847 347 847 347 724 c 0,59,60
 347 580 347 580 387.5 471.5 c 128,-1,61
 428 363 428 363 494 297.5 c 128,-1,62
 560 232 560 232 658.5 191.5 c 128,-1,63
 757 151 757 151 859 136 c 128,-1,64
 961 121 961 121 1087 121 c 0,41,42
EndSplineSet
EndChar

StartChar: R
Encoding: 82 82 53
Width: 2129
GlyphClass: 2
Flags: W
LayerCount: 2
Fore
SplineSet
227 0 m 2,0,1
 160 0 160 0 160 67 c 2,2,-1
 160 1371 l 2,3,4
 160 1438 160 1438 227 1438 c 2,5,-1
 1010 1438 l 1,6,-1
 1017 1438 l 2,7,8
 1163 1438 1163 1438 1235.5 1437 c 128,-1,9
 1308 1436 1308 1436 1426 1428 c 128,-1,10
 1544 1420 1544 1420 1603.5 1404.5 c 128,-1,11
 1663 1389 1663 1389 1740 1358.5 c 128,-1,12
 1817 1328 1817 1328 1853.5 1283 c 128,-1,13
 1890 1238 1890 1238 1916.5 1170.5 c 128,-1,14
 1943 1103 1943 1103 1943 1014 c 0,15,16
 1943 907 1943 907 1920.5 831 c 128,-1,17
 1898 755 1898 755 1851.5 707 c 128,-1,18
 1805 659 1805 659 1746 631 c 128,-1,19
 1687 603 1687 603 1601 584 c 0,20,21
 1595 582 1595 582 1595 581 c 0,22,23
 1595 578 1595 578 1600 576 c 0,24,25
 1632 565 1632 565 1653 555.5 c 128,-1,26
 1674 546 1674 546 1713.5 521 c 128,-1,27
 1753 496 1753 496 1788 453 c 128,-1,28
 1823 410 1823 410 1850 351 c 2,29,-1
 1976 68 l 1,30,31
 1983 57 1983 57 1983 45 c 0,32,33
 1983 25 1983 25 1962.5 12.5 c 128,-1,34
 1942 0 1942 0 1915 0 c 2,35,-1
 1823 0 l 2,36,37
 1813 0 1813 0 1804 2.5 c 128,-1,38
 1795 5 1795 5 1790 8 c 128,-1,39
 1785 11 1785 11 1778.5 19.5 c 128,-1,40
 1772 28 1772 28 1769.5 32 c 128,-1,41
 1767 36 1767 36 1760 49 c 128,-1,42
 1753 62 1753 62 1750 67 c 2,43,-1
 1625 331 l 2,44,45
 1605 373 1605 373 1575.5 407 c 128,-1,46
 1546 441 1546 441 1516.5 462.5 c 128,-1,47
 1487 484 1487 484 1448 499.5 c 128,-1,48
 1409 515 1409 515 1379.5 522.5 c 128,-1,49
 1350 530 1350 530 1311.5 534 c 128,-1,50
 1273 538 1273 538 1253 538.5 c 128,-1,51
 1233 539 1233 539 1205 539 c 2,52,-1
 391 539 l 2,53,54
 375 539 375 539 375 524 c 2,55,-1
 375 67 l 2,56,57
 375 0 375 0 308 0 c 2,58,-1
 227 0 l 2,0,1
391 706 m 2,59,-1
 1172 706 l 2,60,61
 1295 706 1295 706 1361.5 708 c 128,-1,62
 1428 710 1428 710 1503 719.5 c 128,-1,63
 1578 729 1578 729 1612.5 747.5 c 128,-1,64
 1647 766 1647 766 1679.5 799.5 c 128,-1,65
 1712 833 1712 833 1722.5 882.5 c 128,-1,66
 1733 932 1733 932 1733 1005 c 0,67,68
 1733 1052 1733 1052 1721.5 1089 c 128,-1,69
 1710 1126 1710 1126 1684 1154.5 c 128,-1,70
 1658 1183 1658 1183 1625.5 1203.5 c 128,-1,71
 1593 1224 1593 1224 1543 1238.5 c 128,-1,72
 1493 1253 1493 1253 1441.5 1262 c 128,-1,73
 1390 1271 1390 1271 1317 1276 c 128,-1,74
 1244 1281 1244 1281 1174.5 1282.5 c 128,-1,75
 1105 1284 1105 1284 1012 1284 c 2,76,-1
 392 1284 l 1,77,-1
 375 1270 l 1,78,-1
 375 718 l 2,79,80
 375 706 375 706 391 706 c 2,59,-1
EndSplineSet
EndChar

StartChar: S
Encoding: 83 83 54
Width: 1963
GlyphClass: 2
Flags: W
LayerCount: 2
Fore
SplineSet
1026 834 m 2,0,1
 1052 834 l 0,2,3
 1339 834 1339 834 1509.5 791 c 128,-1,4
 1680 748 1680 748 1754 662.5 c 128,-1,5
 1828 577 1828 577 1828 436 c 0,6,7
 1828 323 1828 323 1793.5 241 c 128,-1,8
 1759 159 1759 159 1694 104.5 c 128,-1,9
 1629 50 1629 50 1521.5 18 c 128,-1,10
 1414 -14 1414 -14 1280.5 -27.5 c 128,-1,11
 1147 -41 1147 -41 964 -41 c 0,12,13
 731 -41 731 -41 561 -11.5 c 128,-1,14
 391 18 391 18 186 97 c 0,15,16
 167 104 167 104 156 122.5 c 128,-1,17
 145 141 145 141 145 163 c 1,18,-1
 155 212 l 1,19,20
 176 257 176 257 223 257 c 0,21,22
 239 257 239 257 293.5 235.5 c 128,-1,23
 348 214 348 214 421 189 c 128,-1,24
 494 164 494 164 645.5 142.5 c 128,-1,25
 797 121 797 121 984 121 c 0,26,27
 1185 121 1185 121 1315 139.5 c 128,-1,28
 1445 158 1445 158 1511.5 198 c 128,-1,29
 1578 238 1578 238 1601.5 287 c 128,-1,30
 1625 336 1625 336 1625 410 c 0,31,32
 1625 455 1625 455 1618 484.5 c 128,-1,33
 1611 514 1611 514 1589 545 c 128,-1,34
 1567 576 1567 576 1524.5 594.5 c 128,-1,35
 1482 613 1482 613 1413.5 628.5 c 128,-1,36
 1345 644 1345 644 1241 651 c 128,-1,37
 1137 658 1137 658 996 658 c 2,38,-1
 971 658 l 2,39,40
 792 658 792 658 666 668 c 128,-1,41
 540 678 540 678 436 703 c 128,-1,42
 332 728 332 728 271 772 c 128,-1,43
 210 816 210 816 177.5 883 c 128,-1,44
 145 950 145 950 145 1045 c 0,45,46
 145 1121 145 1121 167 1183 c 128,-1,47
 189 1245 189 1245 227.5 1289.5 c 128,-1,48
 266 1334 266 1334 325.5 1367 c 128,-1,49
 385 1400 385 1400 453 1420.5 c 128,-1,50
 521 1441 521 1441 610 1453.5 c 128,-1,51
 699 1466 699 1466 788.5 1470.5 c 128,-1,52
 878 1475 878 1475 988 1475 c 0,53,54
 1214 1475 1214 1475 1364.5 1443.5 c 128,-1,55
 1515 1412 1515 1412 1676 1341 c 1,56,57
 1714 1323 1714 1323 1716 1276 c 0,58,59
 1716 1260 1716 1260 1711 1250 c 0,60,61
 1711 1248 1711 1248 1710 1244 c 128,-1,62
 1709 1240 1709 1240 1704 1229.5 c 128,-1,63
 1699 1219 1699 1219 1692 1211.5 c 128,-1,64
 1685 1204 1685 1204 1670.5 1197.5 c 128,-1,65
 1656 1191 1656 1191 1638 1191 c 2,66,-1
 1637 1191 l 2,67,68
 1622 1191 1622 1191 1574.5 1210 c 128,-1,69
 1527 1229 1527 1229 1465 1251.5 c 128,-1,70
 1403 1274 1403 1274 1273.5 1293 c 128,-1,71
 1144 1312 1144 1312 984 1312 c 0,72,73
 834 1312 834 1312 721.5 1299 c 128,-1,74
 609 1286 609 1286 540 1264.5 c 128,-1,75
 471 1243 471 1243 428.5 1210.5 c 128,-1,76
 386 1178 386 1178 370 1143.5 c 128,-1,77
 354 1109 354 1109 354 1066 c 0,78,79
 354 1029 354 1029 358 1005 c 128,-1,80
 362 981 362 981 377 954 c 128,-1,81
 392 927 392 927 420 910.5 c 128,-1,82
 448 894 448 894 496.5 878 c 128,-1,83
 545 862 545 862 616.5 853.5 c 128,-1,84
 688 845 688 845 790 839.5 c 128,-1,85
 892 834 892 834 1026 834 c 2,0,1
EndSplineSet
EndChar

StartChar: T
Encoding: 84 84 55
Width: 1683
GlyphClass: 2
Flags: W
LayerCount: 2
Fore
SplineSet
800 0 m 2,0,1
 733 0 733 0 733 67 c 2,2,-1
 733 1258 l 2,3,4
 733 1273 733 1273 727 1278 c 128,-1,5
 721 1283 721 1283 706 1283 c 2,6,-1
 144 1283 l 2,7,8
 113 1283 113 1283 95 1305 c 128,-1,9
 77 1327 77 1327 77 1360 c 2,10,-1
 77 1361 l 2,11,12
 77 1394 77 1394 95 1416 c 128,-1,13
 113 1438 113 1438 144 1438 c 2,14,-1
 1535 1438 l 2,15,16
 1566 1438 1566 1438 1584 1416 c 128,-1,17
 1602 1394 1602 1394 1602 1361 c 2,18,-1
 1602 1360 l 2,19,20
 1602 1327 1602 1327 1584 1305 c 128,-1,21
 1566 1283 1566 1283 1535 1283 c 2,22,-1
 975 1283 l 2,23,24
 960 1283 960 1283 954.5 1278 c 128,-1,25
 949 1273 949 1273 949 1258 c 2,26,-1
 949 67 l 2,27,28
 949 0 949 0 882 0 c 2,29,-1
 800 0 l 2,0,1
EndSplineSet
EndChar

StartChar: U
Encoding: 85 85 56
Width: 2212
GlyphClass: 2
Flags: W
LayerCount: 2
Fore
SplineSet
1107 -41 m 0,0,1
 1024 -41 1024 -41 953.5 -38 c 128,-1,2
 883 -35 883 -35 802.5 -25 c 128,-1,3
 722 -15 722 -15 656 0.5 c 128,-1,4
 590 16 590 16 521.5 43 c 128,-1,5
 453 70 453 70 400 106.5 c 128,-1,6
 347 143 347 143 299 195.5 c 128,-1,7
 251 248 251 248 220 312.5 c 128,-1,8
 189 377 189 377 171 462.5 c 128,-1,9
 153 548 153 548 153 649 c 2,10,-1
 153 1371 l 2,11,12
 153 1402 153 1402 172 1420 c 128,-1,13
 191 1438 191 1438 221 1438 c 2,14,-1
 296 1438 l 2,15,16
 366 1438 366 1438 366 1371 c 2,17,-1
 366 649 l 2,18,19
 366 568 366 568 379 500.5 c 128,-1,20
 392 433 392 433 413.5 382.5 c 128,-1,21
 435 332 435 332 471.5 292 c 128,-1,22
 508 252 508 252 545.5 225 c 128,-1,23
 583 198 583 198 637 178.5 c 128,-1,24
 691 159 691 159 740 148 c 128,-1,25
 789 137 789 137 856 130.5 c 128,-1,26
 923 124 923 124 978 122.5 c 128,-1,27
 1033 121 1033 121 1107 121 c 0,28,29
 1205 121 1205 121 1273.5 124 c 128,-1,30
 1342 127 1342 127 1425.5 139 c 128,-1,31
 1509 151 1509 151 1565.5 172.5 c 128,-1,32
 1622 194 1622 194 1679.5 233.5 c 128,-1,33
 1737 273 1737 273 1771 328 c 128,-1,34
 1805 383 1805 383 1826.5 464 c 128,-1,35
 1848 545 1848 545 1848 649 c 2,36,-1
 1848 1371 l 2,37,38
 1848 1438 1848 1438 1915 1438 c 2,39,-1
 1994 1438 l 2,40,41
 2061 1438 2061 1438 2061 1371 c 2,42,-1
 2061 649 l 2,43,44
 2061 548 2061 548 2043 462.5 c 128,-1,45
 2025 377 2025 377 1994 312.5 c 128,-1,46
 1963 248 1963 248 1915.5 195.5 c 128,-1,47
 1868 143 1868 143 1815 106.5 c 128,-1,48
 1762 70 1762 70 1693.5 43 c 128,-1,49
 1625 16 1625 16 1559 0.5 c 128,-1,50
 1493 -15 1493 -15 1412 -25 c 128,-1,51
 1331 -35 1331 -35 1261 -38 c 128,-1,52
 1191 -41 1191 -41 1107 -41 c 0,0,1
EndSplineSet
EndChar

StartChar: V
Encoding: 86 86 57
Width: 1935
GlyphClass: 2
Flags: W
LayerCount: 2
Fore
SplineSet
949 0 m 1,0,1
 886 5 886 5 850 67 c 2,2,-1
 103 1371 l 2,3,4
 90 1394 90 1394 90 1410 c 0,5,6
 90 1438 90 1438 131 1438 c 2,7,-1
 243 1438 l 2,8,9
 312 1438 312 1438 349 1371 c 2,10,-1
 997 181 l 1,11,-1
 1591 1371 l 2,12,13
 1624 1438 1624 1438 1693 1438 c 2,14,-1
 1796 1438 l 2,15,16
 1839 1438 1839 1438 1839 1408 c 0,17,18
 1839 1395 1839 1395 1828 1371 c 1,19,-1
 1138 67 l 2,20,21
 1106 5 1106 5 1044 0 c 1,22,-1
 949 0 l 1,0,1
EndSplineSet
EndChar

StartChar: W
Encoding: 87 87 58
Width: 3291
GlyphClass: 2
Flags: W
LayerCount: 2
Fore
SplineSet
874 0 m 1,0,1
 807 5 807 5 775 67 c 2,2,-1
 106 1371 l 1,3,4
 93 1394 93 1394 93 1410 c 0,5,6
 93 1438 93 1438 134 1438 c 2,7,-1
 246 1438 l 2,8,9
 279 1438 279 1438 308 1420.5 c 128,-1,10
 337 1403 337 1403 352 1371 c 2,11,-1
 922 178 l 1,12,-1
 1489 1371 l 2,13,14
 1504 1403 1504 1403 1530.5 1420.5 c 128,-1,15
 1557 1438 1557 1438 1586 1438 c 2,16,-1
 1701 1438 l 2,17,18
 1770 1438 1770 1438 1807 1371 c 1,19,-1
 2428 178 l 1,20,-1
 2944 1371 l 2,21,22
 2958 1403 2958 1403 2985.5 1420.5 c 128,-1,23
 3013 1438 3013 1438 3046 1438 c 2,24,-1
 3150 1438 l 2,25,26
 3193 1438 3193 1438 3193 1408 c 0,27,28
 3193 1393 3193 1393 3182 1371 c 2,29,-1
 2569 67 l 2,30,31
 2540 5 2540 5 2476 0 c 1,32,-1
 2369 0 l 1,33,34
 2303 5 2303 5 2271 67 c 2,35,-1
 1648 1267 l 1,36,-1
 1075 67 l 2,37,38
 1045 5 1045 5 981 0 c 1,39,-1
 874 0 l 1,0,1
EndSplineSet
EndChar

StartChar: X
Encoding: 88 88 59
Width: 1961
GlyphClass: 2
Flags: W
LayerCount: 2
Fore
SplineSet
145 0 m 2,0,1
 111 0 111 0 111 20 c 0,2,3
 111 37 111 37 138 67 c 1,4,-1
 867 750 l 1,5,-1
 245 1371 l 2,6,7
 212 1404 212 1404 212 1420 c 0,8,9
 212 1438 212 1438 245 1438 c 2,10,-1
 373 1438 l 2,11,12
 437 1438 437 1438 506 1371 c 1,13,-1
 1002 876 l 1,14,-1
 1530 1371 l 1,15,16
 1591 1438 1591 1438 1656 1438 c 2,17,-1
 1792 1438 l 2,18,19
 1826 1438 1826 1438 1826 1418 c 0,20,21
 1826 1400 1826 1400 1798 1371 c 1,22,-1
 1130 748 l 1,23,-1
 1813 67 l 2,24,25
 1845 35 1845 35 1845 18 c 0,26,27
 1845 0 1845 0 1812 0 c 2,28,-1
 1684 0 l 2,29,30
 1618 0 1618 0 1551 67 c 2,31,-1
 995 623 l 1,32,-1
 397 67 l 1,33,34
 336 0 336 0 270 0 c 2,35,-1
 145 0 l 2,0,1
EndSplineSet
EndChar

StartChar: Y
Encoding: 89 89 60
Width: 1660
GlyphClass: 2
Flags: W
LayerCount: 2
Fore
SplineSet
788 0 m 2,0,1
 721 0 721 0 721 67 c 2,2,-1
 721 720 l 1,3,-1
 105 1371 l 1,4,5
 72 1400 72 1400 72 1421 c 0,6,7
 72 1438 72 1438 105 1438 c 2,8,-1
 236 1438 l 2,9,10
 301 1438 301 1438 370 1371 c 1,11,-1
 832 882 l 1,12,-1
 1287 1371 l 2,13,14
 1349 1438 1349 1438 1414 1438 c 2,15,-1
 1549 1438 l 2,16,17
 1583 1438 1583 1438 1583 1418 c 0,18,19
 1583 1395 1583 1395 1555 1371 c 1,20,-1
 936 724 l 1,21,-1
 936 67 l 2,22,23
 936 0 936 0 869 0 c 2,24,-1
 788 0 l 2,0,1
EndSplineSet
EndChar

StartChar: Z
Encoding: 90 90 61
Width: 1609
GlyphClass: 2
Flags: W
LayerCount: 2
Fore
SplineSet
195 0 m 2,0,1
 164 0 164 0 146.5 21.5 c 128,-1,2
 129 43 129 43 129 77 c 2,3,-1
 129 106 l 2,4,5
 129 144 129 144 149 163 c 1,6,-1
 1172 1234 l 2,7,8
 1187 1250 1187 1250 1187 1263 c 0,9,10
 1187 1284 1187 1284 1156 1284 c 2,11,-1
 205 1284 l 2,12,13
 174 1284 174 1284 156 1306 c 128,-1,14
 138 1328 138 1328 138 1361 c 128,-1,15
 138 1394 138 1394 156 1416 c 128,-1,16
 174 1438 174 1438 205 1438 c 2,17,-1
 1395 1438 l 2,18,19
 1426 1438 1426 1438 1444 1416 c 128,-1,20
 1462 1394 1462 1394 1462 1361 c 2,21,-1
 1462 1332 l 2,22,23
 1462 1302 1462 1302 1451.5 1272.5 c 128,-1,24
 1441 1243 1441 1243 1430 1230 c 2,25,-1
 443 189 l 2,26,27
 431 176 431 176 431 168 c 0,28,29
 431 154 431 154 451 154 c 2,30,-1
 1415 154 l 2,31,32
 1446 154 1446 154 1463.5 132.5 c 128,-1,33
 1481 111 1481 111 1481 77 c 128,-1,34
 1481 43 1481 43 1463.5 21.5 c 128,-1,35
 1446 0 1446 0 1415 0 c 2,36,-1
 195 0 l 2,0,1
EndSplineSet
EndChar

StartChar: bracketleft
Encoding: 91 91 62
Width: 991
GlyphClass: 2
Flags: W
LayerCount: 2
Fore
SplineSet
238 -62 m 2,0,1
 206 -62 206 -62 183.5 -39.5 c 128,-1,2
 161 -17 161 -17 161 16 c 2,3,-1
 161 1437 l 2,4,5
 161 1469 161 1469 183.5 1491.5 c 128,-1,6
 206 1514 206 1514 238 1514 c 2,7,-1
 799 1514 l 2,8,9
 833 1514 833 1514 849.5 1501 c 128,-1,10
 866 1488 866 1488 866 1457 c 2,11,-1
 866 1403 l 2,12,13
 866 1372 866 1372 849.5 1359 c 128,-1,14
 833 1346 833 1346 799 1346 c 2,15,-1
 405 1346 l 2,16,17
 390 1346 390 1346 384 1340 c 128,-1,18
 378 1334 378 1334 378 1319 c 2,19,-1
 378 123 l 2,20,21
 378 108 378 108 384 102 c 128,-1,22
 390 96 390 96 405 96 c 2,23,-1
 799 96 l 2,24,25
 833 96 833 96 849.5 83.5 c 128,-1,26
 866 71 866 71 866 40 c 2,27,-1
 866 -5 l 2,28,29
 866 -36 866 -36 849.5 -49 c 128,-1,30
 833 -62 833 -62 799 -62 c 2,31,-1
 238 -62 l 2,0,1
EndSplineSet
EndChar

StartChar: backslash
Encoding: 92 92 63
Width: 1079
GlyphClass: 2
Flags: W
LayerCount: 2
Fore
SplineSet
808 -205 m 2,0,1
 771 -205 771 -205 758 -170 c 2,2,-1
 71 1612 l 2,3,4
 69 1618 69 1618 69 1621 c 0,5,6
 69 1632 69 1632 76.5 1639.5 c 128,-1,7
 84 1647 84 1647 95 1647 c 2,8,-1
 249 1647 l 2,9,10
 286 1647 286 1647 299 1612 c 2,11,-1
 986 -170 l 2,12,13
 988 -176 988 -176 988 -179 c 0,14,15
 988 -190 988 -190 980.5 -197.5 c 128,-1,16
 973 -205 973 -205 962 -205 c 2,17,-1
 808 -205 l 2,0,1
EndSplineSet
EndChar

StartChar: bracketright
Encoding: 93 93 64
Width: 991
GlyphClass: 2
Flags: W
LayerCount: 2
Fore
SplineSet
193 -62 m 2,0,1
 159 -62 159 -62 142.5 -49 c 128,-1,2
 126 -36 126 -36 126 -5 c 2,3,-1
 126 50 l 2,4,5
 126 81 126 81 142.5 93.5 c 128,-1,6
 159 106 159 106 193 106 c 2,7,-1
 587 106 l 2,8,9
 602 106 602 106 608 112 c 128,-1,10
 614 118 614 118 614 133 c 2,11,-1
 614 1330 l 2,12,13
 614 1345 614 1345 608 1350.5 c 128,-1,14
 602 1356 602 1356 587 1356 c 2,15,-1
 193 1356 l 2,16,17
 159 1356 159 1356 142.5 1369 c 128,-1,18
 126 1382 126 1382 126 1413 c 2,19,-1
 126 1457 l 2,20,21
 126 1488 126 1488 142.5 1501 c 128,-1,22
 159 1514 159 1514 193 1514 c 2,23,-1
 754 1514 l 2,24,25
 786 1514 786 1514 808.5 1491.5 c 128,-1,26
 831 1469 831 1469 831 1437 c 2,27,-1
 831 16 l 2,28,29
 831 -17 831 -17 808.5 -39.5 c 128,-1,30
 786 -62 786 -62 754 -62 c 2,31,-1
 193 -62 l 2,0,1
EndSplineSet
EndChar

StartChar: asciicircum
Encoding: 94 94 65
Width: 1299
GlyphClass: 2
Flags: W
LayerCount: 2
Fore
SplineSet
118 201 m 2,0,1
 98 201 98 201 85 214.5 c 128,-1,2
 72 228 72 228 72 246 c 0,3,4
 72 258 72 258 78 268 c 1,5,-1
 493 1140 l 2,6,7
 525 1207 525 1207 587 1207 c 2,8,-1
 663 1207 l 2,9,10
 723 1207 723 1207 756 1139 c 2,11,-1
 1175 269 l 2,12,13
 1180 260 1180 260 1180 247 c 0,14,15
 1180 228 1180 228 1167 214.5 c 128,-1,16
 1154 201 1154 201 1134 201 c 2,17,-1
 1059 201 l 2,18,19
 1002 201 1002 201 970 270 c 1,20,-1
 642 950 l 1,21,22
 636 960 636 960 626 960 c 0,23,24
 614 960 614 960 610 950 c 2,25,-1
 300 270 l 1,26,27
 283 236 283 236 263 218.5 c 128,-1,28
 243 201 243 201 211 201 c 2,29,-1
 118 201 l 2,0,1
EndSplineSet
EndChar

StartChar: underscore
Encoding: 95 95 66
Width: 1171
GlyphClass: 2
Flags: W
LayerCount: 2
Fore
SplineSet
168 -145 m 2,0,1
 135 -145 135 -145 119.5 -132.5 c 128,-1,2
 104 -120 104 -120 104 -89 c 2,3,-1
 104 -56 l 2,4,5
 104 -25 104 -25 119.5 -12.5 c 128,-1,6
 135 0 135 0 168 0 c 2,7,-1
 1000 0 l 2,8,9
 1033 0 1033 0 1048.5 -12.5 c 128,-1,10
 1064 -25 1064 -25 1064 -56 c 2,11,-1
 1064 -89 l 2,12,13
 1064 -120 1064 -120 1048.5 -132.5 c 128,-1,14
 1033 -145 1033 -145 1000 -145 c 2,15,-1
 168 -145 l 2,0,1
EndSplineSet
EndChar

StartChar: grave
Encoding: 96 96 67
Width: 1745
GlyphClass: 2
Flags: W
LayerCount: 2
Fore
SplineSet
847 1174 m 2,0,1
 820 1174 820 1174 792 1218 c 2,2,-1
 579 1542 l 2,3,4
 561 1568 561 1568 561 1580 c 0,5,6
 561 1596 561 1596 599 1596 c 2,7,-1
 769 1595 l 2,8,9
 801 1595 801 1595 820 1577 c 1,10,11
 826 1569 826 1569 834 1539 c 1,12,-1
 888 1211 l 2,13,14
 890 1203 890 1203 890 1191 c 0,15,16
 890 1174 890 1174 877 1174 c 2,17,18
 874 1174 l 2,19,-1
 847 1174 l 2,0,1
EndSplineSet
EndChar

StartChar: a
Encoding: 97 97 68
Width: 1680
GlyphClass: 2
Flags: W
LayerCount: 2
Fore
SplineSet
719 -41 m 0,0,1
 428 -41 428 -41 283.5 32 c 128,-1,2
 139 105 139 105 139 242 c 0,3,4
 139 319 139 319 189.5 381 c 128,-1,5
 240 443 240 443 323 481.5 c 128,-1,6
 406 520 406 520 512 548.5 c 128,-1,7
 618 577 618 577 728 590.5 c 128,-1,8
 838 604 838 604 944 613 c 128,-1,9
 1050 622 1050 622 1133 624.5 c 128,-1,10
 1216 627 1216 627 1266.5 631 c 128,-1,11
 1317 635 1317 635 1317 641 c 2,12,-1
 1317 656 l 2,13,14
 1317 718 1317 718 1299 760.5 c 128,-1,15
 1281 803 1281 803 1234 836.5 c 128,-1,16
 1187 870 1187 870 1099.5 886 c 128,-1,17
 1012 902 1012 902 880 902 c 0,18,19
 832 902 832 902 778 899 c 128,-1,20
 724 896 724 896 642 887 c 128,-1,21
 560 878 560 878 492 856 c 128,-1,22
 424 834 424 834 392 801 c 1,23,24
 343 747 343 747 316 747 c 1,25,-1
 298 749 l 1,26,-1
 210 765 l 1,27,28
 197 766 197 766 187.5 777.5 c 128,-1,29
 178 789 178 789 178 802 c 0,30,31
 178 829 178 829 189 846 c 0,32,33
 260 954 260 954 419.5 1003 c 128,-1,34
 579 1052 579 1052 878 1052 c 0,35,36
 1031 1052 1031 1052 1142.5 1033 c 128,-1,37
 1254 1014 1254 1014 1330 977.5 c 128,-1,38
 1406 941 1406 941 1451.5 881 c 128,-1,39
 1497 821 1497 821 1516.5 746.5 c 128,-1,40
 1536 672 1536 672 1536 570 c 2,41,-1
 1536 94 l 2,42,43
 1536 0 1536 0 1485 0 c 2,44,-1
 1460 0 l 2,45,46
 1432 0 1432 0 1417.5 29 c 128,-1,47
 1403 58 1403 58 1394 122 c 0,48,49
 1391 140 1391 140 1388 167 c 128,-1,50
 1385 194 1385 194 1382.5 210.5 c 128,-1,51
 1380 227 1380 227 1378 235 c 0,52,53
 1371 273 1371 273 1367 273 c 0,54,55
 1365 273 1365 273 1362.5 267 c 128,-1,56
 1360 261 1360 261 1357.5 252 c 128,-1,57
 1355 243 1355 243 1354 241 c 0,58,59
 1296 115 1296 115 1136.5 37 c 128,-1,60
 977 -41 977 -41 719 -41 c 0,0,1
729 101 m 0,61,62
 850 101 850 101 953 122.5 c 128,-1,63
 1056 144 1056 144 1140 188 c 128,-1,64
 1224 232 1224 232 1272 308 c 128,-1,65
 1320 384 1320 384 1320 485 c 0,66,67
 1320 496 1320 496 1318.5 499 c 128,-1,68
 1317 502 1317 502 1309 502 c 0,69,70
 1306 502 1306 502 1213.5 497 c 128,-1,71
 1121 492 1121 492 1118 491 c 0,72,73
 823 471 823 471 658.5 440 c 128,-1,74
 494 409 494 409 430.5 365.5 c 128,-1,75
 367 322 367 322 367 254 c 0,76,77
 367 202 367 202 399.5 169.5 c 128,-1,78
 432 137 432 137 512.5 119 c 128,-1,79
 593 101 593 101 729 101 c 0,61,62
EndSplineSet
EndChar

StartChar: b
Encoding: 98 98 69
Width: 1671
GlyphClass: 2
Flags: W
LayerCount: 2
Fore
SplineSet
884 -41 m 0,0,1
 729 -41 729 -41 583 23.5 c 128,-1,2
 437 88 437 88 352 207 c 1,3,4
 347 212 347 212 345 212 c 0,5,6
 339 212 339 212 321 146 c 1,7,8
 299 73 299 73 276 36.5 c 128,-1,9
 253 0 253 0 224 0 c 2,10,-1
 213 0 l 2,11,12
 182 0 182 0 171 16 c 128,-1,13
 160 32 160 32 160 67 c 2,14,-1
 160 1372 l 2,15,16
 160 1438 160 1438 227 1438 c 2,17,-1
 312 1438 l 2,18,19
 379 1438 379 1438 379 1372 c 2,20,-1
 379 859 l 1,21,-1
 380 851 l 2,22,23
 381 851 381 851 383 853 c 128,-1,24
 385 855 385 855 386 855 c 0,25,26
 546 1053 546 1053 865 1053 c 0,27,28
 949 1053 949 1053 1028 1040.5 c 128,-1,29
 1107 1028 1107 1028 1184 1002 c 128,-1,30
 1261 976 1261 976 1325 931.5 c 128,-1,31
 1389 887 1389 887 1438 828 c 128,-1,32
 1487 769 1487 769 1514.5 686 c 128,-1,33
 1542 603 1542 603 1542 504 c 0,34,35
 1542 389 1542 389 1501.5 295 c 128,-1,36
 1461 201 1461 201 1395 140 c 128,-1,37
 1329 79 1329 79 1241.5 37 c 128,-1,38
 1154 -5 1154 -5 1064.5 -23 c 128,-1,39
 975 -41 975 -41 884 -41 c 0,0,1
852 116 m 0,40,41
 950 116 950 116 1034 140 c 128,-1,42
 1118 164 1118 164 1183 210.5 c 128,-1,43
 1248 257 1248 257 1285.5 332.5 c 128,-1,44
 1323 408 1323 408 1323 504 c 0,45,46
 1323 608 1323 608 1283.5 686 c 128,-1,47
 1244 764 1244 764 1176 808.5 c 128,-1,48
 1108 853 1108 853 1027 874.5 c 128,-1,49
 946 896 946 896 852 896 c 0,50,51
 777 896 777 896 709.5 883 c 128,-1,52
 642 870 642 870 581 839.5 c 128,-1,53
 520 809 520 809 475.5 764.5 c 128,-1,54
 431 720 431 720 405 653.5 c 128,-1,55
 379 587 379 587 379 504 c 0,56,57
 379 378 379 378 444.5 288.5 c 128,-1,58
 510 199 510 199 615 157.5 c 128,-1,59
 720 116 720 116 852 116 c 0,40,41
EndSplineSet
EndChar

StartChar: c
Encoding: 99 99 70
Width: 1538
GlyphClass: 2
Flags: W
LayerCount: 2
Fore
SplineSet
872 -41 m 0,0,1
 770 -41 770 -41 669.5 -23 c 128,-1,2
 569 -5 569 -5 470 37 c 128,-1,3
 371 79 371 79 295.5 140 c 128,-1,4
 220 201 220 201 173.5 295 c 128,-1,5
 127 389 127 389 127 504 c 0,6,7
 127 622 127 622 173.5 717.5 c 128,-1,8
 220 813 220 813 295 874 c 128,-1,9
 370 935 370 935 469.5 976.5 c 128,-1,10
 569 1018 569 1018 669 1035.5 c 128,-1,11
 769 1053 769 1053 872 1053 c 0,12,13
 1000 1053 1000 1053 1134.5 1022 c 128,-1,14
 1269 991 1269 991 1367 932 c 1,15,16
 1396 913 1396 913 1396 890 c 0,17,18
 1396 880 1396 880 1392 872 c 2,19,-1
 1366 813 l 2,20,21
 1355 788 1355 788 1337 788 c 0,22,23
 1328 788 1328 788 1292 806 c 1,24,25
 1112 904 1112 904 869 904 c 0,26,27
 794 904 794 904 721 890 c 128,-1,28
 648 876 648 876 579.5 844.5 c 128,-1,29
 511 813 511 813 459.5 767.5 c 128,-1,30
 408 722 408 722 377 654 c 128,-1,31
 346 586 346 586 346 504 c 0,32,33
 346 410 346 410 390 333 c 128,-1,34
 434 256 434 256 508.5 207 c 128,-1,35
 583 158 583 158 679 132 c 128,-1,36
 775 106 775 106 882 106 c 0,37,38
 1068 106 1068 106 1270 201 c 0,39,40
 1292 212 1292 212 1310 212 c 0,41,42
 1333 212 1333 212 1340 192 c 0,43,44
 1340 191 1340 191 1348 174 c 128,-1,45
 1356 157 1356 157 1362.5 137.5 c 128,-1,46
 1369 118 1369 118 1369 106 c 0,47,48
 1369 83 1369 83 1331 63 c 0,49,50
 1240 15 1240 15 1110.5 -13 c 128,-1,51
 981 -41 981 -41 872 -41 c 0,0,1
EndSplineSet
EndChar

StartChar: d
Encoding: 100 100 71
Width: 1671
GlyphClass: 2
Flags: W
LayerCount: 2
Fore
SplineSet
787 -41 m 0,0,1
 696 -41 696 -41 606.5 -23 c 128,-1,2
 517 -5 517 -5 429.5 37 c 128,-1,3
 342 79 342 79 276 140 c 128,-1,4
 210 201 210 201 169.5 295 c 128,-1,5
 129 389 129 389 129 504 c 0,6,7
 129 603 129 603 156.5 686 c 128,-1,8
 184 769 184 769 233 828 c 128,-1,9
 282 887 282 887 346 931.5 c 128,-1,10
 410 976 410 976 487 1002 c 128,-1,11
 564 1028 564 1028 643 1040.5 c 128,-1,12
 722 1053 722 1053 806 1053 c 0,13,14
 958 1053 958 1053 1080 1004 c 128,-1,15
 1202 955 1202 955 1281 858 c 1,16,17
 1289 850 1289 850 1292 845 c 1,18,-1
 1292 1372 l 2,19,20
 1292 1438 1292 1438 1359 1438 c 2,21,-1
 1444 1438 l 2,22,23
 1511 1438 1511 1438 1511 1372 c 2,24,-1
 1511 67 l 2,25,26
 1511 32 1511 32 1500 16 c 128,-1,27
 1489 0 1489 0 1458 0 c 2,28,-1
 1445 0 l 2,29,30
 1414 0 1414 0 1379 71 c 0,31,32
 1369 93 1369 93 1360 117 c 128,-1,33
 1351 141 1351 141 1341 174.5 c 128,-1,34
 1331 208 1331 208 1327 220 c 1,35,36
 1245 97 1245 97 1096 28 c 128,-1,37
 947 -41 947 -41 787 -41 c 0,0,1
818 116 m 0,38,39
 917 116 917 116 1002 140.5 c 128,-1,40
 1087 165 1087 165 1152.5 212 c 128,-1,41
 1218 259 1218 259 1255 334 c 128,-1,42
 1292 409 1292 409 1292 504 c 0,43,44
 1292 607 1292 607 1253 685 c 128,-1,45
 1214 763 1214 763 1146 808 c 128,-1,46
 1078 853 1078 853 995.5 874.5 c 128,-1,47
 913 896 913 896 818 896 c 0,48,49
 724 896 724 896 643 874.5 c 128,-1,50
 562 853 562 853 494 808.5 c 128,-1,51
 426 764 426 764 387 686 c 128,-1,52
 348 608 348 608 348 504 c 0,53,54
 348 408 348 408 385.5 332.5 c 128,-1,55
 423 257 423 257 488 210.5 c 128,-1,56
 553 164 553 164 637 140 c 128,-1,57
 721 116 721 116 818 116 c 0,38,39
EndSplineSet
EndChar

StartChar: e
Encoding: 101 101 72
Width: 1599
GlyphClass: 2
Flags: W
LayerCount: 2
Fore
SplineSet
847 -42 m 0,0,1
 736 -42 736 -42 637 -26 c 128,-1,2
 538 -10 538 -10 443 29.5 c 128,-1,3
 348 69 348 69 280.5 130 c 128,-1,4
 213 191 213 191 171.5 286.5 c 128,-1,5
 130 382 130 382 130 504 c 0,6,7
 130 622 130 622 172.5 717 c 128,-1,8
 215 812 215 812 284 873.5 c 128,-1,9
 353 935 353 935 446 976 c 128,-1,10
 539 1017 539 1017 635.5 1034.5 c 128,-1,11
 732 1052 732 1052 835 1052 c 0,12,13
 959 1052 959 1052 1061 1025 c 128,-1,14
 1163 998 1163 998 1229.5 955.5 c 128,-1,15
 1296 913 1296 913 1346 853 c 128,-1,16
 1396 793 1396 793 1422.5 734.5 c 128,-1,17
 1449 676 1449 676 1465 609 c 1,18,-1
 1465 558 l 2,19,20
 1465 542 1465 542 1459 526 c 128,-1,21
 1453 510 1453 510 1439.5 491.5 c 128,-1,22
 1426 473 1426 473 1398 461.5 c 128,-1,23
 1370 450 1370 450 1331 450 c 2,24,-1
 372 450 l 2,25,26
 355 450 355 450 355 441 c 0,27,28
 355 406 355 406 363.5 372.5 c 128,-1,29
 372 339 372 339 391.5 299.5 c 128,-1,30
 411 260 411 260 449 227 c 128,-1,31
 487 194 487 194 540.5 166 c 128,-1,32
 594 138 594 138 676 122.5 c 128,-1,33
 758 107 758 107 860 107 c 0,34,35
 952 107 952 107 1030 116.5 c 128,-1,36
 1108 126 1108 126 1167 143.5 c 128,-1,37
 1226 161 1226 161 1254 172 c 128,-1,38
 1282 183 1282 183 1320 201 c 0,39,40
 1343 212 1343 212 1361 212 c 0,41,42
 1383 212 1383 212 1390 194 c 0,43,44
 1415 131 1415 131 1415 111 c 0,45,46
 1415 87 1415 87 1379 70 c 0,47,48
 1283 23 1283 23 1132.5 -9.5 c 128,-1,49
 982 -42 982 -42 847 -42 c 0,0,1
367 589 m 2,50,-1
 1283 589 l 1,51,-1
 1281 591 l 1,52,53
 1268 629 1268 629 1257.5 653.5 c 128,-1,54
 1247 678 1247 678 1227.5 714 c 128,-1,55
 1208 750 1208 750 1186.5 773.5 c 128,-1,56
 1165 797 1165 797 1131 823.5 c 128,-1,57
 1097 850 1097 850 1056 865.5 c 128,-1,58
 1015 881 1015 881 958 891.5 c 128,-1,59
 901 902 901 902 833 902 c 0,60,61
 750 902 750 902 673.5 884 c 128,-1,62
 597 866 597 866 530 830.5 c 128,-1,63
 463 795 463 795 417.5 734.5 c 128,-1,64
 372 674 372 674 359 596 c 1,65,66
 359 589 359 589 367 589 c 2,50,-1
EndSplineSet
EndChar

StartChar: f
Encoding: 102 102 73
Width: 1219
GlyphClass: 2
Flags: W
LayerCount: 2
Fore
SplineSet
438 0 m 2,0,1
 406 0 406 0 383.5 22.5 c 128,-1,2
 361 45 361 45 361 77 c 2,3,-1
 361 823 l 2,4,5
 361 836 361 836 360.5 842 c 128,-1,6
 360 848 360 848 355 854 c 128,-1,7
 350 860 350 860 341 860 c 2,8,-1
 189 860 l 2,9,10
 154 860 154 860 138 871 c 128,-1,11
 122 882 122 882 122 912 c 2,12,-1
 122 945 l 2,13,14
 122 1006 122 1006 189 1006 c 2,15,-1
 339 1006 l 2,16,17
 354 1006 354 1006 358 1014 c 128,-1,18
 362 1022 362 1022 362 1041 c 0,19,20
 362 1140 362 1140 386 1216.5 c 128,-1,21
 410 1293 410 1293 449.5 1341 c 128,-1,22
 489 1389 489 1389 545 1420 c 128,-1,23
 601 1451 601 1451 660 1463 c 128,-1,24
 719 1475 719 1475 786 1475 c 0,25,26
 841 1475 841 1475 890 1469.5 c 128,-1,27
 939 1464 939 1464 965 1458 c 128,-1,28
 991 1452 991 1452 1013.5 1445 c 128,-1,29
 1036 1438 1036 1438 1037 1438 c 0,30,31
 1087 1426 1087 1426 1087 1388 c 2,32,-1
 1087 1337 l 2,33,34
 1087 1309 1087 1309 1079.5 1301 c 128,-1,35
 1072 1293 1072 1293 1046 1293 c 1,36,-1
 1008 1302 l 1,37,38
 969 1310 969 1310 918.5 1318.5 c 128,-1,39
 868 1327 868 1327 839 1327 c 0,40,41
 759 1327 759 1327 705 1306 c 128,-1,42
 651 1285 651 1285 625 1245 c 128,-1,43
 599 1205 599 1205 589 1162 c 128,-1,44
 579 1119 579 1119 579 1060 c 2,45,-1
 579 1017 l 2,46,47
 579 1006 579 1006 591 1006 c 2,48,-1
 996 1006 l 2,49,50
 1030 1006 1030 1006 1046.5 994 c 128,-1,51
 1063 982 1063 982 1063 951 c 2,52,-1
 1063 912 l 2,53,54
 1063 882 1063 882 1047 871 c 128,-1,55
 1031 860 1031 860 996 860 c 2,56,-1
 602 860 l 2,57,58
 579 860 579 860 579 823 c 2,59,-1
 579 77 l 2,60,61
 579 45 579 45 556.5 22.5 c 128,-1,62
 534 0 534 0 502 0 c 2,63,-1
 438 0 l 2,0,1
EndSplineSet
EndChar

StartChar: g
Encoding: 103 103 74
Width: 1547
GlyphClass: 2
Flags: W
LayerCount: 2
Fore
SplineSet
773 -515 m 0,0,1
 458 -515 458 -515 308.5 -452 c 128,-1,2
 159 -389 159 -389 159 -281 c 0,3,4
 159 -180 159 -180 214 -110.5 c 128,-1,5
 269 -41 269 -41 370 21 c 1,6,7
 388 30 388 30 388 39 c 0,8,9
 388 44 388 44 368 50 c 1,10,11
 319 61 319 61 295 67.5 c 128,-1,12
 271 74 271 74 240.5 85 c 128,-1,13
 210 96 210 96 197 108 c 128,-1,14
 184 120 184 120 174.5 139 c 128,-1,15
 165 158 165 158 165 184 c 0,16,17
 165 250 165 250 213.5 316 c 128,-1,18
 262 382 262 382 327 423 c 0,19,20
 346 435 346 435 346 441 c 0,21,22
 346 444 346 444 343.5 446 c 128,-1,23
 341 448 341 448 336.5 449 c 128,-1,24
 332 450 332 450 330 451 c 0,25,26
 140 551 140 551 140 706 c 0,27,28
 140 763 140 763 158 812.5 c 128,-1,29
 176 862 176 862 220.5 907 c 128,-1,30
 265 952 265 952 333.5 983.5 c 128,-1,31
 402 1015 402 1015 509.5 1033.5 c 128,-1,32
 617 1052 617 1052 755 1052 c 0,33,34
 796 1052 796 1052 908 1039 c 0,35,36
 921 1038 921 1038 933 1046 c 128,-1,37
 945 1054 945 1054 948 1067 c 1,38,-1
 1070 1350 l 1,39,40
 1075 1379 1075 1379 1098.5 1398.5 c 128,-1,41
 1122 1418 1122 1418 1152 1418 c 2,42,-1
 1254 1418 l 2,43,44
 1271 1418 1271 1418 1282 1406.5 c 128,-1,45
 1293 1395 1293 1395 1293 1379 c 0,46,47
 1293 1368 1293 1368 1287 1359 c 2,48,-1
 1051 1041 l 2,49,50
 1044 1030 1044 1030 1048 1017 c 128,-1,51
 1052 1004 1052 1004 1064 1000 c 0,52,53
 1199 962 1199 962 1277 880 c 128,-1,54
 1355 798 1355 798 1355 706 c 0,55,56
 1355 644 1355 644 1341 595 c 128,-1,57
 1327 546 1327 546 1289 500 c 128,-1,58
 1251 454 1251 454 1189.5 423.5 c 128,-1,59
 1128 393 1128 393 1027.5 374.5 c 128,-1,60
 927 356 927 356 792 356 c 0,61,62
 621 356 621 356 500 383 c 1,63,-1
 497 383 l 2,64,65
 471 383 471 383 420 345 c 1,66,67
 351 291 351 291 351 246 c 0,68,69
 351 231 351 231 352 222.5 c 128,-1,70
 353 214 353 214 361 201 c 128,-1,71
 369 188 369 188 385 181.5 c 128,-1,72
 401 175 401 175 432.5 169.5 c 128,-1,73
 464 164 464 164 509 164 c 2,74,-1
 918 164 l 2,75,76
 1464 164 1464 164 1464 -177 c 0,77,78
 1464 -350 1464 -350 1296 -432.5 c 128,-1,79
 1128 -515 1128 -515 773 -515 c 0,0,1
786 -359 m 0,80,81
 938 -359 938 -359 1038.5 -344 c 128,-1,82
 1139 -329 1139 -329 1191 -298 c 128,-1,83
 1243 -267 1243 -267 1262.5 -229.5 c 128,-1,84
 1282 -192 1282 -192 1282 -137 c 0,85,86
 1282 -61 1282 -61 1178.5 -22 c 128,-1,87
 1075 17 1075 17 900 17 c 2,88,-1
 600 17 l 2,89,90
 526 17 526 17 443.5 -57.5 c 128,-1,91
 361 -132 361 -132 361 -210 c 0,92,93
 361 -241 361 -241 376 -264.5 c 128,-1,94
 391 -288 391 -288 432.5 -311 c 128,-1,95
 474 -334 474 -334 563.5 -346.5 c 128,-1,96
 653 -359 653 -359 786 -359 c 0,80,81
755 502 m 0,97,98
 833 502 833 502 895 508.5 c 128,-1,99
 957 515 957 515 998.5 525 c 128,-1,100
 1040 535 1040 535 1069.5 551.5 c 128,-1,101
 1099 568 1099 568 1115 583.5 c 128,-1,102
 1131 599 1131 599 1140 621 c 128,-1,103
 1149 643 1149 643 1151 659.5 c 128,-1,104
 1153 676 1153 676 1153 699 c 0,105,106
 1153 733 1153 733 1146.5 758.5 c 128,-1,107
 1140 784 1140 784 1116 812.5 c 128,-1,108
 1092 841 1092 841 1050 859.5 c 128,-1,109
 1008 878 1008 878 931.5 890 c 128,-1,110
 855 902 855 902 749 902 c 0,111,112
 648 902 648 902 573 889.5 c 128,-1,113
 498 877 498 877 456.5 858.5 c 128,-1,114
 415 840 415 840 390 813 c 128,-1,115
 365 786 365 786 357.5 762 c 128,-1,116
 350 738 350 738 350 710 c 0,117,118
 350 678 350 678 358 651.5 c 128,-1,119
 366 625 366 625 391.5 596 c 128,-1,120
 417 567 417 567 460 547.5 c 128,-1,121
 503 528 503 528 578.5 515 c 128,-1,122
 654 502 654 502 755 502 c 0,97,98
EndSplineSet
EndChar

StartChar: h
Encoding: 104 104 75
Width: 1534
GlyphClass: 2
Flags: W
LayerCount: 2
Fore
SplineSet
227 0 m 2,0,1
 160 0 160 0 160 67 c 2,2,-1
 160 1371 l 2,3,4
 160 1438 160 1438 227 1438 c 2,5,-1
 312 1438 l 2,6,7
 379 1438 379 1438 379 1371 c 2,8,-1
 379 852 l 1,9,-1
 388 846 l 1,10,11
 569 1052 569 1052 875 1052 c 0,12,13
 1115 1052 1115 1052 1253 925.5 c 128,-1,14
 1391 799 1391 799 1391 553 c 2,15,-1
 1391 67 l 2,16,17
 1391 0 1391 0 1324 0 c 2,18,-1
 1240 0 l 2,19,20
 1173 0 1173 0 1173 67 c 2,21,-1
 1173 609 l 2,22,23
 1173 904 1173 904 837 904 c 0,24,25
 741 904 741 904 633 858.5 c 128,-1,26
 525 813 525 813 452 743 c 128,-1,27
 379 673 379 673 379 609 c 2,28,-1
 379 67 l 2,29,30
 379 0 379 0 313 0 c 2,31,-1
 227 0 l 2,0,1
EndSplineSet
EndChar

StartChar: i
Encoding: 105 105 76
Width: 538
GlyphClass: 2
Flags: W
LayerCount: 2
Fore
SplineSet
227 0 m 2,0,1
 160 0 160 0 160 67 c 2,2,-1
 160 939 l 2,3,4
 160 1006 160 1006 227 1006 c 2,5,-1
 312 1006 l 2,6,7
 379 1006 379 1006 379 939 c 2,8,-1
 379 67 l 2,9,10
 379 0 379 0 312 0 c 2,11,-1
 227 0 l 2,0,1
227 1180 m 2,12,13
 160 1180 160 1180 160 1246 c 2,14,-1
 160 1341 l 2,15,16
 160 1408 160 1408 227 1408 c 2,17,-1
 312 1408 l 2,18,19
 379 1408 379 1408 379 1341 c 2,20,-1
 379 1246 l 2,21,22
 379 1180 379 1180 312 1180 c 2,23,-1
 227 1180 l 2,12,13
EndSplineSet
EndChar

StartChar: j
Encoding: 106 106 77
Width: 774
GlyphClass: 2
Flags: W
LayerCount: 2
Fore
SplineSet
108 -379 m 2,0,1
 50 -379 50 -379 50 -313 c 2,2,-1
 50 -268 l 2,3,4
 50 -235 50 -235 63 -221 c 128,-1,5
 76 -207 76 -207 108 -207 c 2,6,-1
 233 -207 l 2,7,8
 266 -207 266 -207 291.5 -200.5 c 128,-1,9
 317 -194 317 -194 334 -184.5 c 128,-1,10
 351 -175 351 -175 363 -156 c 128,-1,11
 375 -137 375 -137 381.5 -119.5 c 128,-1,12
 388 -102 388 -102 391 -71 c 128,-1,13
 394 -40 394 -40 395 -15 c 128,-1,14
 396 10 396 10 396 51 c 2,15,-1
 396 939 l 2,16,17
 396 1006 396 1006 463 1006 c 2,18,-1
 548 1006 l 2,19,20
 614 1006 614 1006 614 939 c 2,21,-1
 614 6 l 1,22,23
 612 -195 612 -195 516 -287 c 128,-1,24
 420 -379 420 -379 196 -379 c 2,25,-1
 108 -379 l 2,0,1
456 1180 m 2,26,27
 389 1180 389 1180 389 1246 c 2,28,-1
 389 1341 l 2,29,30
 389 1408 389 1408 456 1408 c 2,31,-1
 541 1408 l 2,32,33
 607 1408 607 1408 607 1341 c 2,34,-1
 607 1246 l 2,35,36
 607 1180 607 1180 541 1180 c 2,37,-1
 456 1180 l 2,26,27
EndSplineSet
EndChar

StartChar: k
Encoding: 107 107 78
Width: 1677
GlyphClass: 2
Flags: W
LayerCount: 2
Fore
SplineSet
227 0 m 2,0,1
 160 0 160 0 160 67 c 2,2,-1
 160 1370 l 2,3,4
 160 1437 160 1437 227 1437 c 2,5,-1
 312 1437 l 2,6,7
 379 1437 379 1437 379 1370 c 2,8,-1
 379 474 l 2,9,10
 379 465 379 465 385 465 c 0,11,12
 389 465 389 465 391 467 c 2,13,-1
 1157 938 l 1,14,15
 1194 962 1194 962 1214 973.5 c 128,-1,16
 1234 985 1234 985 1260.5 995.5 c 128,-1,17
 1287 1006 1287 1006 1307 1006 c 2,18,-1
 1490 1006 l 2,19,20
 1520 1006 1520 1006 1520 989 c 0,21,22
 1520 966 1520 966 1473 938 c 2,23,-1
 865 563 l 2,24,25
 859 559 859 559 859 555 c 0,26,27
 859 550 859 550 866 547 c 1,28,-1
 1538 67 l 2,29,30
 1572 42 1572 42 1572 22 c 0,31,32
 1572 0 1572 0 1536 0 c 2,33,-1
 1382 0 l 2,34,35
 1362 0 1362 0 1338 10.5 c 128,-1,36
 1314 21 1314 21 1298 32 c 128,-1,37
 1282 43 1282 43 1250 67 c 2,38,-1
 701 468 l 2,39,40
 690 476 690 476 685 476 c 0,41,42
 678 476 678 476 671 471 c 2,43,-1
 391 311 l 2,44,45
 379 304 379 304 379 290 c 2,46,-1
 379 67 l 2,47,48
 379 0 379 0 312 0 c 2,49,-1
 227 0 l 2,0,1
EndSplineSet
EndChar

StartChar: l
Encoding: 108 108 79
Width: 538
GlyphClass: 2
Flags: W
LayerCount: 2
Fore
SplineSet
227 0 m 2,0,1
 160 0 160 0 160 67 c 2,2,-1
 160 1370 l 2,3,4
 160 1437 160 1437 227 1437 c 2,5,-1
 312 1437 l 2,6,7
 378 1437 378 1437 378 1370 c 2,8,-1
 378 67 l 2,9,10
 378 0 378 0 312 0 c 2,11,-1
 227 0 l 2,0,1
EndSplineSet
EndChar

StartChar: m
Encoding: 109 109 80
Width: 2523
GlyphClass: 2
Flags: W
LayerCount: 2
Fore
SplineSet
219 0 m 2,0,1
 152 0 152 0 152 67 c 2,2,-1
 152 929 l 2,3,4
 152 1006 152 1006 208 1006 c 2,5,-1
 226 1006 l 2,6,7
 262 1006 262 1006 280 992.5 c 128,-1,8
 298 979 298 979 305 942 c 1,9,-1
 331 824 l 1,10,11
 339 811 339 811 346 811 c 128,-1,12
 353 811 353 811 366 826 c 0,13,14
 459 942 459 942 589.5 997 c 128,-1,15
 720 1052 720 1052 870 1052 c 0,16,17
 1198 1052 1198 1052 1310 821 c 0,18,19
 1311 820 1311 820 1311 817 c 1,20,21
 1318 799 1318 799 1328 799 c 0,22,23
 1334 799 1334 799 1346 815 c 0,24,25
 1350 821 1350 821 1353 825 c 0,26,27
 1442 942 1442 942 1574 997 c 128,-1,28
 1706 1052 1706 1052 1859 1052 c 0,29,30
 2100 1052 2100 1052 2239.5 925 c 128,-1,31
 2379 798 2379 798 2379 553 c 2,32,-1
 2379 67 l 2,33,34
 2379 0 2379 0 2313 0 c 2,35,-1
 2228 0 l 2,36,37
 2161 0 2161 0 2161 67 c 2,38,-1
 2161 609 l 2,39,40
 2161 691 2161 691 2134.5 750 c 128,-1,41
 2108 809 2108 809 2059.5 842 c 128,-1,42
 2011 875 2011 875 1952 890 c 128,-1,43
 1893 905 1893 905 1820 905 c 0,44,45
 1723 905 1723 905 1618 858.5 c 128,-1,46
 1513 812 1513 812 1444.5 742.5 c 128,-1,47
 1376 673 1376 673 1376 610 c 1,48,49
 1375 607 1375 607 1374 607 c 1,50,-1
 1374 67 l 2,51,52
 1374 0 1374 0 1307 0 c 2,53,-1
 1222 0 l 2,54,55
 1156 0 1156 0 1156 67 c 2,56,-1
 1156 609 l 2,57,58
 1156 769 1156 769 1069.5 836.5 c 128,-1,59
 983 904 983 904 830 904 c 0,60,61
 734 904 734 904 625.5 859 c 128,-1,62
 517 814 517 814 444 744.5 c 128,-1,63
 371 675 371 675 371 611 c 2,64,-1
 371 67 l 2,65,66
 371 0 371 0 305 0 c 2,67,-1
 219 0 l 2,0,1
EndSplineSet
EndChar

StartChar: n
Encoding: 110 110 81
Width: 1529
GlyphClass: 2
Flags: W
LayerCount: 2
Fore
SplineSet
219 0 m 2,0,1
 152 0 152 0 152 67 c 2,2,-1
 152 929 l 2,3,4
 152 1006 152 1006 208 1006 c 2,5,-1
 226 1006 l 2,6,7
 262 1006 262 1006 280 992.5 c 128,-1,8
 298 979 298 979 305 942 c 1,9,-1
 331 824 l 1,10,11
 339 811 339 811 346 811 c 128,-1,12
 353 811 353 811 366 826 c 0,13,14
 460 942 460 942 590 997 c 128,-1,15
 720 1052 720 1052 869 1052 c 0,16,17
 1107 1052 1107 1052 1246.5 925 c 128,-1,18
 1386 798 1386 798 1386 553 c 2,19,-1
 1386 67 l 2,20,21
 1386 0 1386 0 1319 0 c 2,22,-1
 1234 0 l 2,23,24
 1168 0 1168 0 1168 67 c 2,25,-1
 1168 609 l 2,26,27
 1168 905 1168 905 829 905 c 0,28,29
 733 905 733 905 625 859.5 c 128,-1,30
 517 814 517 814 444 743.5 c 128,-1,31
 371 673 371 673 371 609 c 2,32,-1
 371 67 l 2,33,34
 371 0 371 0 305 0 c 2,35,-1
 219 0 l 2,0,1
EndSplineSet
EndChar

StartChar: o
Encoding: 111 111 82
Width: 1639
GlyphClass: 2
Flags: W
LayerCount: 2
Fore
SplineSet
821 108 m 0,0,1
 918 108 918 108 1002.5 133.5 c 128,-1,2
 1087 159 1087 159 1151.5 207 c 128,-1,3
 1216 255 1216 255 1253.5 331.5 c 128,-1,4
 1291 408 1291 408 1291 504 c 0,5,6
 1291 588 1291 588 1265 655.5 c 128,-1,7
 1239 723 1239 723 1194.5 768.5 c 128,-1,8
 1150 814 1150 814 1089.5 845 c 128,-1,9
 1029 876 1029 876 962 889.5 c 128,-1,10
 895 903 895 903 821 903 c 0,11,12
 727 903 727 903 644 880 c 128,-1,13
 561 857 561 857 493.5 811 c 128,-1,14
 426 765 426 765 387 686 c 128,-1,15
 348 607 348 607 348 504 c 0,16,17
 348 378 348 378 412.5 287 c 128,-1,18
 477 196 477 196 582.5 152 c 128,-1,19
 688 108 688 108 821 108 c 0,0,1
822 -41 m 0,20,21
 729 -41 729 -41 635.5 -23 c 128,-1,22
 542 -5 542 -5 449.5 37.5 c 128,-1,23
 357 80 357 80 286.5 141 c 128,-1,24
 216 202 216 202 172 296 c 128,-1,25
 128 390 128 390 128 504 c 0,26,27
 128 622 128 622 169 716.5 c 128,-1,28
 210 811 210 811 277.5 872.5 c 128,-1,29
 345 934 345 934 436 975.5 c 128,-1,30
 527 1017 527 1017 623 1034.5 c 128,-1,31
 719 1052 719 1052 822 1052 c 0,32,33
 923 1052 923 1052 1018 1034.5 c 128,-1,34
 1113 1017 1113 1017 1204 975.5 c 128,-1,35
 1295 934 1295 934 1362 872.5 c 128,-1,36
 1429 811 1429 811 1470 716 c 128,-1,37
 1511 621 1511 621 1511 504 c 0,38,39
 1511 391 1511 391 1467 297 c 128,-1,40
 1423 203 1423 203 1352.5 141.5 c 128,-1,41
 1282 80 1282 80 1190.5 38 c 128,-1,42
 1099 -4 1099 -4 1006 -22.5 c 128,-1,43
 913 -41 913 -41 822 -41 c 0,20,21
EndSplineSet
EndChar

StartChar: p
Encoding: 112 112 83
Width: 1663
GlyphClass: 2
Flags: W
LayerCount: 2
Fore
SplineSet
220 -430 m 2,0,1
 153 -430 153 -430 153 -363 c 2,2,-1
 153 945 l 2,3,4
 153 980 153 980 163.5 995.5 c 128,-1,5
 174 1011 174 1011 205 1011 c 2,6,-1
 217 1011 l 2,7,8
 241 1011 241 1011 259 990.5 c 128,-1,9
 277 970 277 970 294 917 c 0,10,11
 297 907 297 907 308 869 c 128,-1,12
 319 831 319 831 326 811 c 0,13,14
 330 800 330 800 335 800 c 0,15,16
 339 800 339 800 345 806 c 1,17,18
 430 923 430 923 576 987.5 c 128,-1,19
 722 1052 722 1052 877 1052 c 0,20,21
 968 1052 968 1052 1057.5 1034 c 128,-1,22
 1147 1016 1147 1016 1234 974 c 128,-1,23
 1321 932 1321 932 1387 871 c 128,-1,24
 1453 810 1453 810 1493.5 716 c 128,-1,25
 1534 622 1534 622 1534 507 c 0,26,27
 1534 389 1534 389 1494.5 293.5 c 128,-1,28
 1455 198 1455 198 1389.5 136.5 c 128,-1,29
 1324 75 1324 75 1235 34 c 128,-1,30
 1146 -7 1146 -7 1052 -24.5 c 128,-1,31
 958 -42 958 -42 857 -42 c 0,32,33
 707 -42 707 -42 584.5 7 c 128,-1,34
 462 56 462 56 382 152 c 0,35,36
 379 157 379 157 375 157 c 0,37,38
 372 157 372 157 372 150 c 2,39,-1
 372 -363 l 2,40,41
 372 -430 372 -430 305 -430 c 2,42,-1
 220 -430 l 2,0,1
845 107 m 0,43,44
 938 107 938 107 1020 130 c 128,-1,45
 1102 153 1102 153 1169.5 199 c 128,-1,46
 1237 245 1237 245 1276.5 324 c 128,-1,47
 1316 403 1316 403 1316 507 c 0,48,49
 1316 635 1316 635 1251 726.5 c 128,-1,50
 1186 818 1186 818 1081 861 c 128,-1,51
 976 904 976 904 845 904 c 0,52,53
 746 904 746 904 661 878 c 128,-1,54
 576 852 576 852 511 803.5 c 128,-1,55
 446 755 446 755 409 678.5 c 128,-1,56
 372 602 372 602 372 507 c 0,57,58
 372 404 372 404 411 325 c 128,-1,59
 450 246 450 246 517.5 199.5 c 128,-1,60
 585 153 585 153 668 130 c 128,-1,61
 751 107 751 107 845 107 c 0,43,44
EndSplineSet
EndChar

StartChar: q
Encoding: 113 113 84
Width: 1663
GlyphClass: 2
Flags: W
LayerCount: 2
Fore
SplineSet
1360 -430 m 2,0,1
 1293 -430 1293 -430 1293 -363 c 2,2,-1
 1293 147 l 2,3,4
 1293 156 1293 156 1289 156 c 0,5,6
 1287 156 1287 156 1281 150 c 0,7,8
 1199 56 1199 56 1077 7 c 128,-1,9
 955 -42 955 -42 807 -42 c 0,10,11
 723 -42 723 -42 644 -29.5 c 128,-1,12
 565 -17 565 -17 488 9 c 128,-1,13
 411 35 411 35 347 79.5 c 128,-1,14
 283 124 283 124 234 183 c 128,-1,15
 185 242 185 242 157.5 325 c 128,-1,16
 130 408 130 408 130 507 c 0,17,18
 130 622 130 622 170.5 716 c 128,-1,19
 211 810 211 810 277 871 c 128,-1,20
 343 932 343 932 430.5 974 c 128,-1,21
 518 1016 518 1016 607.5 1034 c 128,-1,22
 697 1052 697 1052 788 1052 c 0,23,24
 943 1052 943 1052 1089.5 987.5 c 128,-1,25
 1236 923 1236 923 1320 805 c 0,26,27
 1323 800 1323 800 1327 800 c 128,-1,28
 1331 800 1331 800 1334 808 c 0,29,30
 1367 900 1367 900 1376 927 c 1,31,32
 1400 1011 1400 1011 1447 1011 c 2,33,-1
 1459 1011 l 2,34,35
 1490 1011 1490 1011 1500.5 995.5 c 128,-1,36
 1511 980 1511 980 1511 945 c 2,37,-1
 1511 -363 l 2,38,39
 1511 -430 1511 -430 1445 -430 c 2,40,-1
 1360 -430 l 2,0,1
819 107 m 0,41,42
 914 107 914 107 997 130 c 128,-1,43
 1080 153 1080 153 1147.5 199.5 c 128,-1,44
 1215 246 1215 246 1254 325 c 128,-1,45
 1293 404 1293 404 1293 507 c 0,46,47
 1293 602 1293 602 1256 678.5 c 128,-1,48
 1219 755 1219 755 1154 803.5 c 128,-1,49
 1089 852 1089 852 1003.5 878 c 128,-1,50
 918 904 918 904 819 904 c 0,51,52
 688 904 688 904 583.5 861 c 128,-1,53
 479 818 479 818 414 726.5 c 128,-1,54
 349 635 349 635 349 507 c 0,55,56
 349 423 349 423 375 355 c 128,-1,57
 401 287 401 287 445.5 241.5 c 128,-1,58
 490 196 490 196 550.5 165.5 c 128,-1,59
 611 135 611 135 678 121 c 128,-1,60
 745 107 745 107 819 107 c 0,41,42
EndSplineSet
EndChar

StartChar: r
Encoding: 114 114 85
Width: 1011
GlyphClass: 2
Flags: W
LayerCount: 2
Fore
SplineSet
219 0 m 2,0,1
 152 0 152 0 152 67 c 2,2,-1
 152 929 l 2,3,4
 152 1006 152 1006 209 1006 c 2,5,-1
 225 1006 l 2,6,7
 261 1006 261 1006 279 992.5 c 128,-1,8
 297 979 297 979 305 942 c 2,9,-1
 331 833 l 2,10,11
 336 811 336 811 346 811 c 0,12,13
 350 811 350 811 353.5 814.5 c 128,-1,14
 357 818 357 818 361 825.5 c 128,-1,15
 365 833 365 833 366 834 c 0,16,17
 427 920 427 920 542 986 c 128,-1,18
 657 1052 657 1052 788 1052 c 2,19,-1
 835 1052 l 2,20,21
 866 1052 866 1052 883 1034.5 c 128,-1,22
 900 1017 900 1017 900 985 c 2,23,-1
 900 930 l 2,24,25
 900 867 900 867 832 867 c 2,26,-1
 749 867 l 2,27,28
 602 867 602 867 486.5 788.5 c 128,-1,29
 371 710 371 710 371 610 c 2,30,-1
 371 67 l 2,31,32
 371 0 371 0 305 0 c 2,33,-1
 219 0 l 2,0,1
EndSplineSet
EndChar

StartChar: s
Encoding: 115 115 86
Width: 1550
GlyphClass: 2
Flags: W
LayerCount: 2
Fore
SplineSet
794 -41 m 0,0,1
 433 -41 433 -41 190 59 c 0,2,3
 172 66 172 66 160.5 85 c 128,-1,4
 149 104 149 104 149 125 c 0,5,6
 149 140 149 140 154 150 c 0,7,8
 183 211 183 211 228 211 c 0,9,10
 244 211 244 211 256 206 c 0,11,12
 387 156 387 156 513 134.5 c 128,-1,13
 639 113 639 113 810 113 c 0,14,15
 976 113 976 113 1071 135.5 c 128,-1,16
 1166 158 1166 158 1199.5 196 c 128,-1,17
 1233 234 1233 234 1233 296 c 0,18,19
 1233 337 1233 337 1220 359.5 c 128,-1,20
 1207 382 1207 382 1159.5 402.5 c 128,-1,21
 1112 423 1112 423 1017 433.5 c 128,-1,22
 922 444 922 444 761 450 c 0,23,24
 661 454 661 454 586.5 460.5 c 128,-1,25
 512 467 512 467 438.5 479.5 c 128,-1,26
 365 492 365 492 315 512.5 c 128,-1,27
 265 533 265 533 225 563 c 128,-1,28
 185 593 185 593 166 636 c 128,-1,29
 147 679 147 679 147 735 c 0,30,31
 147 797 147 797 170 846.5 c 128,-1,32
 193 896 193 896 228.5 929 c 128,-1,33
 264 962 264 962 318 985.5 c 128,-1,34
 372 1009 372 1009 423.5 1022 c 128,-1,35
 475 1035 475 1035 541.5 1042 c 128,-1,36
 608 1049 608 1049 656 1051 c 128,-1,37
 704 1053 704 1053 764 1053 c 0,38,39
 925 1053 925 1053 1043 1032.5 c 128,-1,40
 1161 1012 1161 1012 1275 970 c 0,41,42
 1316 954 1316 954 1316 914 c 0,43,44
 1316 901 1316 901 1311 891 c 2,45,-1
 1299 865 l 2,46,47
 1284 833 1284 833 1238 833 c 0,48,49
 1216 833 1216 833 1197 839 c 0,50,51
 1129 860 1129 860 1093 869.5 c 128,-1,52
 1057 879 1057 879 981.5 889 c 128,-1,53
 906 899 906 899 816 899 c 0,54,55
 572 899 572 899 459 865.5 c 128,-1,56
 346 832 346 832 346 755 c 0,57,58
 346 703 346 703 366 684 c 0,59,60
 398 654 398 654 543 638 c 0,61,62
 621 630 621 630 801 618 c 0,63,64
 871 613 871 613 914.5 609.5 c 128,-1,65
 958 606 958 606 1016 600.5 c 128,-1,66
 1074 595 1074 595 1109 588.5 c 128,-1,67
 1144 582 1144 582 1187.5 572 c 128,-1,68
 1231 562 1231 562 1257 550 c 128,-1,69
 1283 538 1283 538 1312.5 521.5 c 128,-1,70
 1342 505 1342 505 1358.5 484 c 128,-1,71
 1375 463 1375 463 1389.5 437 c 128,-1,72
 1404 411 1404 411 1410 378.5 c 128,-1,73
 1416 346 1416 346 1416 307 c 0,74,75
 1416 241 1416 241 1399.5 190 c 128,-1,76
 1383 139 1383 139 1341 94 c 128,-1,77
 1299 49 1299 49 1229.5 20.5 c 128,-1,78
 1160 -8 1160 -8 1050.5 -24.5 c 128,-1,79
 941 -41 941 -41 794 -41 c 0,0,1
EndSplineSet
EndChar

StartChar: t
Encoding: 116 116 87
Width: 1171
GlyphClass: 2
Flags: W
LayerCount: 2
Fore
SplineSet
707 -41 m 0,0,1
 503 -41 503 -41 404 58 c 128,-1,2
 305 157 305 157 305 331 c 2,3,-1
 305 823 l 2,4,5
 305 838 305 838 299 844 c 128,-1,6
 293 850 293 850 278 850 c 2,7,-1
 148 850 l 2,8,9
 81 850 81 850 81 916 c 2,10,-1
 81 939 l 2,11,12
 81 1006 81 1006 148 1006 c 2,13,-1
 278 1006 l 2,14,15
 293 1006 293 1006 299 1012 c 128,-1,16
 305 1018 305 1018 305 1033 c 2,17,-1
 324 1408 l 1,18,19
 331 1442 331 1442 346 1458.5 c 128,-1,20
 361 1475 361 1475 391 1475 c 2,21,-1
 456 1475 l 2,22,23
 522 1475 522 1475 522 1408 c 2,24,-1
 522 1033 l 2,25,26
 522 1018 522 1018 528 1012 c 128,-1,27
 534 1006 534 1006 549 1006 c 2,28,-1
 932 1006 l 2,29,30
 998 1006 998 1006 998 939 c 2,31,-1
 998 916 l 2,32,33
 998 850 998 850 932 850 c 2,34,-1
 549 850 l 2,35,36
 534 850 534 850 528 844 c 128,-1,37
 522 838 522 838 522 823 c 2,38,-1
 522 301 l 2,39,40
 522 199 522 199 577 153 c 128,-1,41
 632 107 632 107 748 107 c 0,42,43
 838 107 838 107 951 144 c 0,44,45
 971 151 971 151 986 151 c 0,46,47
 1004 151 1004 151 1011.5 140.5 c 128,-1,48
 1019 130 1019 130 1025 106 c 1,49,-1
 1034 78 l 2,50,51
 1037 66 1037 66 1037 57 c 0,52,53
 1037 38 1037 38 1024.5 27 c 128,-1,54
 1012 16 1012 16 984 5 c 0,55,56
 867 -41 867 -41 707 -41 c 0,0,1
EndSplineSet
EndChar

StartChar: u
Encoding: 117 117 88
Width: 1530
GlyphClass: 2
Flags: W
LayerCount: 2
Fore
SplineSet
659 -47 m 0,0,1
 420 -47 420 -47 282.5 80.5 c 128,-1,2
 145 208 145 208 145 453 c 2,3,-1
 145 939 l 2,4,5
 145 1006 145 1006 212 1006 c 2,6,-1
 296 1006 l 2,7,8
 363 1006 363 1006 363 939 c 2,9,-1
 363 397 l 2,10,11
 363 315 363 315 388.5 256.5 c 128,-1,12
 414 198 414 198 462 166.5 c 128,-1,13
 510 135 510 135 567.5 121 c 128,-1,14
 625 107 625 107 699 107 c 0,15,16
 796 107 796 107 904.5 151 c 128,-1,17
 1013 195 1013 195 1086.5 264 c 128,-1,18
 1160 333 1160 333 1160 397 c 2,19,-1
 1160 939 l 2,20,21
 1160 1006 1160 1006 1226 1006 c 2,22,-1
 1312 1006 l 2,23,24
 1379 1006 1379 1006 1379 939 c 2,25,-1
 1379 77 l 2,26,27
 1379 0 1379 0 1322 0 c 2,28,-1
 1305 0 l 2,29,30
 1269 0 1269 0 1251 13.5 c 128,-1,31
 1233 27 1233 27 1226 64 c 1,32,-1
 1200 182 l 1,33,34
 1192 195 1192 195 1185 195 c 0,35,36
 1179 195 1179 195 1165 179 c 0,37,38
 1072 63 1072 63 940.5 8 c 128,-1,39
 809 -47 809 -47 659 -47 c 0,0,1
EndSplineSet
EndChar

StartChar: v
Encoding: 118 118 89
Width: 1523
GlyphClass: 2
Flags: W
LayerCount: 2
Fore
SplineSet
723 1 m 2,0,1
 666 1 666 1 628 67 c 1,2,-1
 109 939 l 2,3,4
 97 961 97 961 97 977 c 0,5,6
 97 1006 97 1006 139 1006 c 2,7,-1
 253 1006 l 2,8,9
 283 1006 283 1006 299 991 c 128,-1,10
 315 976 315 976 337 939 c 1,11,-1
 765 169 l 2,12,13
 770 160 770 160 778 160 c 128,-1,14
 786 160 786 160 790 169 c 2,15,-1
 1179 939 l 2,16,17
 1212 1006 1212 1006 1272 1006 c 2,18,-1
 1389 1006 l 2,19,20
 1426 1006 1426 1006 1426 983 c 0,21,22
 1426 966 1426 966 1408 939 c 1,23,-1
 927 67 l 1,24,25
 881 1 881 1 821 1 c 2,26,-1
 723 1 l 2,0,1
EndSplineSet
EndChar

StartChar: w
Encoding: 119 119 90
Width: 2505
GlyphClass: 2
Flags: W
LayerCount: 2
Fore
SplineSet
692 0 m 2,0,1
 635 0 635 0 596 67 c 1,2,-1
 129 939 l 2,3,4
 117 961 117 961 117 978 c 0,5,6
 117 1006 117 1006 159 1006 c 2,7,-1
 273 1006 l 2,8,9
 303 1006 303 1006 321 990.5 c 128,-1,10
 339 975 339 975 357 939 c 2,11,-1
 739 177 l 2,12,13
 745 167 745 167 751 167 c 0,14,15
 758 167 758 167 763 177 c 2,16,-1
 1123 939 l 2,17,18
 1154 1006 1154 1006 1217 1006 c 2,19,-1
 1299 1006 l 2,20,21
 1324 1006 1324 1006 1339.5 990.5 c 128,-1,22
 1355 975 1355 975 1375 939 c 2,23,-1
 1775 177 l 2,24,25
 1779 169 1779 169 1786 169 c 0,26,27
 1796 169 1796 169 1799 177 c 2,28,-1
 2140 939 l 2,29,30
 2170 1006 2170 1006 2234 1006 c 2,31,-1
 2351 1006 l 2,32,33
 2388 1006 2388 1006 2388 983 c 0,34,35
 2388 966 2388 966 2370 939 c 1,36,-1
 1943 67 l 2,37,38
 1928 35 1928 35 1898.5 17.5 c 128,-1,39
 1869 0 1869 0 1837 0 c 2,40,-1
 1729 0 l 2,41,42
 1700 0 1700 0 1674.5 18 c 128,-1,43
 1649 36 1649 36 1633 67 c 2,44,-1
 1264 790 l 2,45,46
 1260 797 1260 797 1254 797 c 0,47,48
 1245 797 1245 797 1243 790 c 1,49,-1
 904 67 l 2,50,51
 889 35 889 35 859.5 17.5 c 128,-1,52
 830 0 830 0 798 0 c 2,53,-1
 692 0 l 2,0,1
EndSplineSet
EndChar

StartChar: x
Encoding: 120 120 91
Width: 1698
GlyphClass: 2
Flags: W
LayerCount: 2
Fore
SplineSet
155 0 m 2,0,1
 144 0 144 0 136.5 8 c 128,-1,2
 129 16 129 16 129 26 c 0,3,4
 129 39 129 39 139 46 c 0,5,6
 303 174 303 174 709 493 c 0,7,8
 714 498 714 498 714 500 c 0,9,10
 714 503 714 503 709 511 c 1,11,12
 244 889 244 889 161 958 c 1,13,14
 151 965 151 965 151 978 c 0,15,16
 151 989 151 989 159 997.5 c 128,-1,17
 167 1006 167 1006 179 1006 c 2,18,-1
 308 1006 l 2,19,20
 330 1006 330 1006 350.5 998.5 c 128,-1,21
 371 991 371 991 383.5 982.5 c 128,-1,22
 396 974 396 974 419 956 c 0,23,24
 453 929 453 929 592 817 c 128,-1,25
 731 705 731 705 842 616 c 0,26,27
 846 612 846 612 852 612 c 0,28,29
 856 612 856 612 865 616 c 1,30,31
 1045 756 1045 756 1298 958 c 0,32,33
 1323 977 1323 977 1333 984.5 c 128,-1,34
 1343 992 1343 992 1362.5 999 c 128,-1,35
 1382 1006 1382 1006 1404 1006 c 2,36,-1
 1533 1006 l 2,37,38
 1545 1006 1545 1006 1552 998.5 c 128,-1,39
 1559 991 1559 991 1559 981 c 0,40,41
 1559 968 1559 968 1548 960 c 0,42,43
 1495 917 1495 917 1304.5 762 c 128,-1,44
 1114 607 1114 607 998 513 c 0,45,46
 993 510 993 510 993 505 c 128,-1,47
 993 500 993 500 998 492 c 1,48,49
 1312 239 1312 239 1553 48 c 0,50,51
 1563 39 1563 39 1563 28 c 128,-1,52
 1563 17 1563 17 1555 8.5 c 128,-1,53
 1547 0 1547 0 1535 0 c 2,54,-1
 1413 0 l 2,55,56
 1340 0 1340 0 1278 50 c 0,57,58
 1248 74 1248 74 1107 188.5 c 128,-1,59
 966 303 966 303 870 380 c 0,60,61
 862 386 862 386 855 386 c 0,62,63
 845 386 845 386 832 380 c 1,64,65
 523 132 523 132 411 47 c 1,66,67
 351 0 351 0 273 0 c 2,68,-1
 155 0 l 2,0,1
EndSplineSet
EndChar

StartChar: y
Encoding: 121 121 92
Width: 1544
GlyphClass: 2
Flags: W
LayerCount: 2
Fore
SplineSet
432 -437 m 0,0,1
 275 -437 275 -437 177 -388 c 0,2,3
 160 -380 160 -380 155 -372.5 c 128,-1,4
 150 -365 150 -365 149 -344 c 0,5,6
 148 -327 148 -327 154 -308 c 1,7,-1
 161 -277 l 1,8,9
 175 -242 175 -242 221 -242 c 0,10,11
 229 -242 229 -242 243 -246 c 0,12,13
 278 -258 278 -258 338 -267 c 128,-1,14
 398 -276 398 -276 425 -276 c 2,15,-1
 443 -276 l 1,16,17
 586 -273 586 -273 658 -128 c 0,18,19
 676 -91 676 -91 709 -30 c 1,20,21
 612 131 612 131 419.5 454 c 128,-1,22
 227 777 227 777 131 939 c 0,23,24
 119 959 119 959 119 977 c 0,25,26
 119 1006 119 1006 161 1006 c 2,27,-1
 275 1006 l 2,28,29
 305 1006 305 1006 321 991 c 128,-1,30
 337 976 337 976 359 939 c 2,31,-1
 789 192 l 2,32,33
 796 179 796 179 809 179 c 0,34,35
 819 179 819 179 830 200 c 0,36,37
 842 221 842 221 938 404 c 128,-1,38
 1034 587 1034 587 1124.5 759.5 c 128,-1,39
 1215 932 1215 932 1215 933 c 0,40,41
 1234 975 1234 975 1256.5 990 c 128,-1,42
 1279 1005 1279 1005 1315 1006 c 1,43,-1
 1415 1006 l 2,44,45
 1436 1006 1436 1006 1451 991.5 c 128,-1,46
 1466 977 1466 977 1467 957 c 0,47,48
 1467 943 1467 943 1463 936 c 2,49,-1
 826 -208 l 2,50,51
 803 -249 803 -249 786 -274.5 c 128,-1,52
 769 -300 769 -300 735 -334.5 c 128,-1,53
 701 -369 701 -369 663.5 -388.5 c 128,-1,54
 626 -408 626 -408 566 -422.5 c 128,-1,55
 506 -437 506 -437 432 -437 c 0,0,1
EndSplineSet
EndChar

StartChar: z
Encoding: 122 122 93
Width: 1457
GlyphClass: 2
Flags: W
LayerCount: 2
Fore
SplineSet
210 0 m 2,0,1
 192 0 192 0 167 11.5 c 128,-1,2
 142 23 142 23 142 37 c 2,3,-1
 142 118 l 2,4,5
 142 159 142 159 171 178 c 1,6,-1
 1032 851 l 1,7,-1
 183 851 l 2,8,9
 168 851 168 851 157 862 c 128,-1,10
 146 873 146 873 146 888 c 2,11,-1
 146 969 l 2,12,13
 146 984 146 984 157 995 c 128,-1,14
 168 1006 168 1006 183 1006 c 2,15,-1
 1215 1006 l 2,16,17
 1233 1006 1233 1006 1257.5 994.5 c 128,-1,18
 1282 983 1282 983 1282 969 c 2,19,-1
 1282 871 l 2,20,21
 1282 832 1282 832 1253 810 c 1,22,-1
 438 155 l 1,23,-1
 1284 155 l 2,24,25
 1299 155 1299 155 1310 144 c 128,-1,26
 1321 133 1321 133 1321 118 c 2,27,-1
 1321 37 l 2,28,29
 1321 22 1321 22 1310 11 c 128,-1,30
 1299 0 1299 0 1284 0 c 2,31,-1
 210 0 l 2,0,1
EndSplineSet
EndChar

StartChar: braceleft
Encoding: 123 123 94
Width: 928
GlyphClass: 2
Flags: W
LayerCount: 2
Fore
SplineSet
412 1192 m 2,0,1
 412 1212 l 0,2,3
 412 1300 412 1300 423 1357.5 c 128,-1,4
 434 1415 434 1415 463.5 1459.5 c 128,-1,5
 493 1504 493 1504 547 1523.5 c 128,-1,6
 601 1543 601 1543 685 1543 c 2,7,-1
 729 1543 l 2,8,9
 806 1543 806 1543 806 1487 c 2,10,-1
 806 1438 l 2,11,12
 806 1402 806 1402 790 1388.5 c 128,-1,13
 774 1375 774 1375 736 1375 c 2,14,-1
 730 1375 l 2,15,16
 684 1375 684 1375 658.5 1369 c 128,-1,17
 633 1363 633 1363 613.5 1342.5 c 128,-1,18
 594 1322 594 1322 587 1283 c 128,-1,19
 580 1244 580 1244 580 1177 c 2,20,-1
 580 1172 l 2,21,22
 580 1115 580 1115 579.5 1082.5 c 128,-1,23
 579 1050 579 1050 575.5 991.5 c 128,-1,24
 572 933 572 933 564 896 c 128,-1,25
 556 859 556 859 543 818.5 c 128,-1,26
 530 778 530 778 507.5 755 c 128,-1,27
 485 732 485 732 455 725 c 0,28,29
 445 722 445 722 445 712 c 128,-1,30
 445 702 445 702 455 699 c 0,31,32
 481 693 481 693 501 673.5 c 128,-1,33
 521 654 521 654 534 629.5 c 128,-1,34
 547 605 547 605 556 565.5 c 128,-1,35
 565 526 565 526 569.5 494 c 128,-1,36
 574 462 574 462 576.5 413 c 128,-1,37
 579 364 579 364 579.5 335.5 c 128,-1,38
 580 307 580 307 580 260 c 2,39,-1
 580 247 l 2,40,41
 580 180 580 180 587 141 c 128,-1,42
 594 102 594 102 613.5 81.5 c 128,-1,43
 633 61 633 61 658.5 55 c 128,-1,44
 684 49 684 49 730 49 c 2,45,-1
 736 49 l 2,46,47
 774 49 774 49 790 35.5 c 128,-1,48
 806 22 806 22 806 -14 c 2,49,-1
 806 -62 l 2,50,51
 806 -119 806 -119 729 -119 c 2,52,-1
 685 -119 l 2,53,54
 601 -119 601 -119 547 -99.5 c 128,-1,55
 493 -80 493 -80 463.5 -35.5 c 128,-1,56
 434 9 434 9 423 66.5 c 128,-1,57
 412 124 412 124 412 212 c 2,58,-1
 412 232 l 2,59,60
 412 388 412 388 398 470.5 c 128,-1,61
 384 553 384 553 357.5 581 c 128,-1,62
 331 609 331 609 282 609 c 2,63,-1
 280 609 l 1,64,-1
 217 608 l 2,65,66
 163 608 163 608 144 627.5 c 128,-1,67
 125 647 125 647 125 712 c 128,-1,68
 125 777 125 777 144 796.5 c 128,-1,69
 163 816 163 816 217 816 c 2,70,-1
 280 816 l 1,71,-1
 284 816 l 2,72,73
 332 816 332 816 358 844 c 128,-1,74
 384 872 384 872 398 954.5 c 128,-1,75
 412 1037 412 1037 412 1192 c 2,0,1
EndSplineSet
EndChar

StartChar: bar
Encoding: 124 124 95
Width: 526
GlyphClass: 2
Flags: W
LayerCount: 2
Fore
SplineSet
238 -150 m 2,0,1
 161 -150 161 -150 161 -94 c 2,2,-1
 161 1499 l 2,3,4
 161 1555 161 1555 238 1555 c 2,5,-1
 288 1555 l 2,6,7
 365 1555 365 1555 365 1499 c 2,8,-1
 365 -94 l 2,9,10
 365 -150 365 -150 288 -150 c 2,11,-1
 238 -150 l 2,0,1
EndSplineSet
EndChar

StartChar: braceright
Encoding: 125 125 96
Width: 927
GlyphClass: 2
Flags: W
LayerCount: 2
Fore
SplineSet
515 232 m 2,0,1
 515 212 l 0,2,3
 515 124 515 124 504 66.5 c 128,-1,4
 493 9 493 9 463.5 -35.5 c 128,-1,5
 434 -80 434 -80 380 -99.5 c 128,-1,6
 326 -119 326 -119 242 -119 c 2,7,-1
 198 -119 l 2,8,9
 121 -119 121 -119 121 -62 c 2,10,-1
 121 -14 l 2,11,12
 121 22 121 22 137 35.5 c 128,-1,13
 153 49 153 49 191 49 c 2,14,-1
 197 49 l 2,15,16
 243 49 243 49 268.5 55 c 128,-1,17
 294 61 294 61 313.5 81.5 c 128,-1,18
 333 102 333 102 340 141 c 128,-1,19
 347 180 347 180 347 247 c 2,20,-1
 347 252 l 2,21,22
 347 309 347 309 347.5 341.5 c 128,-1,23
 348 374 348 374 351.5 432.5 c 128,-1,24
 355 491 355 491 363 528 c 128,-1,25
 371 565 371 565 384 605.5 c 128,-1,26
 397 646 397 646 419.5 669 c 128,-1,27
 442 692 442 692 472 699 c 0,28,29
 482 702 482 702 482 712 c 128,-1,30
 482 722 482 722 472 725 c 0,31,32
 446 731 446 731 426 750.5 c 128,-1,33
 406 770 406 770 393 794.5 c 128,-1,34
 380 819 380 819 371 859 c 128,-1,35
 362 899 362 899 357.5 930.5 c 128,-1,36
 353 962 353 962 350.5 1011 c 128,-1,37
 348 1060 348 1060 347.5 1088.5 c 128,-1,38
 347 1117 347 1117 347 1164 c 2,39,-1
 347 1177 l 2,40,41
 347 1244 347 1244 340 1283 c 128,-1,42
 333 1322 333 1322 313.5 1342.5 c 128,-1,43
 294 1363 294 1363 268.5 1369 c 128,-1,44
 243 1375 243 1375 197 1375 c 2,45,-1
 191 1375 l 2,46,47
 153 1375 153 1375 137 1388.5 c 128,-1,48
 121 1402 121 1402 121 1438 c 2,49,-1
 121 1487 l 2,50,51
 121 1543 121 1543 198 1543 c 2,52,-1
 242 1543 l 2,53,54
 326 1543 326 1543 380 1523.5 c 128,-1,55
 434 1504 434 1504 463.5 1459.5 c 128,-1,56
 493 1415 493 1415 504 1357.5 c 128,-1,57
 515 1300 515 1300 515 1212 c 2,58,-1
 515 1192 l 2,59,60
 515 1037 515 1037 529 954.5 c 128,-1,61
 543 872 543 872 569 844 c 128,-1,62
 595 816 595 816 643 816 c 2,63,-1
 710 816 l 2,64,65
 764 816 764 816 783 796.5 c 128,-1,66
 802 777 802 777 802 712 c 128,-1,67
 802 647 802 647 783 627.5 c 128,-1,68
 764 608 764 608 710 608 c 0,69,70
 647 608 647 608 647 609 c 1,71,-1
 645 609 l 2,72,73
 596 609 596 609 569.5 581 c 128,-1,74
 543 553 543 553 529 470.5 c 128,-1,75
 515 388 515 388 515 232 c 2,0,1
EndSplineSet
EndChar

StartChar: asciitilde
Encoding: 126 126 97
Width: 1394
GlyphClass: 2
Flags: W
LayerCount: 2
Fore
SplineSet
428 745 m 0,0,1
 202 745 202 745 122 988 c 0,2,3
 118 1000 118 1000 118 1012 c 0,4,5
 118 1035 118 1035 147 1049 c 2,6,-1
 219 1082 l 2,7,8
 231 1088 231 1088 244 1088 c 0,9,10
 274 1088 274 1088 284 1061 c 1,11,12
 316 995 316 995 351.5 963 c 128,-1,13
 387 931 387 931 432 931 c 0,14,15
 475 931 475 931 541.5 957.5 c 128,-1,16
 608 984 608 984 668 1015 c 128,-1,17
 728 1046 728 1046 803.5 1072.5 c 128,-1,18
 879 1099 879 1099 937 1099 c 0,19,20
 1052 1099 1052 1099 1134 1036 c 128,-1,21
 1216 973 1216 973 1261 876 c 0,22,23
 1267 861 1267 861 1267 850 c 0,24,25
 1267 843 1267 843 1263 835.5 c 128,-1,26
 1259 828 1259 828 1253.5 822 c 128,-1,27
 1248 816 1248 816 1239 808.5 c 128,-1,28
 1230 801 1230 801 1224.5 797.5 c 128,-1,29
 1219 794 1219 794 1210 788 c 128,-1,30
 1201 782 1201 782 1200 781 c 0,31,32
 1178 770 1178 770 1161 770 c 0,33,34
 1136 770 1136 770 1119 798 c 0,35,36
 1050 918 1050 918 963 918 c 0,37,38
 913 918 913 918 842.5 891 c 128,-1,39
 772 864 772 864 711 831.5 c 128,-1,40
 650 799 650 799 571 772 c 128,-1,41
 492 745 492 745 428 745 c 0,0,1
EndSplineSet
EndChar

StartChar: cent
Encoding: 162 162 99
Width: 1540
GlyphClass: 2
Flags: W
LayerCount: 2
Fore
SplineSet
766 114 m 1,0,-1
 766 897 l 1,1,2
 700 888 700 888 640.5 868.5 c 128,-1,3
 581 849 581 849 526.5 816 c 128,-1,4
 472 783 472 783 432.5 740 c 128,-1,5
 393 697 393 697 370 636 c 128,-1,6
 347 575 347 575 347 504 c 0,7,8
 347 423 347 423 379.5 354.5 c 128,-1,9
 412 286 412 286 470 238 c 128,-1,10
 528 190 528 190 603 158.5 c 128,-1,11
 678 127 678 127 766 114 c 1,0,-1
833 -204 m 2,12,13
 766 -204 766 -204 766 -145 c 2,14,-1
 766 -37 l 1,15,16
 671 -28 671 -28 583 -4 c 128,-1,17
 495 20 495 20 411 64 c 128,-1,18
 327 108 327 108 265 168 c 128,-1,19
 203 228 203 228 165.5 314.5 c 128,-1,20
 128 401 128 401 128 504 c 0,21,22
 128 610 128 610 165.5 698 c 128,-1,23
 203 786 203 786 264.5 846 c 128,-1,24
 326 906 326 906 410.5 950 c 128,-1,25
 495 994 495 994 583 1017 c 128,-1,26
 671 1040 671 1040 766 1049 c 1,27,-1
 766 1216 l 2,28,29
 766 1247 766 1247 782.5 1259 c 128,-1,30
 799 1271 799 1271 833 1271 c 2,31,-1
 858 1271 l 2,32,33
 892 1271 892 1271 908.5 1258 c 128,-1,34
 925 1245 925 1245 925 1214 c 2,35,-1
 925 1053 l 1,36,37
 1045 1047 1045 1047 1163 1016.5 c 128,-1,38
 1281 986 1281 986 1368 932 c 0,39,40
 1398 914 1398 914 1398 891 c 0,41,42
 1398 881 1398 881 1394 872 c 2,43,-1
 1368 813 l 2,44,45
 1357 787 1357 787 1339 787 c 0,46,47
 1327 787 1327 787 1294 806 c 0,48,49
 1137 892 1137 892 925 903 c 1,50,-1
 925 107 l 1,51,52
 1090 117 1090 117 1271 201 c 0,53,54
 1296 212 1296 212 1312 212 c 0,55,56
 1340 212 1340 212 1347 192 c 2,57,-1
 1350 182 l 2,58,59
 1354 172 1354 172 1357.5 161 c 128,-1,60
 1361 150 1361 150 1364 136.5 c 128,-1,61
 1367 123 1367 123 1367 115 c 0,62,63
 1367 83 1367 83 1323 62 c 0,64,65
 1242 22 1242 22 1133.5 -5.5 c 128,-1,66
 1025 -33 1025 -33 925 -40 c 1,67,-1
 925 -147 l 2,68,69
 925 -178 925 -178 908.5 -191 c 128,-1,70
 892 -204 892 -204 858 -204 c 2,71,-1
 833 -204 l 2,12,13
EndSplineSet
EndChar

StartChar: sterling
Encoding: 163 163 100
Width: 1713
GlyphClass: 2
Flags: W
LayerCount: 2
Fore
SplineSet
203 0 m 2,0,1
 171 0 171 0 158.5 14 c 128,-1,2
 146 28 146 28 146 61 c 2,3,-1
 146 91 l 2,4,5
 146 125 146 125 159 141.5 c 128,-1,6
 172 158 172 158 203 158 c 2,7,-1
 338 158 l 2,8,9
 359 158 359 158 364.5 168 c 128,-1,10
 370 178 370 178 370 211 c 2,11,-1
 370 650 l 2,12,13
 370 693 370 693 338 693 c 2,14,-1
 203 693 l 2,15,16
 171 693 171 693 158.5 706.5 c 128,-1,17
 146 720 146 720 146 753 c 2,18,-1
 146 782 l 2,19,20
 146 815 146 815 158.5 829 c 128,-1,21
 171 843 171 843 203 843 c 2,22,-1
 370 843 l 1,23,24
 368 1475 368 1475 991 1475 c 0,25,26
 1249 1475 1249 1475 1530 1393 c 1,27,28
 1583 1379 1583 1379 1583 1336 c 0,29,30
 1583 1328 1583 1328 1582 1323 c 2,31,-1
 1565 1271 l 2,32,33
 1556 1246 1556 1246 1547.5 1236.5 c 128,-1,34
 1539 1227 1539 1227 1521 1227 c 0,35,36
 1512 1227 1512 1227 1498 1230 c 0,37,38
 1493 1231 1493 1231 1430 1245.5 c 128,-1,39
 1367 1260 1367 1260 1302 1273.5 c 128,-1,40
 1237 1287 1237 1287 1150 1299 c 128,-1,41
 1063 1311 1063 1311 1000 1311 c 0,42,43
 773 1311 773 1311 679.5 1215.5 c 128,-1,44
 586 1120 586 1120 586 906 c 2,45,-1
 586 843 l 1,46,-1
 1004 843 l 2,47,48
 1036 843 1036 843 1048 829 c 128,-1,49
 1060 815 1060 815 1060 782 c 2,50,-1
 1060 753 l 2,51,52
 1060 720 1060 720 1048 706.5 c 128,-1,53
 1036 693 1036 693 1004 693 c 2,54,-1
 584 693 l 1,55,-1
 584 227 l 2,56,57
 584 181 584 181 595 169.5 c 128,-1,58
 606 158 606 158 658 158 c 2,59,-1
 1517 158 l 2,60,61
 1573 158 1573 158 1573 105 c 2,62,-1
 1573 40 l 2,63,64
 1573 16 1573 16 1559 8 c 128,-1,65
 1545 0 1545 0 1517 0 c 2,66,-1
 203 0 l 2,0,1
EndSplineSet
EndChar

StartChar: currency
Encoding: 164 164 101
Width: 1307
GlyphClass: 2
Flags: W
LayerCount: 2
Fore
SplineSet
653 426 m 128,-1,1
 558 426 558 426 491 447.5 c 128,-1,2
 424 469 424 469 355 515 c 1,3,-1
 324 484 l 2,4,5
 285 445 285 445 267 445 c 0,6,7
 253 445 253 445 242 457 c 2,8,-1
 210 489 l 2,9,10
 196 503 196 503 196 518 c 0,11,12
 196 537 196 537 233 574 c 2,13,-1
 258 599 l 1,14,15
 140 734 140 734 140 931 c 0,16,17
 140 1130 140 1130 260 1268 c 1,18,-1
 233 1295 l 2,19,20
 194 1334 194 1334 194 1352 c 0,21,22
 194 1365 194 1365 207 1377 c 2,23,-1
 239 1409 l 2,24,25
 253 1423 253 1423 268 1423 c 0,26,27
 287 1423 287 1423 324 1386 c 2,28,-1
 358 1352 l 1,29,30
 428 1397 428 1397 494 1418.5 c 128,-1,31
 560 1440 560 1440 653 1440 c 128,-1,32
 746 1440 746 1440 813.5 1418.5 c 128,-1,33
 881 1397 881 1397 950 1352 c 1,34,-1
 983 1385 l 2,35,36
 1021 1423 1021 1423 1040 1423 c 0,37,38
 1054 1423 1054 1423 1068 1409 c 2,39,-1
 1101 1377 l 2,40,41
 1113 1364 1113 1364 1113 1352 c 0,42,43
 1113 1334 1113 1334 1074 1295 c 2,44,-1
 1047 1268 l 1,45,46
 1167 1130 1167 1130 1167 931 c 0,47,48
 1167 736 1167 736 1050 599 c 1,49,-1
 1074 575 l 2,50,51
 1112 537 1112 537 1112 518 c 0,52,53
 1112 504 1112 504 1098 490 c 2,54,-1
 1066 457 l 1,55,56
 1052 445 1052 445 1041 445 c 0,57,58
 1021 445 1021 445 984 484 c 1,59,-1
 953 515 l 1,60,61
 883 469 883 469 815.5 447.5 c 128,-1,0
 748 426 748 426 653 426 c 128,-1,1
653 529 m 128,-1,63
 757 529 757 529 836.5 565 c 128,-1,64
 916 601 916 601 961.5 660.5 c 128,-1,65
 1007 720 1007 720 1029 788.5 c 128,-1,66
 1051 857 1051 857 1051 931 c 0,67,68
 1051 1008 1051 1008 1029 1077.5 c 128,-1,69
 1007 1147 1007 1147 961.5 1206.5 c 128,-1,70
 916 1266 916 1266 836.5 1301 c 128,-1,71
 757 1336 757 1336 653 1336 c 128,-1,72
 549 1336 549 1336 469.5 1301 c 128,-1,73
 390 1266 390 1266 344.5 1206.5 c 128,-1,74
 299 1147 299 1147 277 1077.5 c 128,-1,75
 255 1008 255 1008 255 931 c 0,76,77
 255 857 255 857 277 788.5 c 128,-1,78
 299 720 299 720 344.5 660.5 c 128,-1,79
 390 601 390 601 469.5 565 c 128,-1,62
 549 529 549 529 653 529 c 128,-1,63
EndSplineSet
EndChar

StartChar: yen
Encoding: 165 165 102
Width: 1670
GlyphClass: 2
Flags: W
LayerCount: 2
Fore
SplineSet
793 0 m 2,0,1
 726 0 726 0 726 67 c 2,2,-1
 726 234 l 1,3,-1
 487 234 l 2,4,5
 456 234 456 234 448 245 c 128,-1,6
 440 256 440 256 440 290 c 2,7,-1
 440 321 l 2,8,9
 440 355 440 355 448 366.5 c 128,-1,10
 456 378 456 378 487 378 c 2,11,-1
 726 378 l 1,12,-1
 729 573 l 1,13,-1
 423 573 l 2,14,15
 392 573 392 573 384 584 c 128,-1,16
 376 595 376 595 376 629 c 2,17,-1
 376 660 l 2,18,19
 376 694 376 694 384 705.5 c 128,-1,20
 392 717 392 717 423 717 c 2,21,-1
 728 717 l 1,22,-1
 110 1371 l 1,23,24
 77 1400 77 1400 77 1421 c 0,25,26
 77 1438 77 1438 110 1438 c 2,27,-1
 241 1438 l 2,28,29
 306 1438 306 1438 375 1371 c 1,30,-1
 837 882 l 1,31,-1
 1292 1371 l 2,32,33
 1354 1438 1354 1438 1419 1438 c 2,34,-1
 1554 1438 l 2,35,36
 1588 1438 1588 1438 1588 1418 c 0,37,38
 1588 1395 1588 1395 1560 1371 c 1,39,-1
 935 717 l 1,40,-1
 1241 717 l 2,41,42
 1272 717 1272 717 1280 705.5 c 128,-1,43
 1288 694 1288 694 1288 660 c 2,44,-1
 1288 629 l 2,45,46
 1288 595 1288 595 1280 584 c 128,-1,47
 1272 573 1272 573 1241 573 c 2,48,-1
 939 573 l 1,49,-1
 941 378 l 1,50,-1
 1209 378 l 2,51,52
 1240 378 1240 378 1248 366.5 c 128,-1,53
 1256 355 1256 355 1256 321 c 2,54,-1
 1256 290 l 2,55,56
 1256 256 1256 256 1248 245 c 128,-1,57
 1240 234 1240 234 1209 234 c 2,58,-1
 941 234 l 1,59,-1
 941 67 l 2,60,61
 941 0 941 0 874 0 c 2,62,-1
 793 0 l 2,0,1
EndSplineSet
EndChar

StartChar: brokenbar
Encoding: 166 166 103
Width: 509
GlyphClass: 2
Flags: W
LayerCount: 2
Fore
SplineSet
217 -150 m 2,0,1
 160 -150 160 -150 160 -73 c 2,2,-1
 160 509 l 2,3,4
 160 586 160 586 217 586 c 2,5,-1
 292 586 l 2,6,7
 349 586 349 586 349 509 c 2,8,-1
 349 -73 l 2,9,10
 349 -150 349 -150 292 -150 c 2,11,-1
 217 -150 l 2,0,1
217 819 m 2,12,13
 160 819 160 819 160 896 c 2,14,-1
 160 1478 l 2,15,16
 160 1555 160 1555 217 1555 c 2,17,-1
 292 1555 l 2,18,19
 349 1555 349 1555 349 1478 c 2,20,-1
 349 896 l 2,21,22
 349 819 349 819 292 819 c 2,23,-1
 217 819 l 2,12,13
EndSplineSet
EndChar

StartChar: section
Encoding: 167 167 104
Width: 1574
GlyphClass: 2
Flags: W
LayerCount: 2
Fore
SplineSet
1195 574 m 1,0,1
 1239 693 1239 693 1239 719 c 0,2,3
 1239 752 1239 752 1231.5 771.5 c 128,-1,4
 1224 791 1224 791 1198.5 810 c 128,-1,5
 1173 829 1173 829 1122 840 c 128,-1,6
 1071 851 1071 851 985.5 859.5 c 128,-1,7
 900 868 900 868 771 873 c 0,8,9
 537 881 537 881 408 910 c 1,10,11
 357 839 357 839 357 755 c 0,12,13
 357 710 357 710 380 689 c 128,-1,14
 403 668 403 668 500 650.5 c 128,-1,15
 597 633 597 633 810 619 c 0,16,17
 1097 599 1097 599 1195 574 c 1,0,1
159 122 m 0,18,19
 159 158 159 158 183 185 c 128,-1,20
 207 212 207 212 237 212 c 0,21,22
 252 212 252 212 265 207 c 0,23,24
 396 157 396 157 522 135.5 c 128,-1,25
 648 114 648 114 820 114 c 0,26,27
 945 114 945 114 1029 126 c 128,-1,28
 1113 138 1113 138 1159.5 162.5 c 128,-1,29
 1206 187 1206 187 1224.5 219 c 128,-1,30
 1243 251 1243 251 1243 297 c 0,31,32
 1243 338 1243 338 1230 360.5 c 128,-1,33
 1217 383 1217 383 1169.5 403.5 c 128,-1,34
 1122 424 1122 424 1027 434.5 c 128,-1,35
 932 445 932 445 771 451 c 0,36,37
 671 455 671 455 596.5 461.5 c 128,-1,38
 522 468 522 468 448 480.5 c 128,-1,39
 374 493 374 493 324 513.5 c 128,-1,40
 274 534 274 534 234 564 c 128,-1,41
 194 594 194 594 175 637 c 128,-1,42
 156 680 156 680 156 736 c 0,43,44
 156 797 156 797 190.5 854 c 128,-1,45
 225 911 225 911 283 954 c 1,46,47
 156 1020 156 1020 156 1158 c 0,48,49
 156 1220 156 1220 179 1269.5 c 128,-1,50
 202 1319 202 1319 237.5 1352 c 128,-1,51
 273 1385 273 1385 327 1408.5 c 128,-1,52
 381 1432 381 1432 432.5 1445 c 128,-1,53
 484 1458 484 1458 551 1465 c 128,-1,54
 618 1472 618 1472 666 1474 c 128,-1,55
 714 1476 714 1476 774 1476 c 0,56,57
 934 1476 934 1476 1052 1455.5 c 128,-1,58
 1170 1435 1170 1435 1284 1393 c 0,59,60
 1325 1377 1325 1377 1325 1337 c 0,61,62
 1325 1324 1325 1324 1320 1314 c 2,63,-1
 1308 1288 l 2,64,65
 1293 1256 1293 1256 1247 1256 c 0,66,67
 1226 1256 1226 1256 1206 1262 c 0,68,69
 1137 1283 1137 1283 1102 1292.5 c 128,-1,70
 1067 1302 1067 1302 991 1312 c 128,-1,71
 915 1322 915 1322 825 1322 c 0,72,73
 581 1322 581 1322 468.5 1288.5 c 128,-1,74
 356 1255 356 1255 356 1178 c 0,75,76
 356 1126 356 1126 376 1107 c 0,77,78
 408 1076 408 1076 554 1061 c 0,79,80
 632 1053 632 1053 810 1041 c 0,81,82
 880 1036 880 1036 924 1032.5 c 128,-1,83
 968 1029 968 1029 1025.5 1023.5 c 128,-1,84
 1083 1018 1083 1018 1118 1011.5 c 128,-1,85
 1153 1005 1153 1005 1197 995 c 128,-1,86
 1241 985 1241 985 1267 973 c 128,-1,87
 1293 961 1293 961 1322.5 944.5 c 128,-1,88
 1352 928 1352 928 1368.5 907 c 128,-1,89
 1385 886 1385 886 1399.5 860 c 128,-1,90
 1414 834 1414 834 1420 801.5 c 128,-1,91
 1426 769 1426 769 1426 730 c 0,92,93
 1426 630 1426 630 1330 518 c 1,94,95
 1426 451 1426 451 1426 308 c 0,96,97
 1426 242 1426 242 1409.5 191 c 128,-1,98
 1393 140 1393 140 1350.5 95 c 128,-1,99
 1308 50 1308 50 1238.5 21.5 c 128,-1,100
 1169 -7 1169 -7 1059.5 -23.5 c 128,-1,101
 950 -40 950 -40 803 -40 c 0,102,103
 443 -40 443 -40 200 60 c 0,104,105
 159 76 159 76 159 122 c 0,18,19
EndSplineSet
EndChar

StartChar: dieresis
Encoding: 168 168 105
Width: 1181
GlyphClass: 2
Flags: W
LayerCount: 2
Fore
SplineSet
228 1184 m 2,0,1
 196 1184 196 1184 173.5 1206 c 128,-1,2
 151 1228 151 1228 151 1260 c 2,3,-1
 151 1356 l 2,4,5
 151 1388 151 1388 173.5 1410 c 128,-1,6
 196 1432 196 1432 228 1432 c 2,7,-1
 355 1432 l 2,8,9
 387 1432 387 1432 409.5 1410 c 128,-1,10
 432 1388 432 1388 432 1356 c 2,11,-1
 432 1260 l 2,12,13
 432 1228 432 1228 409.5 1206 c 128,-1,14
 387 1184 387 1184 355 1184 c 2,15,-1
 228 1184 l 2,0,1
827 1184 m 2,16,17
 795 1184 795 1184 772.5 1206 c 128,-1,18
 750 1228 750 1228 750 1260 c 2,19,-1
 750 1356 l 2,20,21
 750 1388 750 1388 772.5 1410 c 128,-1,22
 795 1432 795 1432 827 1432 c 2,23,-1
 954 1432 l 2,24,25
 986 1432 986 1432 1008.5 1410 c 128,-1,26
 1031 1388 1031 1388 1031 1356 c 2,27,-1
 1031 1260 l 2,28,29
 1031 1228 1031 1228 1008.5 1206 c 128,-1,30
 986 1184 986 1184 954 1184 c 2,31,-1
 827 1184 l 2,16,17
EndSplineSet
EndChar

StartChar: copyright
Encoding: 169 169 106
Width: 1899
GlyphClass: 2
Flags: W
LayerCount: 2
Fore
SplineSet
1249 530 m 0,0,1
 1268 530 1268 530 1282.5 498 c 128,-1,2
 1297 466 1297 466 1297 438 c 0,3,4
 1297 401 1297 401 1270 389 c 0,5,6
 1132 325 1132 325 969 325 c 0,7,8
 879 325 879 325 798.5 348.5 c 128,-1,9
 718 372 718 372 652 419 c 128,-1,10
 586 466 586 466 547 545 c 128,-1,11
 508 624 508 624 508 726 c 0,12,13
 508 808 508 808 535.5 876 c 128,-1,14
 563 944 563 944 608 989 c 128,-1,15
 653 1034 653 1034 712 1064.5 c 128,-1,16
 771 1095 771 1095 831 1108.5 c 128,-1,17
 891 1122 891 1122 952 1122 c 0,18,19
 1133 1122 1133 1122 1265 1048 c 0,20,21
 1292 1034 1292 1034 1292 997 c 0,22,23
 1292 966 1292 966 1277 936.5 c 128,-1,24
 1262 907 1262 907 1241 907 c 0,25,26
 1237 907 1237 907 1227 911 c 0,27,28
 1098 967 1098 967 982 967 c 0,29,30
 897 967 897 967 831.5 942.5 c 128,-1,31
 766 918 766 918 724.5 862 c 128,-1,32
 683 806 683 806 683 725 c 0,33,34
 683 597 683 597 765 535.5 c 128,-1,35
 847 474 847 474 976 474 c 0,36,37
 1098 474 1098 474 1235 526 c 1,38,39
 1242 530 1242 530 1249 530 c 0,0,1
952 80 m 128,-1,41
 1091 80 1091 80 1205 118 c 128,-1,42
 1319 156 1319 156 1393.5 218 c 128,-1,43
 1468 280 1468 280 1518.5 363.5 c 128,-1,44
 1569 447 1569 447 1591 534 c 128,-1,45
 1613 621 1613 621 1613 713 c 0,46,47
 1613 808 1613 808 1591 897 c 128,-1,48
 1569 986 1569 986 1518.5 1069.5 c 128,-1,49
 1468 1153 1468 1153 1393 1214.5 c 128,-1,50
 1318 1276 1318 1276 1204.5 1313 c 128,-1,51
 1091 1350 1091 1350 952 1350 c 0,52,53
 812 1350 812 1350 698.5 1313 c 128,-1,54
 585 1276 585 1276 510 1214.5 c 128,-1,55
 435 1153 435 1153 384.5 1069.5 c 128,-1,56
 334 986 334 986 312 897 c 128,-1,57
 290 808 290 808 290 713 c 0,58,59
 290 621 290 621 312 534 c 128,-1,60
 334 447 334 447 385 363.5 c 128,-1,61
 436 280 436 280 510.5 218 c 128,-1,62
 585 156 585 156 699 118 c 128,-1,40
 813 80 813 80 952 80 c 128,-1,41
949 -41 m 128,-1,64
 751 -41 751 -41 593 21 c 128,-1,65
 435 83 435 83 336 189 c 128,-1,66
 237 295 237 295 185 430 c 128,-1,67
 133 565 133 565 133 717 c 128,-1,68
 133 869 133 869 185 1004 c 128,-1,69
 237 1139 237 1139 336 1245 c 128,-1,70
 435 1351 435 1351 593 1413 c 128,-1,71
 751 1475 751 1475 949 1475 c 128,-1,72
 1147 1475 1147 1475 1305 1413 c 128,-1,73
 1463 1351 1463 1351 1562 1245 c 128,-1,74
 1661 1139 1661 1139 1713 1004 c 128,-1,75
 1765 869 1765 869 1765 717 c 128,-1,76
 1765 565 1765 565 1713 430 c 128,-1,77
 1661 295 1661 295 1562 189 c 128,-1,78
 1463 83 1463 83 1305 21 c 128,-1,63
 1147 -41 1147 -41 949 -41 c 128,-1,64
EndSplineSet
EndChar

StartChar: ordfeminine
Encoding: 170 170 107
Width: 1671
GlyphClass: 2
Flags: W
LayerCount: 2
Fore
SplineSet
518 656 m 0,0,1
 622 656 622 656 710.5 674.5 c 128,-1,2
 799 693 799 693 871 730.5 c 128,-1,3
 943 768 943 768 984.5 833.5 c 128,-1,4
 1026 899 1026 899 1026 986 c 0,5,6
 1026 993 1026 993 1025.5 995.5 c 128,-1,7
 1025 998 1025 998 1023.5 999.5 c 128,-1,8
 1022 1001 1022 1001 1017 1001 c 0,9,10
 1014 1001 1014 1001 934.5 996.5 c 128,-1,11
 855 992 855 992 852 991 c 0,12,13
 596 974 596 974 454 947 c 128,-1,14
 312 920 312 920 258.5 882.5 c 128,-1,15
 205 845 205 845 207 785 c 0,16,17
 208 742 208 742 235.5 714.5 c 128,-1,18
 263 687 263 687 332.5 671.5 c 128,-1,19
 402 656 402 656 518 656 c 0,0,1
508 534 m 0,20,21
 11 534 11 534 11 778 c 0,22,23
 11 853 11 853 67 911.5 c 128,-1,24
 123 970 123 970 212 1003 c 128,-1,25
 301 1036 301 1036 409.5 1058.5 c 128,-1,26
 518 1081 518 1081 626 1090 c 128,-1,27
 734 1099 734 1099 823 1104 c 128,-1,28
 912 1109 912 1109 968 1112 c 128,-1,29
 1024 1115 1024 1115 1024 1120 c 2,30,-1
 1024 1133 l 2,31,32
 1024 1205 1024 1205 995 1248.5 c 128,-1,33
 966 1292 966 1292 881.5 1318 c 128,-1,34
 797 1344 797 1344 647 1344 c 0,35,36
 585 1344 585 1344 520 1340.5 c 128,-1,37
 455 1337 455 1337 359.5 1316 c 128,-1,38
 264 1295 264 1295 228 1258 c 0,39,40
 183 1211 183 1211 163 1211 c 1,41,-1
 147 1213 l 1,42,-1
 72 1227 l 1,43,44
 61 1228 61 1228 52.5 1238 c 128,-1,45
 44 1248 44 1248 44 1259 c 0,46,47
 44 1280 44 1280 54 1297 c 1,48,49
 115 1389 115 1389 252 1431.5 c 128,-1,50
 389 1474 389 1474 646 1474 c 0,51,52
 809 1474 809 1474 919 1449.5 c 128,-1,53
 1029 1425 1029 1425 1093.5 1371.5 c 128,-1,54
 1158 1318 1158 1318 1185 1243.5 c 128,-1,55
 1212 1169 1212 1169 1212 1059 c 2,56,-1
 1212 650 l 2,57,58
 1212 569 1212 569 1168 569 c 2,59,-1
 1146 569 l 2,60,61
 1122 569 1122 569 1110 593.5 c 128,-1,62
 1098 618 1098 618 1089 674 c 1,63,64
 1078 765 1078 765 1076 771 c 0,65,66
 1070 804 1070 804 1067 804 c 0,67,68
 1065 804 1065 804 1056 776 c 1,69,70
 1006 667 1006 667 868.5 600.5 c 128,-1,71
 731 534 731 534 508 534 c 0,20,21
EndSplineSet
EndChar

StartChar: guillemotleft
Encoding: 171 171 108
Width: 1344
GlyphClass: 2
Flags: W
LayerCount: 2
Fore
SplineSet
651 251 m 0,0,1
 648 251 648 251 633 256 c 1,2,-1
 182 597 l 2,3,4
 181 598 181 598 169.5 607 c 128,-1,5
 158 616 158 616 156 617.5 c 128,-1,6
 154 619 154 619 146 626.5 c 128,-1,7
 138 634 138 634 136 638 c 128,-1,8
 134 642 134 642 129.5 649 c 128,-1,9
 125 656 125 656 124 663 c 128,-1,10
 123 670 123 670 123 679 c 2,11,-1
 123 736 l 2,12,13
 123 755 123 755 133 771 c 128,-1,14
 143 787 143 787 150.5 793 c 128,-1,15
 158 799 158 799 183 817 c 2,16,-1
 633 1145 l 1,17,18
 648 1148 648 1148 650 1148 c 0,19,20
 667 1148 667 1148 679.5 1136.5 c 128,-1,21
 692 1125 692 1125 692 1107 c 2,22,-1
 692 1033 l 2,23,24
 692 1014 692 1014 682 998.5 c 128,-1,25
 672 983 672 983 662.5 976 c 128,-1,26
 653 969 653 969 630 955 c 1,27,-1
 309 722 l 1,28,29
 300 718 300 718 300 709 c 128,-1,30
 300 700 300 700 309 696 c 1,31,-1
 630 461 l 1,32,33
 651 449 651 449 662 440.5 c 128,-1,34
 673 432 673 432 682.5 416.5 c 128,-1,35
 692 401 692 401 692 382 c 2,36,-1
 692 292 l 2,37,38
 692 275 692 275 679.5 263 c 128,-1,39
 667 251 667 251 651 251 c 0,0,1
1160 251 m 0,40,41
 1158 251 1158 251 1141 256 c 1,42,-1
 690 597 l 2,43,44
 687 599 687 599 677 607 c 128,-1,45
 667 615 667 615 664.5 617.5 c 128,-1,46
 662 620 662 620 654.5 626.5 c 128,-1,47
 647 633 647 633 644.5 637.5 c 128,-1,48
 642 642 642 642 638.5 649 c 128,-1,49
 635 656 635 656 633.5 663 c 128,-1,50
 632 670 632 670 632 679 c 2,51,-1
 632 736 l 2,52,53
 632 755 632 755 642 771 c 128,-1,54
 652 787 652 787 659.5 793 c 128,-1,55
 667 799 667 799 692 817 c 2,56,-1
 1140 1145 l 1,57,58
 1142 1145 1142 1145 1149 1146.5 c 128,-1,59
 1156 1148 1156 1148 1159 1148 c 0,60,61
 1175 1148 1175 1148 1187.5 1136.5 c 128,-1,62
 1200 1125 1200 1125 1200 1107 c 2,63,-1
 1200 1033 l 2,64,65
 1200 1014 1200 1014 1190 998.5 c 128,-1,66
 1180 983 1180 983 1170.5 976 c 128,-1,67
 1161 969 1161 969 1138 955 c 1,68,-1
 818 722 l 1,69,70
 809 718 809 718 809 709 c 128,-1,71
 809 700 809 700 818 696 c 1,72,-1
 1138 461 l 1,73,74
 1159 449 1159 449 1170 440.5 c 128,-1,75
 1181 432 1181 432 1190.5 416.5 c 128,-1,76
 1200 401 1200 401 1200 382 c 2,77,-1
 1200 292 l 2,78,79
 1200 275 1200 275 1188 263 c 128,-1,80
 1176 251 1176 251 1160 251 c 0,40,41
EndSplineSet
EndChar

StartChar: logicalnot
Encoding: 172 172 109
Width: 1254
GlyphClass: 2
Flags: W
LayerCount: 2
Fore
SplineSet
951 241 m 2,0,1
 894 241 894 241 894 318 c 2,2,-1
 894 581 l 2,3,4
 894 596 894 596 883 607 c 128,-1,5
 872 618 872 618 857 618 c 2,6,-1
 181 618 l 2,7,8
 149 618 149 618 137 630.5 c 128,-1,9
 125 643 125 643 125 675 c 2,10,-1
 125 736 l 2,11,12
 125 768 125 768 137 780 c 128,-1,13
 149 792 149 792 181 792 c 2,14,-1
 1039 792 l 2,15,16
 1072 792 1072 792 1094 774 c 128,-1,17
 1116 756 1116 756 1116 725 c 2,18,-1
 1116 318 l 2,19,20
 1116 241 1116 241 1059 241 c 2,21,-1
 951 241 l 2,0,1
EndSplineSet
EndChar

StartChar: uni00AD
Encoding: 173 173 110
Width: 1024
GlyphClass: 2
Flags: W
LayerCount: 2
Fore
SplineSet
127 449 m 2,0,1
 102 449 102 449 84.5 473.5 c 128,-1,2
 67 498 67 498 67 532 c 2,3,-1
 67 640 l 2,4,5
 67 669 67 669 84.5 689 c 128,-1,6
 102 709 102 709 127 709 c 2,7,-1
 896 709 l 2,8,9
 917 709 917 709 931.5 688 c 128,-1,10
 946 667 946 667 946 638 c 2,11,-1
 946 526 l 2,12,13
 946 494 946 494 931.5 471.5 c 128,-1,14
 917 449 917 449 896 449 c 2,15,-1
 127 449 l 2,0,1
EndSplineSet
EndChar

StartChar: registered
Encoding: 174 174 111
Width: 1899
GlyphClass: 2
Flags: W
LayerCount: 2
Fore
SplineSet
599 387 m 2,0,1
 586 387 586 387 576.5 397.5 c 128,-1,2
 567 408 567 408 567 422 c 2,3,-1
 567 1014 l 2,4,5
 567 1029 567 1029 576 1039 c 128,-1,6
 585 1049 585 1049 599 1049 c 2,7,-1
 991 1049 l 2,8,9
 1049 1049 1049 1049 1079.5 1048.5 c 128,-1,10
 1110 1048 1110 1048 1157 1044 c 128,-1,11
 1204 1040 1204 1040 1229 1033 c 128,-1,12
 1254 1026 1254 1026 1285 1011.5 c 128,-1,13
 1316 997 1316 997 1331 976.5 c 128,-1,14
 1346 956 1346 956 1357 925 c 128,-1,15
 1368 894 1368 894 1368 853 c 0,16,17
 1368 784 1368 784 1329.5 743.5 c 128,-1,18
 1291 703 1291 703 1230 692 c 0,19,20
 1229 692 1229 692 1229 690 c 128,-1,21
 1229 688 1229 688 1230 688 c 0,22,23
 1291 674 1291 674 1319 620.5 c 128,-1,24
 1347 567 1347 567 1356 472 c 0,25,26
 1357 461 1357 461 1359 446.5 c 128,-1,27
 1361 432 1361 432 1362.5 422.5 c 128,-1,28
 1364 413 1364 413 1364 409 c 0,29,30
 1364 387 1364 387 1347 387 c 2,31,-1
 1245 387 l 2,32,33
 1225 387 1225 387 1216.5 393.5 c 128,-1,34
 1208 400 1208 400 1204 418 c 0,35,36
 1201 429 1201 429 1192 477.5 c 128,-1,37
 1183 526 1183 526 1173 560.5 c 128,-1,38
 1163 595 1163 595 1148 616 c 1,39,40
 1133 639 1133 639 1117 644 c 128,-1,41
 1101 649 1101 649 1054 649 c 2,42,-1
 752 649 l 2,43,44
 746 649 746 649 741 643.5 c 128,-1,45
 736 638 736 638 736 631 c 2,46,-1
 736 422 l 2,47,48
 736 408 736 408 726.5 397.5 c 128,-1,49
 717 387 717 387 704 387 c 2,50,-1
 599 387 l 2,0,1
752 753 m 2,51,-1
 1120 753 l 2,52,53
 1208 753 1208 753 1208 844 c 0,54,55
 1208 870 1208 870 1200 887.5 c 128,-1,56
 1192 905 1192 905 1180.5 914.5 c 128,-1,57
 1169 924 1169 924 1145.5 929 c 128,-1,58
 1122 934 1122 934 1101 935 c 128,-1,59
 1080 936 1080 936 1043 936 c 2,60,-1
 752 936 l 2,61,62
 746 936 746 936 741 931 c 128,-1,63
 736 926 736 926 736 919 c 2,64,-1
 736 770 l 2,65,66
 736 763 736 763 741 758 c 128,-1,67
 746 753 746 753 752 753 c 2,51,-1
952 80 m 128,-1,69
 1091 80 1091 80 1205 118 c 128,-1,70
 1319 156 1319 156 1393.5 218 c 128,-1,71
 1468 280 1468 280 1518.5 363.5 c 128,-1,72
 1569 447 1569 447 1591 534 c 128,-1,73
 1613 621 1613 621 1613 713 c 0,74,75
 1613 808 1613 808 1591 897 c 128,-1,76
 1569 986 1569 986 1518.5 1069.5 c 128,-1,77
 1468 1153 1468 1153 1393 1214.5 c 128,-1,78
 1318 1276 1318 1276 1204.5 1313 c 128,-1,79
 1091 1350 1091 1350 952 1350 c 0,80,81
 812 1350 812 1350 698.5 1313 c 128,-1,82
 585 1276 585 1276 510 1214.5 c 128,-1,83
 435 1153 435 1153 384.5 1069.5 c 128,-1,84
 334 986 334 986 312 897 c 128,-1,85
 290 808 290 808 290 713 c 0,86,87
 290 621 290 621 312 534 c 128,-1,88
 334 447 334 447 385 363.5 c 128,-1,89
 436 280 436 280 510.5 218 c 128,-1,90
 585 156 585 156 699 118 c 128,-1,68
 813 80 813 80 952 80 c 128,-1,69
949 -41 m 128,-1,92
 751 -41 751 -41 593 21 c 128,-1,93
 435 83 435 83 336 189 c 128,-1,94
 237 295 237 295 185 430 c 128,-1,95
 133 565 133 565 133 717 c 128,-1,96
 133 869 133 869 185 1004 c 128,-1,97
 237 1139 237 1139 336 1245 c 128,-1,98
 435 1351 435 1351 593 1413 c 128,-1,99
 751 1475 751 1475 949 1475 c 128,-1,100
 1147 1475 1147 1475 1305 1413 c 128,-1,101
 1463 1351 1463 1351 1562 1245 c 128,-1,102
 1661 1139 1661 1139 1713 1004 c 128,-1,103
 1765 869 1765 869 1765 717 c 128,-1,104
 1765 565 1765 565 1713 430 c 128,-1,105
 1661 295 1661 295 1562 189 c 128,-1,106
 1463 83 1463 83 1305 21 c 128,-1,91
 1147 -41 1147 -41 949 -41 c 128,-1,92
EndSplineSet
EndChar

StartChar: macron
Encoding: 175 175 112
Width: 1050
GlyphClass: 2
Flags: W
LayerCount: 2
Fore
SplineSet
183 694 m 2,0,1
 152 694 152 694 139.5 710.5 c 128,-1,2
 127 727 127 727 127 761 c 2,3,-1
 127 803 l 2,4,5
 127 837 127 837 139.5 853.5 c 128,-1,6
 152 870 152 870 183 870 c 2,7,-1
 870 870 l 2,8,9
 901 870 901 870 914 853.5 c 128,-1,10
 927 837 927 837 927 803 c 2,11,-1
 927 761 l 2,12,13
 927 727 927 727 914 710.5 c 128,-1,14
 901 694 901 694 870 694 c 2,15,-1
 183 694 l 2,0,1
EndSplineSet
EndChar

StartChar: degree
Encoding: 176 176 113
Width: 1345
GlyphClass: 2
Flags: W
LayerCount: 2
Fore
SplineSet
675 108 m 128,-1,1
 759 108 759 108 827.5 132 c 128,-1,2
 896 156 896 156 941 195.5 c 128,-1,3
 986 235 986 235 1016.5 288.5 c 128,-1,4
 1047 342 1047 342 1060 397.5 c 128,-1,5
 1073 453 1073 453 1073 511 c 0,6,7
 1073 588 1073 588 1051 657.5 c 128,-1,8
 1029 727 1029 727 983.5 786 c 128,-1,9
 938 845 938 845 858.5 880.5 c 128,-1,10
 779 916 779 916 675 916 c 128,-1,11
 571 916 571 916 491.5 880.5 c 128,-1,12
 412 845 412 845 366.5 786 c 128,-1,13
 321 727 321 727 299 657.5 c 128,-1,14
 277 588 277 588 277 511 c 0,15,16
 277 453 277 453 290 397.5 c 128,-1,17
 303 342 303 342 333.5 288.5 c 128,-1,18
 364 235 364 235 409 195.5 c 128,-1,19
 454 156 454 156 522.5 132 c 128,-1,0
 591 108 591 108 675 108 c 128,-1,1
673 -9 m 128,-1,21
 544 -9 544 -9 441 34 c 128,-1,22
 338 77 338 77 274 150 c 128,-1,23
 210 223 210 223 176 316.5 c 128,-1,24
 142 410 142 410 142 514 c 0,25,26
 142 619 142 619 176 712 c 128,-1,27
 210 805 210 805 274 878 c 128,-1,28
 338 951 338 951 441 994 c 128,-1,29
 544 1037 544 1037 673 1037 c 128,-1,30
 802 1037 802 1037 904.5 994 c 128,-1,31
 1007 951 1007 951 1071.5 878 c 128,-1,32
 1136 805 1136 805 1169.5 712 c 128,-1,33
 1203 619 1203 619 1203 514 c 128,-1,34
 1203 409 1203 409 1169.5 316 c 128,-1,35
 1136 223 1136 223 1071.5 150 c 128,-1,36
 1007 77 1007 77 904.5 34 c 128,-1,20
 802 -9 802 -9 673 -9 c 128,-1,21
EndSplineSet
EndChar

StartChar: plusminus
Encoding: 177 177 114
Width: 1217
GlyphClass: 2
Flags: W
LayerCount: 2
Fore
SplineSet
158 -36 m 2,0,1
 91 -36 91 -36 91 31 c 2,2,-1
 91 78 l 2,3,4
 91 145 91 145 158 145 c 2,5,-1
 1048 145 l 2,6,7
 1115 145 1115 145 1115 78 c 2,8,-1
 1115 31 l 2,9,10
 1115 -1 1115 -1 1097.5 -18.5 c 128,-1,11
 1080 -36 1080 -36 1048 -36 c 2,12,-1
 158 -36 l 2,0,1
570 224 m 2,13,14
 539 224 539 224 526.5 240.5 c 128,-1,15
 514 257 514 257 514 291 c 2,16,-1
 514 565 l 2,17,18
 514 602 514 602 487 602 c 2,19,-1
 186 602 l 2,20,21
 154 602 154 602 141.5 614.5 c 128,-1,22
 129 627 129 627 129 659 c 2,23,-1
 129 718 l 2,24,25
 129 750 129 750 141.5 762 c 128,-1,26
 154 774 154 774 186 774 c 2,27,-1
 487 774 l 2,28,29
 514 774 514 774 514 810 c 2,30,-1
 514 1096 l 2,31,32
 514 1130 514 1130 526.5 1146.5 c 128,-1,33
 539 1163 539 1163 570 1163 c 2,34,-1
 646 1163 l 2,35,36
 677 1163 677 1163 689.5 1146.5 c 128,-1,37
 702 1130 702 1130 702 1096 c 2,38,-1
 702 810 l 2,39,40
 702 774 702 774 729 774 c 2,41,-1
 1031 774 l 2,42,43
 1063 774 1063 774 1075 762 c 128,-1,44
 1087 750 1087 750 1087 718 c 2,45,-1
 1087 659 l 2,46,47
 1087 627 1087 627 1075 614.5 c 128,-1,48
 1063 602 1063 602 1031 602 c 2,49,-1
 729 602 l 2,50,51
 702 602 702 602 702 565 c 2,52,-1
 702 291 l 2,53,54
 702 257 702 257 689.5 240.5 c 128,-1,55
 677 224 677 224 646 224 c 2,56,-1
 570 224 l 2,13,14
EndSplineSet
EndChar

StartChar: uni00B2
Encoding: 178 178 115
Width: 1461
GlyphClass: 2
Flags: W
LayerCount: 2
Fore
SplineSet
172 421 m 2,0,1
 122 421 122 421 122 486 c 0,2,3
 122 506 122 506 126 529 c 0,4,5
 137 587 137 587 159.5 635.5 c 128,-1,6
 182 684 182 684 207 720.5 c 128,-1,7
 232 757 232 757 272 787.5 c 128,-1,8
 312 818 312 818 345 838.5 c 128,-1,9
 378 859 378 859 430.5 876 c 128,-1,10
 483 893 483 893 518.5 902.5 c 128,-1,11
 554 912 554 912 614 921.5 c 128,-1,12
 674 931 674 931 706.5 934.5 c 128,-1,13
 739 938 739 938 800 944 c 0,14,15
 869 951 869 951 903 955.5 c 128,-1,16
 937 960 937 960 991.5 969.5 c 128,-1,17
 1046 979 1046 979 1073 991.5 c 128,-1,18
 1100 1004 1100 1004 1130 1024 c 128,-1,19
 1160 1044 1160 1044 1172.5 1072.5 c 128,-1,20
 1185 1101 1185 1101 1185 1139 c 0,21,22
 1185 1249 1185 1249 1081 1302 c 128,-1,23
 977 1355 977 1355 750 1355 c 0,24,25
 632 1355 632 1355 504.5 1332.5 c 128,-1,26
 377 1310 377 1310 307.5 1289 c 128,-1,27
 238 1268 238 1268 235 1263 c 0,28,29
 234 1262 234 1262 234 1261 c 0,30,31
 234 1259 234 1259 227 1259 c 0,32,33
 192 1259 192 1259 188 1283 c 1,34,35
 166 1331 166 1331 166 1337 c 0,36,37
 167 1370 167 1370 194 1383 c 1,38,39
 292 1416 292 1416 439 1445.5 c 128,-1,40
 586 1475 586 1475 740 1475 c 0,41,42
 881 1475 881 1475 987.5 1457.5 c 128,-1,43
 1094 1440 1094 1440 1174 1401 c 128,-1,44
 1254 1362 1254 1362 1295 1296 c 128,-1,45
 1336 1230 1336 1230 1336 1137 c 0,46,47
 1336 1094 1336 1094 1326.5 1058.5 c 128,-1,48
 1317 1023 1317 1023 1303 996 c 128,-1,49
 1289 969 1289 969 1262 946 c 128,-1,50
 1235 923 1235 923 1212.5 908 c 128,-1,51
 1190 893 1190 893 1149 880 c 128,-1,52
 1108 867 1108 867 1080.5 859.5 c 128,-1,53
 1053 852 1053 852 1002 844.5 c 128,-1,54
 951 837 951 837 922.5 833.5 c 128,-1,55
 894 830 894 830 838 824 c 0,56,57
 771 817 771 817 737 813 c 128,-1,58
 703 809 703 809 643 798.5 c 128,-1,59
 583 788 583 788 549 777 c 128,-1,60
 515 766 515 766 470 746.5 c 128,-1,61
 425 727 425 727 398.5 702.5 c 128,-1,62
 372 678 372 678 347.5 642.5 c 128,-1,63
 323 607 323 607 312 563 c 1,64,65
 312 551 312 551 318 545 c 128,-1,66
 324 539 324 539 329.5 538 c 128,-1,67
 335 537 335 537 345 537 c 2,68,-1
 1283 537 l 2,69,70
 1292 537 1292 537 1297.5 535.5 c 128,-1,71
 1303 534 1303 534 1306.5 531 c 128,-1,72
 1310 528 1310 528 1312 522.5 c 128,-1,73
 1314 517 1314 517 1314.5 511 c 128,-1,74
 1315 505 1315 505 1315 495 c 2,75,-1
 1315 455 l 2,76,77
 1315 439 1315 439 1311 432 c 128,-1,78
 1307 425 1307 425 1300.5 423 c 128,-1,79
 1294 421 1294 421 1279 421 c 2,80,-1
 172 421 l 2,0,1
EndSplineSet
EndChar

StartChar: uni00B3
Encoding: 179 179 116
Width: 1472
GlyphClass: 2
Flags: W
LayerCount: 2
Fore
SplineSet
783 1355 m 0,0,1
 721 1355 721 1355 650 1350 c 128,-1,2
 579 1345 579 1345 521.5 1338 c 128,-1,3
 464 1331 464 1331 403.5 1321.5 c 128,-1,4
 343 1312 343 1312 306.5 1305.5 c 128,-1,5
 270 1299 270 1299 236 1292 c 2,6,-1
 202 1285 l 2,7,8
 196 1283 196 1283 185 1283 c 0,9,10
 153 1283 153 1283 149 1314 c 1,11,-1
 142 1352 l 2,12,13
 141 1355 141 1355 141 1361 c 0,14,15
 141 1391 141 1391 179 1401 c 1,16,17
 246 1421 246 1421 452.5 1449 c 128,-1,18
 659 1477 659 1477 779 1477 c 0,19,20
 904 1477 904 1477 998.5 1461.5 c 128,-1,21
 1093 1446 1093 1446 1151.5 1419.5 c 128,-1,22
 1210 1393 1210 1393 1246.5 1353.5 c 128,-1,23
 1283 1314 1283 1314 1296.5 1271 c 128,-1,24
 1310 1228 1310 1228 1310 1174 c 0,25,26
 1310 1078 1310 1078 1252.5 1016 c 128,-1,27
 1195 954 1195 954 1090 943 c 1,28,29
 1200 930 1200 930 1263.5 864.5 c 128,-1,30
 1327 799 1327 799 1327 704 c 0,31,32
 1327 402 1327 402 755 402 c 0,33,34
 656 402 656 402 449 429 c 128,-1,35
 242 456 242 456 179 474 c 0,36,37
 141 484 141 484 141 514 c 0,38,39
 141 520 141 520 142 524 c 2,40,-1
 145 563 l 2,41,42
 148 594 148 594 176 594 c 0,43,44
 180 594 180 594 192 592 c 2,45,-1
 219 586 l 2,46,47
 246 581 246 581 276.5 576 c 128,-1,48
 307 571 307 571 353 563 c 128,-1,49
 399 555 399 555 448 548.5 c 128,-1,50
 497 542 497 542 549.5 536 c 128,-1,51
 602 530 602 530 658 526.5 c 128,-1,52
 714 523 714 523 762 523 c 0,53,54
 1151 523 1151 523 1174 690 c 0,55,56
 1175 697 1175 697 1175 711 c 0,57,58
 1175 747 1175 747 1158.5 777 c 128,-1,59
 1142 807 1142 807 1105 832.5 c 128,-1,60
 1068 858 1068 858 999 872.5 c 128,-1,61
 930 887 930 887 835 887 c 2,62,-1
 667 887 l 2,63,64
 644 887 644 887 644 917 c 2,65,-1
 644 975 l 2,66,67
 644 1006 644 1006 667 1006 c 2,68,-1
 835 1006 l 2,69,70
 1160 1006 1160 1006 1160 1181 c 0,71,72
 1160 1277 1160 1277 1071 1316 c 128,-1,73
 982 1355 982 1355 783 1355 c 0,0,1
EndSplineSet
EndChar

StartChar: acute
Encoding: 180 180 117
Width: 1745
GlyphClass: 2
Flags: W
LayerCount: 2
Fore
SplineSet
850 1166 m 2,0,1
 834 1166 834 1166 834 1190 c 0,2,3
 834 1208 834 1208 841 1233 c 1,4,-1
 904 1542 l 2,5,6
 910 1574 910 1574 923 1585.5 c 128,-1,7
 936 1597 936 1597 969 1597 c 2,8,-1
 1132 1597 l 2,9,10
 1160 1597 1160 1597 1160 1569 c 0,11,12
 1160 1553 1160 1553 1148 1532 c 1,13,-1
 924 1205 l 2,14,15
 912 1187 912 1187 902.5 1178 c 128,-1,16
 893 1169 893 1169 888.5 1167.5 c 128,-1,17
 884 1166 884 1166 876 1166 c 2,18,-1
 850 1166 l 2,0,1
EndSplineSet
EndChar

StartChar: uni00B5
Encoding: 181 181 118
Width: 1537
GlyphClass: 2
Flags: W
LayerCount: 2
Fore
SplineSet
220 -299 m 2,0,1
 188 -299 188 -299 170 -281.5 c 128,-1,2
 152 -264 152 -264 152 -232 c 2,3,-1
 152 939 l 2,4,5
 152 1006 152 1006 219 1006 c 2,6,-1
 304 1006 l 2,7,8
 371 1006 371 1006 371 939 c 2,9,-1
 371 397 l 2,10,11
 371 315 371 315 396.5 257 c 128,-1,12
 422 199 422 199 469.5 167.5 c 128,-1,13
 517 136 517 136 574.5 122.5 c 128,-1,14
 632 109 632 109 707 109 c 0,15,16
 803 109 803 109 911.5 152.5 c 128,-1,17
 1020 196 1020 196 1094 264.5 c 128,-1,18
 1168 333 1168 333 1168 397 c 2,19,-1
 1168 939 l 2,20,21
 1168 1006 1168 1006 1233 1006 c 2,22,-1
 1320 1006 l 2,23,24
 1387 1006 1387 1006 1387 939 c 2,25,-1
 1387 77 l 2,26,27
 1387 0 1387 0 1330 0 c 2,28,-1
 1313 0 l 2,29,30
 1277 0 1277 0 1258.5 14 c 128,-1,31
 1240 28 1240 28 1232 64 c 2,32,-1
 1207 183 l 1,33,34
 1199 196 1199 196 1193 196 c 0,35,36
 1185 196 1185 196 1172 181 c 0,37,38
 1079 64 1079 64 948 8.5 c 128,-1,39
 817 -47 817 -47 666 -47 c 0,40,41
 573 -47 573 -47 491 -23 c 128,-1,42
 409 1 409 1 372 50 c 1,43,-1
 372 -232 l 2,44,45
 372 -299 372 -299 313 -299 c 2,46,-1
 220 -299 l 2,0,1
EndSplineSet
EndChar

StartChar: paragraph
Encoding: 182 182 119
Width: 1256
GlyphClass: 2
Flags: W
LayerCount: 2
Fore
SplineSet
584 -1 m 2,0,1
 528 -1 528 -1 528 76 c 2,2,-1
 528 834 l 1,3,-1
 508 834 l 2,4,5
 310 834 310 834 214.5 909.5 c 128,-1,6
 119 985 119 985 119 1137 c 0,7,8
 119 1211 119 1211 144 1265 c 128,-1,9
 169 1319 169 1319 225 1359 c 128,-1,10
 281 1399 281 1399 377 1418.5 c 128,-1,11
 473 1438 473 1438 610 1438 c 0,12,13
 890 1438 890 1438 1031 1416 c 0,14,15
 1097 1405 1097 1405 1097 1338 c 2,16,-1
 1097 76 l 2,17,18
 1097 -1 1097 -1 1041 -1 c 2,19,-1
 965 -1 l 2,20,21
 908 -1 908 -1 908 76 c 2,22,-1
 908 813 l 2,23,24
 908 822 908 822 902.5 828 c 128,-1,25
 897 834 897 834 889 834 c 2,26,-1
 716 834 l 1,27,-1
 716 76 l 2,28,29
 716 -1 716 -1 660 -1 c 2,30,-1
 584 -1 l 2,0,1
EndSplineSet
EndChar

StartChar: periodcentered
Encoding: 183 183 120
Width: 543
GlyphClass: 2
Flags: W
LayerCount: 2
Fore
SplineSet
204 0 m 2,0,1
 172 0 172 0 149.5 22.5 c 128,-1,2
 127 45 127 45 127 77 c 2,3,-1
 127 220 l 2,4,5
 127 252 127 252 149.5 274.5 c 128,-1,6
 172 297 172 297 204 297 c 2,7,-1
 339 297 l 2,8,9
 371 297 371 297 393.5 274.5 c 128,-1,10
 416 252 416 252 416 220 c 2,11,-1
 416 77 l 2,12,13
 416 45 416 45 393.5 22.5 c 128,-1,14
 371 0 371 0 339 0 c 2,15,-1
 204 0 l 2,0,1
EndSplineSet
EndChar

StartChar: cedilla
Encoding: 184 184 121
Width: 716
GlyphClass: 2
Flags: W
LayerCount: 2
Fore
SplineSet
249 -209 m 2,0,-1
 312 -209 l 2,1,2
 342 -209 342 -209 342 -244 c 0,3,4
 342 -252 342 -252 340 -271 c 128,-1,5
 338 -290 338 -290 338 -298 c 0,6,7
 338 -340 338 -340 356 -367 c 128,-1,8
 374 -394 374 -394 410 -394 c 0,9,10
 447 -394 447 -394 465 -359 c 128,-1,11
 483 -324 483 -324 483 -243 c 0,12,13
 483 -183 483 -183 460.5 -136.5 c 128,-1,14
 438 -90 438 -90 402 -90 c 2,15,-1
 363 -90 l 1,16,17
 347 -91 347 -91 347 -80 c 2,18,-1
 347 -9 l 2,19,20
 347 8 347 8 363 8 c 2,21,-1
 438 8 l 2,22,23
 517 8 517 8 568 -56 c 128,-1,24
 619 -120 619 -120 619 -206 c 0,25,26
 619 -478 619 -478 403 -478 c 0,27,28
 316 -478 316 -478 257.5 -429 c 128,-1,29
 199 -380 199 -380 199 -300 c 0,30,31
 199 -209 199 -209 249 -209 c 2,0,-1
EndSplineSet
EndChar

StartChar: uni00B9
Encoding: 185 185 122
Width: 714
GlyphClass: 2
Flags: W
LayerCount: 2
Fore
SplineSet
429 434 m 2,0,1
 407 434 407 434 400.5 445 c 128,-1,2
 394 456 394 456 394 483 c 2,3,-1
 394 690 l 1,4,-1
 394 1281 l 1,5,6
 393 1282 393 1282 394 1289 c 128,-1,7
 395 1296 395 1296 388.5 1304.5 c 128,-1,8
 382 1313 382 1313 368 1313 c 1,9,-1
 169 1290 l 1,10,11
 128 1290 128 1290 128 1340 c 1,12,-1
 130 1363 l 1,13,14
 130 1408 130 1408 179 1408 c 2,15,-1
 180 1408 l 1,16,-1
 546 1443 l 1,17,18
 571 1443 571 1443 571 1417 c 0,19,20
 571 1414 571 1414 570.5 1405 c 128,-1,21
 570 1396 570 1396 570 1391 c 2,22,-1
 568 480 l 2,23,24
 568 461 568 461 557.5 447.5 c 128,-1,25
 547 434 547 434 528 434 c 2,26,-1
 429 434 l 2,0,1
EndSplineSet
EndChar

StartChar: ordmasculine
Encoding: 186 186 123
Width: 1628
GlyphClass: 2
Flags: W
LayerCount: 2
Fore
SplineSet
597 672 m 0,0,1
 769 672 769 672 882.5 760 c 128,-1,2
 996 848 996 848 996 1008 c 0,3,4
 996 1096 996 1096 962.5 1163.5 c 128,-1,5
 929 1231 929 1231 872 1270.5 c 128,-1,6
 815 1310 815 1310 745.5 1329 c 128,-1,7
 676 1348 676 1348 597 1348 c 0,8,9
 517 1348 517 1348 446.5 1328.5 c 128,-1,10
 376 1309 376 1309 318.5 1269.5 c 128,-1,11
 261 1230 261 1230 227.5 1163 c 128,-1,12
 194 1096 194 1096 194 1008 c 0,13,14
 194 902 194 902 249 824.5 c 128,-1,15
 304 747 304 747 394 709.5 c 128,-1,16
 484 672 484 672 597 672 c 0,0,1
598 545 m 0,17,18
 519 545 519 545 439.5 560.5 c 128,-1,19
 360 576 360 576 281.5 611.5 c 128,-1,20
 203 647 203 647 143 699 c 128,-1,21
 83 751 83 751 45.5 831 c 128,-1,22
 8 911 8 911 8 1008 c 0,23,24
 8 1108 8 1108 43 1188.5 c 128,-1,25
 78 1269 78 1269 135 1321.5 c 128,-1,26
 192 1374 192 1374 269.5 1409 c 128,-1,27
 347 1444 347 1444 428.5 1459 c 128,-1,28
 510 1474 510 1474 598 1474 c 0,29,30
 684 1474 684 1474 764.5 1459 c 128,-1,31
 845 1444 845 1444 922 1409 c 128,-1,32
 999 1374 999 1374 1056 1321.5 c 128,-1,33
 1113 1269 1113 1269 1148 1188.5 c 128,-1,34
 1183 1108 1183 1108 1183 1008 c 0,35,36
 1183 912 1183 912 1146 832 c 128,-1,37
 1109 752 1109 752 1049 700 c 128,-1,38
 989 648 989 648 911 612 c 128,-1,39
 833 576 833 576 754.5 560.5 c 128,-1,40
 676 545 676 545 598 545 c 0,17,18
EndSplineSet
EndChar

StartChar: guillemotright
Encoding: 187 187 124
Width: 1352
GlyphClass: 2
Flags: W
LayerCount: 2
Fore
SplineSet
184 251 m 0,0,1
 168 251 168 251 156 263 c 128,-1,2
 144 275 144 275 144 292 c 2,3,-1
 144 366 l 2,4,5
 144 385 144 385 154 400.5 c 128,-1,6
 164 416 164 416 173 423 c 128,-1,7
 182 430 182 430 206 445 c 1,8,-1
 527 677 l 2,9,10
 536 683 536 683 536 691 c 0,11,12
 536 697 536 697 527 704 c 2,13,-1
 206 939 l 1,14,15
 184 951 184 951 173 959.5 c 128,-1,16
 162 968 162 968 153 983 c 128,-1,17
 144 998 144 998 144 1018 c 2,18,-1
 144 1107 l 2,19,20
 144 1125 144 1125 156 1136.5 c 128,-1,21
 168 1148 168 1148 184 1148 c 0,22,23
 188 1148 188 1148 194.5 1146 c 128,-1,24
 201 1144 201 1144 202 1144 c 2,25,-1
 653 802 l 2,26,27
 655 800 655 800 662 795 c 128,-1,28
 669 790 669 790 671.5 788 c 128,-1,29
 674 786 674 786 680 781.5 c 128,-1,30
 686 777 686 777 688 774.5 c 128,-1,31
 690 772 690 772 694.5 767.5 c 128,-1,32
 699 763 699 763 701 759.5 c 128,-1,33
 703 756 703 756 706 751 c 128,-1,34
 709 746 709 746 710 741.5 c 128,-1,35
 711 737 711 737 712 731.5 c 128,-1,36
 713 726 713 726 713 720 c 2,37,-1
 713 664 l 2,38,39
 713 655 713 655 711.5 648 c 128,-1,40
 710 641 710 641 706 634 c 128,-1,41
 702 627 702 627 699.5 622.5 c 128,-1,42
 697 618 697 618 689.5 611.5 c 128,-1,43
 682 605 682 605 679 602.5 c 128,-1,44
 676 600 676 600 666 592 c 128,-1,45
 656 584 656 584 653 582 c 2,46,-1
 203 255 l 1,47,48
 193 251 193 251 184 251 c 0,0,1
701 251 m 0,49,50
 685 251 685 251 673 262.5 c 128,-1,51
 661 274 661 274 661 292 c 2,52,-1
 661 366 l 2,53,54
 661 381 661 381 664.5 391.5 c 128,-1,55
 668 402 668 402 681 413.5 c 128,-1,56
 694 425 694 425 698 428 c 128,-1,57
 702 431 702 431 723 445 c 2,58,-1
 1043 677 l 2,59,60
 1052 683 1052 683 1052 691 c 0,61,62
 1052 698 1052 698 1043 704 c 2,63,-1
 723 939 l 1,64,65
 701 951 701 951 690 959.5 c 128,-1,66
 679 968 679 968 670 983 c 128,-1,67
 661 998 661 998 661 1018 c 2,68,-1
 661 1107 l 2,69,70
 661 1125 661 1125 672.5 1136.5 c 128,-1,71
 684 1148 684 1148 700 1148 c 0,72,73
 703 1148 703 1148 710 1146 c 128,-1,74
 717 1144 717 1144 719 1144 c 1,75,-1
 1170 802 l 2,76,77
 1210 772 1210 772 1219 757 c 0,78,79
 1229 741 1229 741 1229 720 c 2,80,-1
 1229 664 l 2,81,82
 1229 656 1229 656 1227.5 649.5 c 128,-1,83
 1226 643 1226 643 1224.5 638 c 128,-1,84
 1223 633 1223 633 1218.5 626.5 c 128,-1,85
 1214 620 1214 620 1212 617 c 128,-1,86
 1210 614 1210 614 1202 607.5 c 128,-1,87
 1194 601 1194 601 1192.5 599.5 c 128,-1,88
 1191 598 1191 598 1181 590.5 c 128,-1,89
 1171 583 1171 583 1169 582 c 2,90,-1
 720 255 l 1,91,92
 708 251 708 251 701 251 c 0,49,50
EndSplineSet
EndChar

StartChar: onequarter
Encoding: 188 188 125
Width: 3032
GlyphClass: 2
Flags: W
LayerCount: 2
Fore
SplineSet
399 434 m 2,0,1
 377 434 377 434 370.5 445 c 128,-1,2
 364 456 364 456 364 483 c 2,3,-1
 364 690 l 1,4,-1
 364 1281 l 1,5,6
 363 1282 363 1282 364 1289 c 128,-1,7
 365 1296 365 1296 358.5 1304.5 c 128,-1,8
 352 1313 352 1313 338 1313 c 1,9,-1
 139 1290 l 1,10,11
 98 1290 98 1290 98 1340 c 1,12,-1
 100 1363 l 1,13,14
 100 1408 100 1408 149 1408 c 2,15,-1
 150 1408 l 1,16,-1
 516 1443 l 1,17,18
 541 1443 541 1443 541 1417 c 0,19,20
 541 1414 541 1414 540.5 1405 c 128,-1,21
 540 1396 540 1396 540 1391 c 2,22,-1
 538 480 l 2,23,24
 538 461 538 461 527.5 447.5 c 128,-1,25
 517 434 517 434 498 434 c 2,26,-1
 399 434 l 2,0,1
2566 3 m 2,27,28
 2520 3 2520 3 2520 50 c 2,29,-1
 2520 201 l 1,30,-1
 1937 199 l 2,31,32
 1917 199 1917 199 1902.5 208.5 c 128,-1,33
 1888 218 1888 218 1888 234 c 0,34,35
 1888 241 1888 241 1890 246 c 2,36,-1
 2115 958 l 2,37,38
 2121 975 2121 975 2124.5 983.5 c 128,-1,39
 2128 992 2128 992 2137.5 999 c 128,-1,40
 2147 1006 2147 1006 2161 1006 c 2,41,-1
 2237 1006 l 2,42,43
 2257 1006 2257 1006 2271.5 996 c 128,-1,44
 2286 986 2286 986 2286 970 c 0,45,46
 2286 967 2286 967 2284 959 c 2,47,-1
 2093 339 l 1,48,-1
 2093 332 l 2,49,50
 2093 324 2093 324 2098.5 319.5 c 128,-1,51
 2104 315 2104 315 2112 316 c 1,52,-1
 2520 315 l 1,53,-1
 2520 959 l 2,54,55
 2520 1006 2520 1006 2567 1006 c 2,56,-1
 2646 1006 l 2,57,58
 2693 1006 2693 1006 2693 959 c 2,59,-1
 2693 315 l 1,60,-1
 2872 315 l 2,61,62
 2918 315 2918 315 2918 269 c 2,63,-1
 2918 248 l 2,64,65
 2918 201 2918 201 2872 201 c 2,66,-1
 2693 201 l 1,67,-1
 2693 50 l 2,68,69
 2693 3 2693 3 2646 3 c 2,70,-1
 2566 3 l 2,27,28
758 -205 m 2,71,72
 741 -205 741 -205 741 -187 c 0,73,74
 741 -178 741 -178 745 -171 c 2,75,-1
 1641 1618 l 2,76,77
 1642 1620 1642 1620 1644 1624.5 c 128,-1,78
 1646 1629 1646 1629 1647 1630 c 128,-1,79
 1648 1631 1648 1631 1649.5 1634.5 c 128,-1,80
 1651 1638 1651 1638 1652.5 1639 c 128,-1,81
 1654 1640 1654 1640 1656 1642 c 128,-1,82
 1658 1644 1658 1644 1660 1644.5 c 128,-1,83
 1662 1645 1662 1645 1665 1646 c 128,-1,84
 1668 1647 1668 1647 1672 1647.5 c 128,-1,85
 1676 1648 1676 1648 1680 1648 c 2,86,-1
 1714 1648 l 1,87,-1
 1812 1648 l 2,88,89
 1829 1648 1829 1648 1829 1629 c 0,90,91
 1829 1620 1829 1620 1826 1613 c 2,92,-1
 940 -170 l 2,93,94
 927 -195 927 -195 919 -200 c 128,-1,95
 911 -205 911 -205 890 -205 c 2,96,-1
 758 -205 l 2,71,72
EndSplineSet
EndChar

StartChar: onehalf
Encoding: 189 189 126
Width: 3418
GlyphClass: 2
Flags: W
LayerCount: 2
Fore
SplineSet
2075 0 m 2,0,1
 2025 0 2025 0 2025 65 c 0,2,3
 2025 86 2025 86 2029 109 c 0,4,5
 2050 209 2050 209 2100.5 282 c 128,-1,6
 2151 355 2151 355 2219.5 396.5 c 128,-1,7
 2288 438 2288 438 2371 464.5 c 128,-1,8
 2454 491 2454 491 2540.5 502.5 c 128,-1,9
 2627 514 2627 514 2712 522 c 128,-1,10
 2797 530 2797 530 2872 540 c 128,-1,11
 2947 550 2947 550 3004 568.5 c 128,-1,12
 3061 587 3061 587 3094.5 624 c 128,-1,13
 3128 661 3128 661 3128 718 c 0,14,15
 3128 828 3128 828 3014.5 881 c 128,-1,16
 2901 934 2901 934 2653 934 c 0,17,18
 2535 934 2535 934 2407.5 911.5 c 128,-1,19
 2280 889 2280 889 2210.5 868 c 128,-1,20
 2141 847 2141 847 2138 842 c 0,21,22
 2138 841 2138 841 2137 840 c 0,23,24
 2137 839 2137 839 2134 839 c 0,25,26
 2132 839 2132 839 2130 839 c 0,27,28
 2095 839 2095 839 2091 862 c 1,29,30
 2069 910 2069 910 2069 916 c 0,31,32
 2070 950 2070 950 2097 963 c 1,33,34
 2193 995 2193 995 2340.5 1024.5 c 128,-1,35
 2488 1054 2488 1054 2643 1054 c 0,36,37
 2794 1054 2794 1054 2907.5 1036.5 c 128,-1,38
 3021 1019 3021 1019 3106.5 980 c 128,-1,39
 3192 941 3192 941 3235.5 875 c 128,-1,40
 3279 809 3279 809 3279 716 c 0,41,42
 3279 636 3279 636 3246.5 579.5 c 128,-1,43
 3214 523 3214 523 3158 492 c 128,-1,44
 3102 461 3102 461 3029.5 442.5 c 128,-1,45
 2957 424 2957 424 2874 415 c 128,-1,46
 2791 406 2791 406 2707 398 c 128,-1,47
 2623 390 2623 390 2543 375 c 128,-1,48
 2463 360 2463 360 2397 335 c 128,-1,49
 2331 310 2331 310 2282.5 261.5 c 128,-1,50
 2234 213 2234 213 2215 143 c 1,51,52
 2215 116 2215 116 2248 116 c 2,53,-1
 3186 116 l 2,54,55
 3207 116 3207 116 3212.5 107.5 c 128,-1,56
 3218 99 3218 99 3218 75 c 2,57,-1
 3218 35 l 2,58,59
 3218 12 3218 12 3211 6 c 128,-1,60
 3204 0 3204 0 3182 0 c 2,61,-1
 2075 0 l 2,0,1
927 -205 m 2,62,63
 914 -205 914 -205 910.5 -194 c 128,-1,64
 907 -183 907 -183 914 -171 c 2,65,-1
 1809 1618 l 2,66,67
 1815 1629 1815 1629 1816 1631.5 c 128,-1,68
 1817 1634 1817 1634 1822 1640 c 128,-1,69
 1827 1646 1827 1646 1833 1647 c 128,-1,70
 1839 1648 1839 1648 1849 1648 c 2,71,-1
 1883 1648 l 1,72,-1
 1981 1648 l 2,73,74
 1998 1648 1998 1648 1998 1629 c 0,75,76
 1998 1620 1998 1620 1995 1613 c 2,77,-1
 1109 -170 l 2,78,79
 1096 -195 1096 -195 1088 -200 c 128,-1,80
 1080 -205 1080 -205 1059 -205 c 2,81,-1
 927 -205 l 2,62,63
439 434 m 2,82,83
 417 434 417 434 410.5 445 c 128,-1,84
 404 456 404 456 404 483 c 2,85,-1
 404 690 l 1,86,-1
 404 1281 l 1,87,88
 403 1282 403 1282 404 1289 c 128,-1,89
 405 1296 405 1296 398.5 1304.5 c 128,-1,90
 392 1313 392 1313 378 1313 c 1,91,-1
 179 1290 l 1,92,93
 138 1290 138 1290 138 1340 c 1,94,-1
 140 1363 l 1,95,96
 140 1408 140 1408 189 1408 c 2,97,-1
 190 1408 l 1,98,-1
 556 1443 l 1,99,100
 581 1443 581 1443 581 1417 c 0,101,102
 581 1414 581 1414 580.5 1405 c 128,-1,103
 580 1396 580 1396 580 1391 c 2,104,-1
 578 480 l 2,105,106
 578 461 578 461 567.5 447.5 c 128,-1,107
 557 434 557 434 538 434 c 2,108,-1
 439 434 l 2,82,83
EndSplineSet
EndChar

StartChar: threequarters
Encoding: 190 190 127
Width: 3635
GlyphClass: 2
Flags: W
LayerCount: 2
Fore
SplineSet
1525 -172 m 1,0,1
 1511 -205 1511 -205 1473 -205 c 2,2,-1
 1378 -205 l 2,3,4
 1366 -205 1366 -205 1359 -194.5 c 128,-1,5
 1352 -184 1352 -184 1358 -172 c 2,6,-1
 2260 1615 l 2,7,8
 2266 1628 2266 1628 2280.5 1637.5 c 128,-1,9
 2295 1647 2295 1647 2310 1647 c 2,10,-1
 2409 1647 l 2,11,12
 2420 1647 2420 1647 2427.5 1637.5 c 128,-1,13
 2435 1628 2435 1628 2429 1617 c 2,14,-1
 1525 -172 l 1,0,1
3041 3 m 2,15,16
 2994 3 2994 3 2994 50 c 2,17,-1
 2994 201 l 1,18,-1
 2428 201 l 2,19,20
 2408 201 2408 201 2393.5 210.5 c 128,-1,21
 2379 220 2379 220 2379 237 c 0,22,23
 2379 244 2379 244 2381 248 c 2,24,-1
 2606 960 l 2,25,26
 2614 985 2614 985 2623 996 c 128,-1,27
 2632 1007 2632 1007 2653 1007 c 2,28,-1
 2711 1007 l 2,29,30
 2731 1007 2731 1007 2745.5 997 c 128,-1,31
 2760 987 2760 987 2760 971 c 0,32,33
 2760 964 2760 964 2758 960 c 2,34,-1
 2568 339 l 2,35,36
 2567 337 2567 337 2567 332 c 0,37,38
 2567 316 2567 316 2587 316 c 2,39,-1
 2994 316 l 1,40,-1
 2994 960 l 2,41,42
 2994 1007 2994 1007 3041 1007 c 2,43,-1
 3099 1007 l 2,44,45
 3146 1007 3146 1007 3146 960 c 2,46,-1
 3146 316 l 1,47,-1
 3325 316 l 2,48,49
 3371 316 3371 316 3371 269 c 2,50,-1
 3371 248 l 2,51,52
 3371 201 3371 201 3325 201 c 2,53,-1
 3146 201 l 1,54,-1
 3146 50 l 2,55,56
 3146 3 3146 3 3099 3 c 2,57,-1
 3041 3 l 2,15,16
783 1356 m 0,58,59
 721 1356 721 1356 650 1351 c 128,-1,60
 579 1346 579 1346 521.5 1339 c 128,-1,61
 464 1332 464 1332 403.5 1322.5 c 128,-1,62
 343 1313 343 1313 306.5 1306.5 c 128,-1,63
 270 1300 270 1300 236 1293 c 2,64,-1
 202 1286 l 2,65,66
 196 1284 196 1284 185 1284 c 0,67,68
 153 1284 153 1284 149 1315 c 1,69,-1
 142 1353 l 2,70,71
 141 1356 141 1356 141 1362 c 0,72,73
 141 1392 141 1392 179 1402 c 1,74,75
 246 1422 246 1422 452.5 1450 c 128,-1,76
 659 1478 659 1478 779 1478 c 0,77,78
 904 1478 904 1478 998.5 1462.5 c 128,-1,79
 1093 1447 1093 1447 1151.5 1420.5 c 128,-1,80
 1210 1394 1210 1394 1246.5 1354.5 c 128,-1,81
 1283 1315 1283 1315 1296.5 1272 c 128,-1,82
 1310 1229 1310 1229 1310 1175 c 0,83,84
 1310 1079 1310 1079 1252.5 1017 c 128,-1,85
 1195 955 1195 955 1090 944 c 1,86,87
 1200 931 1200 931 1263.5 865.5 c 128,-1,88
 1327 800 1327 800 1327 705 c 0,89,90
 1327 403 1327 403 755 403 c 0,91,92
 656 403 656 403 449 430 c 128,-1,93
 242 457 242 457 179 475 c 0,94,95
 141 485 141 485 141 515 c 0,96,97
 141 521 141 521 142 525 c 2,98,-1
 145 564 l 2,99,100
 148 595 148 595 176 595 c 0,101,102
 180 595 180 595 192 593 c 2,103,-1
 219 588 l 2,104,105
 246 582 246 582 276.5 577 c 128,-1,106
 307 572 307 572 353 564 c 128,-1,107
 399 556 399 556 448 549.5 c 128,-1,108
 497 543 497 543 549.5 537 c 128,-1,109
 602 531 602 531 658 527.5 c 128,-1,110
 714 524 714 524 762 524 c 0,111,112
 1151 524 1151 524 1174 691 c 0,113,114
 1175 698 1175 698 1175 712 c 0,115,116
 1175 748 1175 748 1158.5 778 c 128,-1,117
 1142 808 1142 808 1105 833.5 c 128,-1,118
 1068 859 1068 859 999 873.5 c 128,-1,119
 930 888 930 888 835 888 c 2,120,-1
 667 888 l 2,121,122
 644 888 644 888 644 918 c 2,123,-1
 644 976 l 2,124,125
 644 1007 644 1007 667 1007 c 2,126,-1
 835 1007 l 2,127,128
 1160 1007 1160 1007 1160 1182 c 0,129,130
 1160 1278 1160 1278 1071 1317 c 128,-1,131
 982 1356 982 1356 783 1356 c 0,58,59
EndSplineSet
EndChar

StartChar: AE
Encoding: 198 198 135
Width: 2128
GlyphClass: 2
Flags: W
LayerCount: 2
Fore
SplineSet
150 0 m 2,0,1
 105 0 105 0 105 32 c 0,2,3
 105 47 105 47 115 67 c 2,4,-1
 811 1371 l 1,5,6
 841 1433 841 1433 903 1438 c 1,7,-1
 1926 1438 l 2,8,9
 1957 1438 1957 1438 1975 1416 c 128,-1,10
 1993 1394 1993 1394 1993 1361 c 2,11,-1
 1993 1360 l 2,12,13
 1993 1327 1993 1327 1975 1305 c 128,-1,14
 1957 1283 1957 1283 1926 1283 c 2,15,-1
 1197 1283 l 2,16,17
 1182 1283 1182 1283 1176 1278 c 128,-1,18
 1170 1273 1170 1273 1170 1258 c 2,19,-1
 1170 848 l 1,20,21
 1171 846 1171 846 1172.5 843.5 c 128,-1,22
 1174 841 1174 841 1177 835.5 c 128,-1,23
 1180 830 1180 830 1182 826 c 2,24,-1
 1183 822 l 1,25,-1
 1814 822 l 2,26,27
 1845 822 1845 822 1862.5 800.5 c 128,-1,28
 1880 779 1880 779 1880 745 c 2,29,-1
 1880 742 l 2,30,31
 1880 708 1880 708 1862.5 686.5 c 128,-1,32
 1845 665 1845 665 1814 665 c 2,33,-1
 1189 665 l 1,34,-1
 1170 648 l 1,35,-1
 1170 172 l 1,36,37
 1171 171 1171 171 1172.5 169 c 128,-1,38
 1174 167 1174 167 1177 163.5 c 128,-1,39
 1180 160 1180 160 1182 158 c 1,40,-1
 1183 155 l 1,41,-1
 1924 155 l 2,42,43
 1955 155 1955 155 1973 133.5 c 128,-1,44
 1991 112 1991 112 1991 79 c 2,45,-1
 1991 77 l 2,46,47
 1991 44 1991 44 1973 22 c 128,-1,48
 1955 0 1955 0 1924 0 c 2,49,-1
 1020 0 l 2,50,51
 954 0 954 0 954 67 c 2,52,-1
 954 342 l 1,53,-1
 485 342 l 1,54,-1
 476 336 l 1,55,-1
 342 67 l 1,56,57
 311 0 311 0 243 0 c 2,58,-1
 150 0 l 2,0,1
550 471 m 2,59,-1
 970 471 l 1,60,-1
 970 1317 l 1,61,-1
 951 1282 l 1,62,63
 908 1200 908 1200 739 867 c 128,-1,64
 570 534 570 534 556 497 c 0,65,66
 548 477 548 477 548 473 c 0,67,68
 548 471 548 471 550 471 c 2,59,-1
EndSplineSet
EndChar

StartChar: Eth
Encoding: 208 208 145
Width: 2208
GlyphClass: 2
Flags: W
LayerCount: 2
Fore
SplineSet
402 155 m 1,0,-1
 1141 155 l 2,1,2
 1232 155 1232 155 1305 160.5 c 128,-1,3
 1378 166 1378 166 1454.5 181 c 128,-1,4
 1531 196 1531 196 1588.5 222 c 128,-1,5
 1646 248 1646 248 1699 291 c 128,-1,6
 1752 334 1752 334 1785.5 392.5 c 128,-1,7
 1819 451 1819 451 1838.5 534 c 128,-1,8
 1858 617 1858 617 1858 721 c 0,9,10
 1858 844 1858 844 1822 940.5 c 128,-1,11
 1786 1037 1786 1037 1723 1101 c 128,-1,12
 1660 1165 1660 1165 1568.5 1206.5 c 128,-1,13
 1477 1248 1477 1248 1371.5 1265.5 c 128,-1,14
 1266 1283 1266 1283 1140 1283 c 2,15,-1
 396 1283 l 1,16,17
 395 1282 395 1282 392.5 1280 c 128,-1,18
 390 1278 390 1278 385.5 1274 c 128,-1,19
 381 1270 381 1270 378 1268 c 2,20,-1
 375 1266 l 1,21,-1
 375 831 l 1,22,-1
 740 831 l 2,23,24
 771 831 771 831 783.5 814.5 c 128,-1,25
 796 798 796 798 796 764 c 2,26,-1
 796 744 l 2,27,28
 796 710 796 710 783.5 693.5 c 128,-1,29
 771 677 771 677 740 677 c 2,30,-1
 375 677 l 1,31,-1
 375 176 l 1,32,-1
 382 171 l 2,33,34
 388 166 388 166 395 160 c 2,35,-1
 402 155 l 1,0,-1
227 0 m 2,36,37
 160 0 160 0 160 67 c 2,38,-1
 160 677 l 1,39,-1
 58 677 l 2,40,41
 27 677 27 677 14 693.5 c 128,-1,42
 1 710 1 710 1 744 c 2,43,-1
 1 764 l 2,44,45
 1 798 1 798 14 814.5 c 128,-1,46
 27 831 27 831 58 831 c 2,47,-1
 160 831 l 1,48,-1
 160 1371 l 2,49,50
 160 1438 160 1438 227 1438 c 2,51,-1
 1134 1438 l 2,52,53
 1237 1438 1237 1438 1331 1428.5 c 128,-1,54
 1425 1419 1425 1419 1521 1396 c 128,-1,55
 1617 1373 1617 1373 1697 1336.5 c 128,-1,56
 1777 1300 1777 1300 1848 1243.5 c 128,-1,57
 1919 1187 1919 1187 1968 1114 c 128,-1,58
 2017 1041 2017 1041 2045.5 941 c 128,-1,59
 2074 841 2074 841 2074 721 c 0,60,61
 2074 592 2074 592 2045.5 487 c 128,-1,62
 2017 382 2017 382 1969 308 c 128,-1,63
 1921 234 1921 234 1848.5 178.5 c 128,-1,64
 1776 123 1776 123 1698 89.5 c 128,-1,65
 1620 56 1620 56 1522 35.5 c 128,-1,66
 1424 15 1424 15 1333.5 7.5 c 128,-1,67
 1243 0 1243 0 1137 0 c 2,68,-1
 227 0 l 2,36,37
EndSplineSet
EndChar

StartChar: multiply
Encoding: 215 215 152
Width: 1116
GlyphClass: 2
Flags: W
LayerCount: 2
Fore
SplineSet
263 259 m 0,0,1
 232 259 232 259 209 282 c 2,2,-1
 167 326 l 2,3,4
 145 349 145 349 145 381 c 128,-1,5
 145 413 145 413 167 435 c 2,6,-1
 200 468 l 2,7,8
 233 502 233 502 292 562 c 128,-1,9
 351 622 351 622 408 679 c 1,10,11
 354 732 354 732 295 789 c 128,-1,12
 236 846 236 846 201 879.5 c 128,-1,13
 166 913 166 913 159 920 c 0,14,15
 136 943 136 943 136 975 c 0,16,17
 136 1006 136 1006 159 1029 c 2,18,-1
 203 1071 l 2,19,20
 226 1093 226 1093 258 1093 c 0,21,22
 291 1093 291 1093 312 1071 c 1,23,-1
 346 1038 l 2,24,25
 379 1005 379 1005 439 945.5 c 128,-1,26
 499 886 499 886 557 829 c 1,27,28
 612 885 612 885 674 947.5 c 128,-1,29
 736 1010 736 1010 768 1043 c 128,-1,30
 800 1076 800 1076 803 1079 c 0,31,32
 826 1102 826 1102 858 1102 c 128,-1,33
 890 1102 890 1102 912 1079 c 2,34,-1
 948 1042 l 2,35,36
 971 1019 971 1019 971 987 c 0,37,38
 971 957 971 957 948 933 c 0,39,40
 938 923 938 923 706 682 c 1,41,42
 909 482 909 482 956 435 c 0,43,44
 979 413 979 413 979 380 c 0,45,46
 979 348 979 348 957 326 c 2,47,-1
 919 290 l 2,48,49
 896 267 896 267 864 267 c 0,50,51
 834 267 834 267 811 290 c 1,52,53
 800 299 800 299 560 532 c 1,54,55
 514 484 514 484 451.5 419.5 c 128,-1,56
 389 355 389 355 357.5 322.5 c 128,-1,57
 326 290 326 290 318 282 c 0,58,59
 295 259 295 259 263 259 c 0,0,1
EndSplineSet
EndChar

StartChar: Oslash
Encoding: 216 216 153
Width: 2174
GlyphClass: 2
Flags: W
LayerCount: 2
Fore
SplineSet
784 -202 m 2,0,-1
 671 -200 l 2,1,2
 660 -200 660 -200 654.5 -189 c 128,-1,3
 649 -178 649 -178 654 -167 c 2,4,-1
 722 -4 l 1,5,6
 621 20 621 20 537 57 c 128,-1,7
 453 94 453 94 377 154.5 c 128,-1,8
 301 215 301 215 248.5 293.5 c 128,-1,9
 196 372 196 372 165 482 c 128,-1,10
 134 592 134 592 134 724 c 0,11,12
 134 889 134 889 190 1020.5 c 128,-1,13
 246 1152 246 1152 337.5 1235.5 c 128,-1,14
 429 1319 429 1319 555 1374.5 c 128,-1,15
 681 1430 681 1430 812 1452.5 c 128,-1,16
 943 1475 943 1475 1087 1475 c 0,17,18
 1216 1475 1216 1475 1329 1458 c 1,19,-1
 1389 1602 l 2,20,21
 1402 1635 1402 1635 1433 1635 c 2,22,-1
 1546 1635 l 2,23,24
 1556 1635 1556 1635 1562 1624 c 128,-1,25
 1568 1613 1568 1613 1563 1602 c 2,26,-1
 1489 1422 l 1,27,28
 1609 1388 1609 1388 1705 1332 c 128,-1,29
 1801 1276 1801 1276 1878 1192.5 c 128,-1,30
 1955 1109 1955 1109 1997.5 990 c 128,-1,31
 2040 871 2040 871 2040 724 c 0,32,33
 2040 595 2040 595 2011 487.5 c 128,-1,34
 1982 380 1982 380 1932 302 c 128,-1,35
 1882 224 1882 224 1809.5 163.5 c 128,-1,36
 1737 103 1737 103 1655.5 65 c 128,-1,37
 1574 27 1574 27 1476.5 2.5 c 128,-1,38
 1379 -22 1379 -22 1285 -31.5 c 128,-1,39
 1191 -41 1191 -41 1087 -41 c 0,40,41
 982 -41 982 -41 886 -31 c 1,42,-1
 829 -169 l 2,43,44
 823 -184 823 -184 810.5 -193 c 128,-1,45
 798 -202 798 -202 784 -202 c 2,0,-1
785 150 m 1,46,-1
 1264 1301 l 1,47,48
 1166 1313 1166 1313 1087 1313 c 0,49,50
 963 1313 963 1313 854.5 1292.5 c 128,-1,51
 746 1272 746 1272 652 1226.5 c 128,-1,52
 558 1181 558 1181 491 1113.5 c 128,-1,53
 424 1046 424 1046 385.5 946.5 c 128,-1,54
 347 847 347 847 347 724 c 0,55,56
 347 249 347 249 785 150 c 1,46,-1
1087 121 m 0,57,58
 1214 121 1214 121 1316.5 136 c 128,-1,59
 1419 151 1419 151 1517 191.5 c 128,-1,60
 1615 232 1615 232 1681 297.5 c 128,-1,61
 1747 363 1747 363 1787 471.5 c 128,-1,62
 1827 580 1827 580 1827 724 c 0,63,64
 1827 937 1827 937 1719.5 1072 c 128,-1,65
 1612 1207 1612 1207 1423 1266 c 1,66,-1
 952 126 l 1,67,68
 1007 121 1007 121 1087 121 c 0,57,58
EndSplineSet
EndChar

StartChar: Thorn
Encoding: 222 222 159
Width: 1825
GlyphClass: 2
Flags: W
LayerCount: 2
Fore
SplineSet
227 0 m 2,0,1
 160 0 160 0 160 67 c 2,2,-1
 160 1371 l 2,3,4
 160 1438 160 1438 227 1438 c 2,5,-1
 308 1438 l 2,6,7
 375 1438 375 1438 375 1371 c 2,8,-1
 375 1222 l 1,9,-1
 634 1222 l 2,10,11
 733 1222 733 1222 793 1221.5 c 128,-1,12
 853 1221 853 1221 952.5 1217 c 128,-1,13
 1052 1213 1052 1213 1115.5 1205 c 128,-1,14
 1179 1197 1179 1197 1265.5 1182 c 128,-1,15
 1352 1167 1352 1167 1407.5 1145.5 c 128,-1,16
 1463 1124 1463 1124 1523.5 1091 c 128,-1,17
 1584 1058 1584 1058 1618.5 1016 c 128,-1,18
 1653 974 1653 974 1676 916.5 c 128,-1,19
 1699 859 1699 859 1699 789 c 0,20,21
 1699 710 1699 710 1680.5 646 c 128,-1,22
 1662 582 1662 582 1635 534.5 c 128,-1,23
 1608 487 1608 487 1555 450.5 c 128,-1,24
 1502 414 1502 414 1456.5 390 c 128,-1,25
 1411 366 1411 366 1330 349.5 c 128,-1,26
 1249 333 1249 333 1192.5 324.5 c 128,-1,27
 1136 316 1136 316 1034 311.5 c 128,-1,28
 932 307 932 307 870.5 306.5 c 128,-1,29
 809 306 809 306 694 306 c 2,30,-1
 394 306 l 1,31,32
 393 305 393 305 391 303 c 128,-1,33
 389 301 389 301 385 296.5 c 128,-1,34
 381 292 381 292 378 290 c 2,35,-1
 375 287 l 1,36,-1
 375 67 l 2,37,38
 375 0 375 0 308 0 c 2,39,-1
 227 0 l 2,0,1
391 479 m 1,40,-1
 687 479 l 2,41,42
 781 479 781 479 833.5 479.5 c 128,-1,43
 886 480 886 480 964 482 c 128,-1,44
 1042 484 1042 484 1084.5 488 c 128,-1,45
 1127 492 1127 492 1187 499.5 c 128,-1,46
 1247 507 1247 507 1279 519 c 128,-1,47
 1311 531 1311 531 1351.5 547.5 c 128,-1,48
 1392 564 1392 564 1412.5 587 c 128,-1,49
 1433 610 1433 610 1453.5 639.5 c 128,-1,50
 1474 669 1474 669 1481.5 706 c 128,-1,51
 1489 743 1489 743 1489 789 c 0,52,53
 1489 839 1489 839 1473 879.5 c 128,-1,54
 1457 920 1457 920 1419 948 c 128,-1,55
 1381 976 1381 976 1342 997 c 128,-1,56
 1303 1018 1303 1018 1233 1030.5 c 128,-1,57
 1163 1043 1163 1043 1110 1050.5 c 128,-1,58
 1057 1058 1057 1058 962.5 1061.5 c 128,-1,59
 868 1065 868 1065 808 1065.5 c 128,-1,60
 748 1066 748 1066 639 1066 c 2,61,-1
 392 1066 l 1,62,63
 391 1065 391 1065 389 1063.5 c 128,-1,64
 387 1062 387 1062 383.5 1058.5 c 128,-1,65
 380 1055 380 1055 378 1053 c 2,66,-1
 375 1051 l 1,67,-1
 375 500 l 1,68,-1
 391 479 l 1,40,-1
EndSplineSet
EndChar

StartChar: germandbls
Encoding: 223 223 160
Width: 1706
GlyphClass: 2
Flags: W
LayerCount: 2
Fore
SplineSet
213 0 m 2,0,1
 156 0 156 0 156 77 c 2,2,-1
 156 969 l 2,3,4
 156 1040 156 1040 164.5 1095.5 c 128,-1,5
 173 1151 173 1151 195 1207 c 128,-1,6
 217 1263 217 1263 258 1303 c 128,-1,7
 299 1343 299 1343 360.5 1374.5 c 128,-1,8
 422 1406 422 1406 514 1422 c 128,-1,9
 606 1438 606 1438 726 1438 c 2,10,-1
 780 1438 l 2,11,12
 1116 1438 1116 1438 1282 1347 c 128,-1,13
 1448 1256 1448 1256 1448 1040 c 0,14,15
 1448 869 1448 869 1257 781 c 0,16,17
 1247 777 1247 777 1248 771 c 128,-1,18
 1249 765 1249 765 1260 762 c 0,19,20
 1403 723 1403 723 1489 634.5 c 128,-1,21
 1575 546 1575 546 1575 424 c 0,22,23
 1575 327 1575 327 1536 254 c 128,-1,24
 1497 181 1497 181 1427 133 c 128,-1,25
 1357 85 1357 85 1251.5 55 c 128,-1,26
 1146 25 1146 25 1023 12.5 c 128,-1,27
 900 0 900 0 744 0 c 2,28,-1
 561 0 l 2,29,30
 530 0 530 0 530 24 c 2,31,-1
 530 134 l 2,32,33
 530 157 530 157 561 155 c 1,34,-1
 761 155 l 2,35,36
 912 155 912 155 1018.5 166 c 128,-1,37
 1125 177 1125 177 1192.5 197 c 128,-1,38
 1260 217 1260 217 1297.5 251 c 128,-1,39
 1335 285 1335 285 1349 324 c 128,-1,40
 1363 363 1363 363 1363 420 c 0,41,42
 1363 503 1363 503 1316.5 554.5 c 128,-1,43
 1270 606 1270 606 1146.5 635.5 c 128,-1,44
 1023 665 1023 665 813 665 c 2,45,-1
 594 665 l 2,46,47
 563 665 563 665 563 693 c 2,48,-1
 563 803 l 2,49,50
 563 820 563 820 570 826.5 c 128,-1,51
 577 833 577 833 594 833 c 2,52,-1
 823 833 l 2,53,54
 925 833 925 833 1003.5 845.5 c 128,-1,55
 1082 858 1082 858 1129 877.5 c 128,-1,56
 1176 897 1176 897 1205.5 925.5 c 128,-1,57
 1235 954 1235 954 1245.5 982 c 128,-1,58
 1256 1010 1256 1010 1256 1042 c 0,59,60
 1256 1108 1256 1108 1234.5 1149.5 c 128,-1,61
 1213 1191 1213 1191 1153.5 1222.5 c 128,-1,62
 1094 1254 1094 1254 986 1268 c 128,-1,63
 878 1282 878 1282 708 1282 c 0,64,65
 530 1282 530 1282 450 1211.5 c 128,-1,66
 370 1141 370 1141 370 976 c 2,67,-1
 370 76 l 2,68,69
 370 0 370 0 302 0 c 2,70,-1
 213 0 l 2,0,1
EndSplineSet
EndChar

